<?xml version="1.0" encoding="UTF-8"?>
<svg version="1.1" xmlns="http://www.w3.org/2000/svg" viewBox="190 365 1160 285">
<path d="M0 0 C5.81113249 1.14135599 11.57139724 1.82075603 17.48046875 2.18359375 C18.77984375 2.26609375 20.07921875 2.34859375 21.41796875 2.43359375 C22.77211565 2.51724761 24.12628255 2.6005785 25.48046875 2.68359375 C28.14736127 2.84708141 30.81392896 3.01428964 33.48046875 3.18359375 C34.65609375 3.25578125 35.83171875 3.32796875 37.04296875 3.40234375 C40.48046875 3.68359375 40.48046875 3.68359375 43.61743164 4.21533203 C49.18264422 4.88992457 54.68981571 4.74479147 60.2890625 4.67578125 C62.83658446 4.65825003 65.38411077 4.64134321 67.93164062 4.625 C71.91382554 4.59420802 75.89565311 4.55885517 79.87768555 4.51220703 C106.22495429 4.22020692 106.22495429 4.22020692 118.40795898 6.98925781 C131.8746076 10.03249569 145.36852096 6.85853862 158.48046875 3.68359375 C180.63478164 -1.61825895 201.74419458 -3.47904413 224.48046875 -3.50390625 C225.31054443 -3.50508453 226.14062012 -3.50626282 226.99584961 -3.50747681 C240.3673315 -3.50532652 253.63365772 -3.02414846 266.91796875 -1.37890625 C268.17480469 -1.22550781 269.43164062 -1.07210938 270.7265625 -0.9140625 C273.4920692 -0.57175941 276.25424258 -0.21248482 279.01611328 0.15844727 C288.48686882 1.41422255 297.9388852 2.2520585 307.48046875 2.74609375 C308.24107605 2.78750488 309.00168335 2.82891602 309.78533936 2.87158203 C321.77526615 3.51008986 333.76525304 3.79308426 345.76953125 3.9609375 C346.83539082 3.9760673 346.83539082 3.9760673 347.9227829 3.99150276 C355.11590683 4.092225 362.30895912 4.18005558 369.50257301 4.236619 C371.56827749 4.25393684 373.63390225 4.27520143 375.69955444 4.29786682 C378.24426255 4.32494405 380.78906379 4.34472415 383.33389282 4.35557556 C391.84768054 4.45473825 399.86562606 5.53738986 408.19432068 7.2375946 C418.754337 9.29772287 429.86829319 7.94328428 440.1789093 5.3494873 C459.515145 0.60749185 479.35877982 0.22057521 499.16503906 0.34741211 C503.10893151 0.37111456 507.05214731 0.36792744 510.99609375 0.36132812 C530.66058004 0.38244186 550.06921023 1.33057894 569.48046875 4.62109375 C571.65067296 4.97233782 573.82125666 5.32124408 575.9921875 5.66796875 C577.06130371 5.83876953 578.13041992 6.00957031 579.23193359 6.18554688 C585.5340418 7.15175015 591.85928423 7.94246281 598.18554688 8.73217773 C599.07306641 8.84376221 599.96058594 8.95534668 600.875 9.0703125 C602.03286011 9.21279419 602.03286011 9.21279419 603.21411133 9.3581543 C605.48046875 9.68359375 605.48046875 9.68359375 607.80102539 10.2043457 C611.20376032 10.81296244 614.50098139 10.88548167 617.95703125 10.96484375 C619.0441188 10.99245789 619.0441188 10.99245789 620.15316772 11.02062988 C622.4705229 11.07905607 624.78795652 11.13180306 627.10546875 11.18359375 C630.1185794 11.25316709 633.13158194 11.3261026 636.14453125 11.40234375 C636.91405624 11.4213121 637.68358124 11.44028046 638.47642517 11.45982361 C643.01610126 11.58236763 647.54032054 11.79424154 652.07252502 12.07872009 C667.02448218 13.00374865 681.99122394 12.71957044 696.96411133 12.58764648 C710.64100001 12.47534514 723.96515097 12.42431366 737.48046875 14.68359375 C756.82857246 17.63508767 776.10580687 14.8243942 795.3203125 12.14892578 C842.40482238 5.60563811 842.40482238 5.60563811 855.31640625 14.87890625 C866.86908272 24.51308771 870.12480268 39.1387481 873.79296875 53.05859375 C876.06561369 61.65623363 878.85357134 69.13244298 883.26904297 76.83959961 C887.08204383 83.52677557 889.40941233 90.26955985 891.48046875 97.68359375 C891.84785156 98.89789063 891.84785156 98.89789063 892.22265625 100.13671875 C895.18083397 111.72629174 895.67120468 127.19497281 889.48046875 137.68359375 C888.64515625 139.10671875 888.64515625 139.10671875 887.79296875 140.55859375 C887.35984375 141.25984375 886.92671875 141.96109375 886.48046875 142.68359375 C883.8312289 149.66795335 885.69499712 156.37852246 888.41796875 162.93359375 C892.18483077 172.33763908 894.60533716 182.14262055 891.76171875 192.234375 C890.79302612 194.24597461 889.82522315 195.89957861 888.48046875 197.68359375 C887.77664063 198.63492188 887.0728125 199.58625 886.34765625 200.56640625 C883.22441292 204.26817706 879.40750819 206.52119646 875.29296875 208.99609375 C870.21948312 212.13324907 865.70041463 215.16991786 861.48046875 219.43359375 C857.42933674 223.27803535 853.32984909 225.4391638 848.23046875 227.55859375 C847.575625 227.8328418 846.92078125 228.10708984 846.24609375 228.38964844 C834.75581153 232.83660862 823.08695818 234.10946541 810.85546875 234.24609375 C799.45780129 234.40874545 788.68252622 235.19514463 777.73046875 238.55859375 C770.70516368 240.64302492 763.63667878 242.43182082 756.52148438 244.17480469 C754.47705203 244.68444548 752.439459 245.21581876 750.40234375 245.75390625 C731.05647457 250.83143994 712.64864704 252.48377136 692.9921875 248.1328125 C685.15743132 246.73157306 677.25782656 247.46849261 669.47241211 248.76074219 C642.60277976 253.20862551 612.92588413 251.62508715 586.48046875 244.68359375 C560.23945793 241.21051879 534.92926492 245.18310328 509.28515625 250.5 C508.3098999 250.69770996 507.33464355 250.89541992 506.32983398 251.09912109 C504.50551922 251.47333149 502.68424241 251.86288044 500.86743164 252.27197266 C493.35980801 253.84949372 485.95591459 253.98950015 478.32055664 253.94433594 C476.1815116 253.93366133 474.04331581 253.94426538 471.90429688 253.95703125 C464.1182928 253.9642152 456.74358538 253.38323216 449.0378418 252.15136719 C442.40610565 251.27933325 435.72281139 251.2842521 429.04296875 251.18359375 C415.29400877 250.9758814 401.98540434 250.18193943 388.65234375 246.46484375 C377.99603851 243.84013803 367.71908865 243.28622538 356.79296875 243.30859375 C355.97776764 243.30780823 355.16256653 243.30702271 354.32266235 243.30621338 C341.20627088 243.32130427 328.7619355 244.542971 315.89648438 247.19628906 C296.99154064 251.00937189 277.5390974 250.57959192 258.5078125 247.95703125 C256.56442278 247.69491703 254.61616961 247.46965778 252.66796875 247.24609375 C238.59850422 245.57683525 224.92418799 242.20950081 211.28808594 238.43432617 C209.02577401 237.8177637 206.7584739 237.23935628 204.48046875 236.68359375 C203.69816895 236.4923291 202.91586914 236.30106445 202.10986328 236.10400391 C194.01205717 234.3755022 185.96849666 234.40622685 177.72869873 234.33370972 C166.26682853 234.21847775 155.09648706 234.07833867 143.85546875 231.62109375 C122.08283959 227.03256302 98.76252053 229.15273208 76.82275391 231.60668945 C56.08161368 233.83846735 33.99313143 234.31412992 13.48046875 230.18359375 C12.26387573 229.94225708 12.26387573 229.94225708 11.02270508 229.69604492 C1.63230967 227.69847533 -7.4860617 224.73291159 -16.60742188 221.76953125 C-17.79142578 221.38667969 -18.97542969 221.00382813 -20.1953125 220.609375 C-21.24630127 220.26302002 -22.29729004 219.91666504 -23.38012695 219.55981445 C-29.97308712 217.71969205 -36.30094861 217.56580742 -43.08203125 217.65625 C-44.95051889 217.66890933 -46.81900859 217.6812693 -48.6875 217.69335938 C-51.59202694 217.71799054 -54.49644272 217.74582573 -57.40087891 217.77954102 C-67.81206836 217.89253205 -77.78429844 217.737772 -88.08740234 216.13989258 C-93.8326177 215.37607073 -99.54597575 215.43265748 -105.33203125 215.49609375 C-106.46833984 215.49673828 -107.60464844 215.49738281 -108.77539062 215.49804688 C-114.64636379 215.52850149 -120.39541062 215.79853207 -126.22875977 216.44995117 C-141.70984241 218.02891271 -157.21284004 215.88355271 -172.51953125 213.68359375 C-173.57495117 213.53374023 -174.63037109 213.38388672 -175.71777344 213.22949219 C-212.97003155 207.82246181 -212.97003155 207.82246181 -222.89453125 195.80859375 C-226.43923415 188.99185741 -226.85042522 182.09426316 -227.08203125 174.55859375 C-227.27008864 169.17295007 -227.53448722 163.99495119 -228.51953125 158.68359375 C-229.9352793 144.30830589 -223.93932364 130.78188964 -218.3125 117.92578125 C-215.65957748 111.42761148 -215.01212668 105.35770415 -214.45263672 98.43383789 C-213.95909832 93.4036233 -212.87062884 89.79796695 -210.39453125 85.30859375 C-207.45582588 79.68367322 -207.27630882 75.59335687 -207.58203125 69.43359375 C-208.28276219 54.184565 -203.76024268 32.43306249 -193.45703125 20.49609375 C-181.85265364 8.13278005 -161.59259731 3.94721988 -145.51953125 0.68359375 C-144.33643623 0.42766449 -144.33643623 0.42766449 -143.12944031 0.16656494 C-136.11192261 -1.25479375 -129.45289882 -1.55308155 -122.30859375 -1.44140625 C-120.61360245 -1.43004639 -120.61360245 -1.43004639 -118.8843689 -1.41845703 C-114.10273689 -1.3861094 -109.32146272 -1.32979859 -104.54003906 -1.27539062 C-101.02540719 -1.23890988 -97.51083264 -1.21492228 -93.99609375 -1.19140625 C-92.40953476 -1.16651123 -92.40953476 -1.16651123 -90.79092407 -1.14111328 C-84.14490046 -1.09826142 -77.84883033 -1.72133516 -71.29696655 -2.84286499 C-48.03758965 -6.80849279 -22.97653316 -4.67278282 0 0 Z " fill="#272726" transform="translate(435.51953125,386.31640625)"/>
<path d="M0 0 C12.43111293 -0.4992929 23.64273767 0.60524654 35.80688477 3.19970703 C51.53509022 6.44680551 67.62678157 7.08544185 83.65722656 7.21777344 C102.1009743 7.41559573 119.26395535 9.77218769 137.32519531 13.43652344 C160.46515624 18.1082615 183.6431277 18.29268876 207.16503906 18.69042969 C209.58366424 18.7337498 212.0022841 18.77736769 214.42089844 18.82128906 C220.27305531 18.9269268 226.12526645 19.02892226 231.97753906 19.12792969 C231.97753906 19.45792969 231.97753906 19.78792969 231.97753906 20.12792969 C230.61035156 20.32324219 229.24316406 20.51855469 227.87597656 20.71386719 C227.00078369 20.83914795 226.12559082 20.96442871 225.22387695 21.09350586 C223.29105569 21.36910668 221.35794279 21.6426691 219.42456055 21.91430664 C215.35263246 22.48853985 211.29200223 23.0737119 207.23925781 23.77246094 C196.41753158 25.60911533 183.48485109 26.82992011 172.61743164 24.65576172 C169.39077314 24.01060906 166.21176261 23.76617088 162.93066406 23.51464844 C161.5256683 23.40245301 160.12072219 23.28963455 158.71582031 23.17626953 C157.98314941 23.11767761 157.25047852 23.05908569 156.49560547 22.99871826 C142.9525766 21.90426951 129.61912229 20.34835678 116.22753906 17.99511719 C105.87012116 16.23282983 95.65944481 15.9677957 85.17953491 15.79718018 C61.78598614 15.38549687 61.78598614 15.38549687 50.66503906 13.75292969 C49.49751099 13.58204834 49.49751099 13.58204834 48.30639648 13.40771484 C44.57069464 12.7844738 41.09943058 11.8753761 37.52441406 10.62402344 C32.91630988 9.01843305 28.36250112 8.23400728 23.54003906 7.56542969 C21.95769136 7.33714375 20.37565828 7.10666651 18.79394531 6.87402344 C18.00044678 6.75841064 17.20694824 6.64279785 16.3894043 6.52368164 C13.9589432 6.12487838 11.57667042 5.60809612 9.17285156 5.07324219 C3.23697675 3.85581926 -2.66713834 3.71369763 -8.70996094 3.56542969 C-21.82680135 3.20042584 -21.82680135 3.20042584 -28.02246094 2.12792969 C-28.02246094 1.79792969 -28.02246094 1.46792969 -28.02246094 1.12792969 C-20.83357179 0.78599138 -13.6439819 0.49444349 -6.45117188 0.24804688 C-4.30051162 0.17270332 -2.15005453 0.09100392 0 0 Z " fill="#EAE7E4" transform="translate(707.0224609375,457.8720703125)"/>
<path d="M0 0 C0.99 0.495 0.99 0.495 2 1 C0.71029297 1.72703125 0.71029297 1.72703125 -0.60546875 2.46875 C-7.74133246 6.50857126 -14.79276338 10.65141256 -21.75390625 14.98828125 C-24.00205474 16.38153814 -26.25456427 17.75403575 -28.52734375 19.10546875 C-29.10863037 19.45416016 -29.68991699 19.80285156 -30.28881836 20.16210938 C-31.89836773 21.12659894 -33.51156573 22.08499215 -35.125 23.04296875 C-38.08563468 24.9118167 -38.08563468 24.9118167 -40.4375 27.55078125 C-45.4026593 32.29644418 -51.37462781 33.49565961 -57.99609375 34.5 C-58.74729996 34.62181641 -59.49850616 34.74363281 -60.2724762 34.86914062 C-62.65954365 35.25463227 -65.04831999 35.62784905 -67.4375 36 C-69.78260028 36.37276974 -72.12725465 36.74816217 -74.47161865 37.12553406 C-76.04334812 37.37738063 -77.6156726 37.62553881 -79.1885376 37.87019348 C-82.69769671 38.4237695 -86.1413983 39.03242053 -89.60644531 39.8269043 C-103.43932551 42.97220616 -117.60707696 42.63680932 -131.72015381 42.78613281 C-134.60206521 42.82139654 -137.48352123 42.87495314 -140.36514091 42.92854786 C-143.17225855 42.97865796 -145.97944984 43.01812309 -148.7867775 43.05438805 C-150.74862853 43.0812633 -152.71036613 43.11605398 -154.67208862 43.15107727 C-160.95429083 43.20558293 -166.65748877 42.86621692 -172.77862549 41.45344543 C-176.22732393 40.74946843 -179.44141443 40.79395948 -182.96484375 40.83984375 C-184.03336578 40.84818993 -184.03336578 40.84818993 -185.12347412 40.85670471 C-186.62641392 40.86897708 -188.12932436 40.88554422 -189.63217163 40.90625 C-193.5202679 40.95895529 -197.40848472 40.97814816 -201.296875 40.99609375 C-202.05429489 41.00003143 -202.81171478 41.00396912 -203.59208679 41.00802612 C-212.08308983 41.0350511 -220.53411488 40.63296337 -229 40 C-223.53693096 34.53693096 -210.87738109 34.8293008 -203.42553711 34.74462891 C-197.15843599 34.75815812 -191.21247855 35.08767798 -185 36 C-182.81385555 36.08754878 -180.62539045 36.13026568 -178.4375 36.125 C-177.36371094 36.12757813 -176.28992187 36.13015625 -175.18359375 36.1328125 C-172.06956545 36.07951333 -172.06956545 36.07951333 -169.33084106 35.49681091 C-165.37643035 34.9069916 -161.50891574 34.88347578 -157.52294922 34.91821289 C-156.27770729 34.92281273 -156.27770729 34.92281273 -155.00730896 34.92750549 C-153.21164856 34.93463569 -151.41599596 34.94401256 -149.62035751 34.95540047 C-146.76855703 34.97287767 -143.91681331 34.98311869 -141.06497192 34.99131775 C-132.95862458 35.01568591 -124.85235337 35.05113091 -116.74609375 35.09594727 C-111.77897776 35.12290161 -106.81190609 35.13983346 -101.84473038 35.15081596 C-99.96227511 35.15697982 -98.07982793 35.16692641 -96.1974144 35.18089485 C-83.32620778 35.27551238 -70.80953178 35.3471787 -58.875 29.875 C-58.19614746 29.57368164 -57.51729492 29.27236328 -56.81787109 28.96191406 C-51.64875609 26.55876138 -47.58425919 23.4484593 -43.27734375 19.71484375 C-40.22579565 17.41702279 -37.33474328 16.60064482 -33.66796875 15.6796875 C-23.59815455 13.11431756 -14.80813515 8.44786922 -5.91601562 3.21459961 C-5.17673828 2.78542236 -4.43746094 2.35624512 -3.67578125 1.9140625 C-3.01489502 1.5217041 -2.35400879 1.1293457 -1.6730957 0.72509766 C-1.12097412 0.48581543 -0.56885254 0.2465332 0 0 Z " fill="#EAE8E5" transform="translate(1245,431)"/>
<path d="M0 0 C5.17373297 -0.05003238 10.34732019 -0.08601374 15.52124023 -0.10986328 C17.27549701 -0.11982244 19.02973763 -0.13339466 20.78393555 -0.15087891 C31.0676523 -0.25069231 40.86532924 0.00781537 51 2 C52.49591627 2.26143425 53.99199032 2.52196866 55.48828125 2.78125 C57.38126953 3.13703125 57.38126953 3.13703125 59.3125 3.5 C60.58738281 3.7371875 61.86226563 3.974375 63.17578125 4.21875 C65.71006262 4.73647857 68.23277929 5.31473503 70.73901367 5.95458984 C74.80046835 6.97806554 78.87741362 7.77530548 83 8.5078125 C83.7211499 8.63815887 84.4422998 8.76850525 85.18530273 8.90280151 C87.45642441 9.31271444 89.72818969 9.71892296 92 10.125 C93.55342978 10.40470163 95.10681563 10.68464739 96.66015625 10.96484375 C100.43960289 11.64604823 104.21963084 12.32393465 108 13 C108 13.33 108 13.66 108 14 C90.63830412 14.30638287 70.61575051 14.5385835 54 9 C46.73276935 7.74972376 39.53366616 6.96910042 32.16723633 6.75756836 C20.96101483 6.42411211 10.75561771 4.07141454 0 1 C0 0.67 0 0.34 0 0 Z " fill="#E6E3E0" transform="translate(450,450)"/>
<path d="M0 0 C7.08799889 0.61095144 14.05891544 1.56796058 21.0625 2.8125 C22.4556543 3.04163086 22.4556543 3.04163086 23.87695312 3.27539062 C29.37310037 4.25119782 33.98034694 5.75279393 39.01000977 8.1550293 C41.67799057 9.2878819 44.05462264 9.46765355 46.9375 9.5 C52.07651821 9.76637136 55.78937609 10.96552726 60.4609375 13.01953125 C66.18485397 15.22984361 72.38029706 15.70561794 78.44140625 16.38671875 C91.11474281 17.82717098 103.52090192 20.38774861 116 23 C116 23.33 116 23.66 116 24 C87.13861944 24.80627044 87.13861944 24.80627044 76 20 C71.15626146 17.97204923 66.67457856 17.68948389 61.49633789 17.41796875 C44.80428968 16.53735153 44.80428968 16.53735153 37.171875 11.38671875 C34.24494654 9.51790652 31.47444137 9.01706714 28.09375 8.421875 C25.38696248 7.87647751 22.93505369 6.81152148 20.37890625 5.7890625 C16.0778269 4.36243191 11.61519466 3.60468281 7.171875 2.74609375 C4.42452595 2.09985771 2.46162264 1.30252526 0 0 Z " fill="#EFEDEA" transform="translate(264,417)"/>
<path d="M0 0 C0.99 0.495 0.99 0.495 2 1 C0.71029297 1.72703125 0.71029297 1.72703125 -0.60546875 2.46875 C-7.74133246 6.50857126 -14.79276338 10.65141256 -21.75390625 14.98828125 C-24.00205474 16.38153814 -26.25456427 17.75403575 -28.52734375 19.10546875 C-29.39927368 19.62850586 -29.39927368 19.62850586 -30.28881836 20.16210938 C-31.89836773 21.12659894 -33.51156573 22.08499215 -35.125 23.04296875 C-38.08563468 24.9118167 -38.08563468 24.9118167 -40.4375 27.55078125 C-46.62718421 33.46683613 -54.53169 33.97661429 -62.6875 35.1875 C-63.81478516 35.36474609 -64.94207031 35.54199219 -66.10351562 35.72460938 C-70.46763245 36.39701048 -74.57622879 37 -79 37 C-79 36.34 -79 35.68 -79 35 C-78.319375 34.93683594 -77.63875 34.87367188 -76.9375 34.80859375 C-64.00534623 33.17487752 -53.08557542 28.21748717 -43.27734375 19.71484375 C-40.22579565 17.41702279 -37.33474328 16.60064482 -33.66796875 15.6796875 C-23.59815455 13.11431756 -14.80813515 8.44786922 -5.91601562 3.21459961 C-5.17673828 2.78542236 -4.43746094 2.35624512 -3.67578125 1.9140625 C-3.01489502 1.5217041 -2.35400879 1.1293457 -1.6730957 0.72509766 C-1.12097412 0.48581543 -0.56885254 0.2465332 0 0 Z " fill="#EBE9E6" transform="translate(1245,431)"/>
<path d="M0 0 C0 0.33 0 0.66 0 1 C-0.73468506 1.03738281 -1.46937012 1.07476562 -2.22631836 1.11328125 C-11.82162489 1.71515458 -21.11688636 3.27284841 -30.5625 5 C-32.10732247 5.2765974 -33.65224401 5.55264211 -35.19726562 5.828125 C-43.13793798 7.22582313 -43.13793798 7.22582313 -51 9 C-58.0835167 9.57253988 -64.96909121 9.02060586 -71 5 C-69.84628906 4.90203125 -68.69257812 4.8040625 -67.50390625 4.703125 C-57.72383297 3.82097278 -48.1127815 2.5585957 -38.4375 0.875 C-25.5397919 -1.32289997 -12.96759583 -2.0931946 0 0 Z " fill="#E0DFDD" transform="translate(638,459)"/>
<path d="M0 0 C5.2469855 -0.02488901 10.49393592 -0.04294884 15.7409668 -0.05493164 C17.52254842 -0.05993201 19.30412599 -0.06673446 21.08569336 -0.07543945 C23.6600037 -0.08769464 26.23425936 -0.09327142 28.80859375 -0.09765625 C29.59334579 -0.10281754 30.37809784 -0.10797882 31.18663025 -0.11329651 C36.52956863 -0.11382743 41.69793151 0.33291345 47 1 C47.12375 1.639375 47.2475 2.27875 47.375 2.9375 C47.58125 3.618125 47.7875 4.29875 48 5 C48.66 5.33 49.32 5.66 50 6 C50 6.66 50 7.32 50 8 C46.10333732 8.07493582 42.7580521 7.94591672 39 7 C36.96888087 6.92569076 34.93751266 6.85460591 32.90551758 6.81030273 C21.43741371 6.52281449 10.99613988 4.14009896 0 1 C0 0.67 0 0.34 0 0 Z " fill="#E7E4E1" transform="translate(450,450)"/>
<path d="M0 0 C-4.10699859 3.369378 -7.74263299 4.14872325 -13 4 C-15.17569578 3.58664573 -17.34197667 3.12244267 -19.5 2.625 C-27.73147887 0.78462871 -35.84059758 0.50731221 -44.25585938 0.29150391 C-49.59092458 0.15370088 -54.73827856 -0.08816759 -60 -1 C-60 -1.33 -60 -1.66 -60 -2 C-11.87190594 -4.28920473 -11.87190594 -4.28920473 0 0 Z " fill="#CECDCB" transform="translate(739,461)"/>
<path d="M0 0 C1.3907373 0.1393396 1.3907373 0.1393396 2.80957031 0.28149414 C8.56918052 0.90234179 14.0459976 1.86375804 19.625 3.453125 C26.2101818 5.16661618 32.98021482 6.12947013 39.6875 7.25 C39.6875 7.58 39.6875 7.91 39.6875 8.25 C10.82611944 9.05627044 10.82611944 9.05627044 -0.3125 4.25 C-4.67265348 2.60243863 -8.53728923 1.90970678 -13.1875 1.625 C-14.33992188 1.55023438 -15.49234375 1.47546875 -16.6796875 1.3984375 C-17.98292969 1.32496094 -17.98292969 1.32496094 -19.3125 1.25 C-19.3125 0.92 -19.3125 0.59 -19.3125 0.25 C-12.67669321 -0.69124919 -6.65543885 -0.69810164 0 0 Z " fill="#D3D2D1" transform="translate(340.3125,432.75)"/>
<path d="M0 0 C-12.81810048 8.54540032 -30.54630966 6.71484462 -45 5 C-45 4.67 -45 4.34 -45 4 C-44.16976318 3.92483154 -44.16976318 3.92483154 -43.32275391 3.84814453 C-31.42116568 2.9237287 -31.42116568 2.9237287 -19.6875 0.875 C-13.25299526 -0.60899389 -6.56006195 -0.15744149 0 0 Z " fill="#DADAD7" transform="translate(1003,472)"/>
<path d="M0 0 C6.71584117 0.76683283 13.34521142 1.8839611 20 3.0625 C21.06089844 3.24876953 22.12179687 3.43503906 23.21484375 3.62695312 C25.81020738 4.08289538 28.40524335 4.54061826 31 5 C31 5.33 31 5.66 31 6 C23.85861502 6.12602444 16.75479692 5.94692838 9.625 5.5625 C8.86461426 5.52326416 8.10422852 5.48402832 7.32080078 5.44360352 C3.15080902 5.20459739 -0.88733813 4.77683613 -5 4 C-4.0409375 3.8453125 -4.0409375 3.8453125 -3.0625 3.6875 C-2.381875 3.460625 -1.70125 3.23375 -1 3 C-0.67 2.01 -0.34 1.02 0 0 Z " fill="#E1DFDD" transform="translate(527,458)"/>
<path d="M0 0 C0.66 0.33 1.32 0.66 2 1 C1.14019531 1.4846875 0.28039063 1.969375 -0.60546875 2.46875 C-7.98290612 6.64614509 -15.25774167 10.94964146 -22.453125 15.43359375 C-25 17 -25 17 -27 18 C-27 17.01 -27 16.02 -27 15 C-27.66 14.67 -28.32 14.34 -29 14 C-28.41476562 13.82726562 -27.82953125 13.65453125 -27.2265625 13.4765625 C-19.6010646 10.98052865 -12.90809413 7.31603959 -6.02001953 3.26611328 C-5.26962402 2.83153809 -4.51922852 2.39696289 -3.74609375 1.94921875 C-3.07247803 1.55049561 -2.3988623 1.15177246 -1.70483398 0.7409668 C-1.14223877 0.49644775 -0.57964355 0.25192871 0 0 Z " fill="#C7C7C5" transform="translate(1245,431)"/>
<path d="M0 0 C3.02089478 -0.02716089 6.04154129 -0.04691657 9.0625 -0.0625 C9.91005859 -0.07087891 10.75761719 -0.07925781 11.63085938 -0.08789062 C16.5361722 -0.10683006 21.16444755 0.16673655 26 1 C26 1.33 26 1.66 26 2 C22.6046836 2.19777236 19.20874308 2.38139685 15.8125 2.5625 C14.85279297 2.61857422 13.89308594 2.67464844 12.90429688 2.73242188 C11.50727539 2.80493164 11.50727539 2.80493164 10.08203125 2.87890625 C9.22843018 2.9260376 8.3748291 2.97316895 7.49536133 3.02172852 C4.87646242 2.99892429 2.54596848 2.59213206 0 2 C0 1.34 0 0.68 0 0 Z " fill="#D1D1CF" transform="translate(612,458)"/>
<path d="M0 0 C7.30191376 0.60030831 14.42867584 1.70298082 21.625 3.0625 C22.62917969 3.24876953 23.63335937 3.43503906 24.66796875 3.62695312 C27.11268755 4.08097233 29.55664548 4.53870544 32 5 C30.13037109 6.51611328 30.13037109 6.51611328 28 8 C25.9140625 7.7421875 25.9140625 7.7421875 23.625 6.875 C18.19275084 4.99149694 12.73846884 3.85222726 7.1015625 2.74609375 C4.39730273 2.09557282 2.43054457 1.28295168 0 0 Z " fill="#C0C0BF" transform="translate(264,417)"/>
<path d="M0 0 C0.33 0.99 0.66 1.98 1 3 C1.99 3.33 2.98 3.66 4 4 C0.75073335 4.50484474 -2.49952099 5.00302594 -5.75 5.5 C-6.67039062 5.64308594 -7.59078125 5.78617187 -8.5390625 5.93359375 C-9.87324219 6.13662109 -9.87324219 6.13662109 -11.234375 6.34375 C-12.05131836 6.46943359 -12.86826172 6.59511719 -13.70996094 6.72460938 C-16 7 -16 7 -20 7 C-20 6.34 -20 5.68 -20 5 C-19.2265625 4.89042969 -18.453125 4.78085937 -17.65625 4.66796875 C-11.39348771 3.71460271 -5.83578557 2.4689862 0 0 Z " fill="#CBCACA" transform="translate(1186,461)"/>
<path d="M0 0 C5.28 0 10.56 0 16 0 C16.33 0.66 16.66 1.32 17 2 C17.99 2.33 18.98 2.66 20 3 C20 3.66 20 4.32 20 5 C13.21338787 4.21085905 6.63850633 2.58725189 0 1 C0 0.67 0 0.34 0 0 Z " fill="#BDBCBA" transform="translate(450,450)"/>
<path d="M0 0 C4.79679729 0.04996664 9.40087253 1.1369924 14.0625 2.1875 C14.0625 2.5175 14.0625 2.8475 14.0625 3.1875 C5.1525 3.1875 -3.7575 3.1875 -12.9375 3.1875 C-12.9375 2.8575 -12.9375 2.5275 -12.9375 2.1875 C-11.98037109 2.09662109 -11.98037109 2.09662109 -11.00390625 2.00390625 C-9.76447266 1.87822266 -9.76447266 1.87822266 -8.5 1.75 C-7.67628906 1.66878906 -6.85257812 1.58757812 -6.00390625 1.50390625 C-3.18587493 1.07241185 -3.13043111 0.19981475 0 0 Z " fill="#D1D0CE" transform="translate(365.9375,437.8125)"/>
<path d="M0 0 C4.455 0.99 4.455 0.99 9 2 C8.34 3.32 7.68 4.64 7 6 C5.35 6 3.7 6 2 6 C2 5.34 2 4.68 2 4 C1.01 3.67 0.02 3.34 -1 3 C-0.67 2.01 -0.34 1.02 0 0 Z " fill="#F4F1EE" transform="translate(498,452)"/>
<path d="M0 0 C5.65394631 -0.34615998 9.03006806 0.56574762 14 3 C13.01 4.485 13.01 4.485 12 6 C11.484375 5.71125 10.96875 5.4225 10.4375 5.125 C7.853663 3.85025926 7.853663 3.85025926 4.3125 3 C3.219375 2.67 2.12625 2.34 1 2 C0.67 1.34 0.34 0.68 0 0 Z " fill="#E6E5E3" transform="translate(291,423)"/>
<path d="M0 0 C5.63281599 -0.2396943 10.54538831 0.61470179 16 2 C16 2.33 16 2.66 16 3 C11.38 3.33 6.76 3.66 2 4 C2.33 3.34 2.66 2.68 3 2 C2.01 1.34 1.02 0.68 0 0 Z " fill="#DCDBD9" transform="translate(605,459)"/>
<path d="M0 0 C0.33 0.99 0.66 1.98 1 3 C-3.95 3 -8.9 3 -14 3 C-10.38893446 -0.61106554 -4.90054735 -0.14850143 0 0 Z " fill="#F3F2F0" transform="translate(1030,468)"/>
<path d="M0 0 C3.3 0.33 6.6 0.66 10 1 C9.67 1.99 9.34 2.98 9 4 C6.69 4 4.38 4 2 4 C2.33 3.34 2.66 2.68 3 2 C2.01 1.34 1.02 0.68 0 0 Z " fill="#F5F3F0" transform="translate(353,436)"/>
<path d="M0 0 C2.64 0 5.28 0 8 0 C7.67 0.99 7.34 1.98 7 3 C4.36 3 1.72 3 -1 3 C-0.67 2.01 -0.34 1.02 0 0 Z " fill="#F6F3F0" transform="translate(519,458)"/>
<path d="M0 0 C2.97 0 5.94 0 9 0 C8.01 1.485 8.01 1.485 7 3 C4.69 2.67 2.38 2.34 0 2 C0 1.34 0 0.68 0 0 Z " fill="#ECEBE9" transform="translate(600,460)"/>
<path d="M0 0 C2.97 0 5.94 0 9 0 C9 0.66 9 1.32 9 2 C9.66 2.33 10.32 2.66 11 3 C6.78121808 3.19622241 3.82989106 2.80230168 0 1 C0 0.67 0 0.34 0 0 Z " fill="#D2D2D1" transform="translate(567,464)"/>
<path d="M0 0 C2.31 0 4.62 0 7 0 C6.67 0.66 6.34 1.32 6 2 C8.97 2.495 8.97 2.495 12 3 C12 3.33 12 3.66 12 4 C9.36 4 6.72 4 4 4 C4 3.34 4 2.68 4 2 C2.68 1.67 1.36 1.34 0 1 C0 0.67 0 0.34 0 0 Z " fill="#F9F7F5" transform="translate(466,451)"/>
<path d="M0 0 C3 1 3 1 5 4 C2.69 4.33 0.38 4.66 -2 5 C-1.34 3.35 -0.68 1.7 0 0 Z " fill="#E7E5E3" transform="translate(352,435)"/>
<path d="M0 0 C-1.65 1.65 -3.3 3.3 -5 5 C-5.33 4.01 -5.66 3.02 -6 2 C-6.66 1.67 -7.32 1.34 -8 1 C-5.07175348 0.02391783 -3.04386724 -0.08226668 0 0 Z " fill="#D7D7D5" transform="translate(1224,444)"/>
</svg>
