<?xml version="1.0" encoding="UTF-8"?>
<svg version="1.1" xmlns="http://www.w3.org/2000/svg" viewBox="280 270 970 485">
<path d="M0 0 C5.08476553 1.44025338 10.22211775 2.40976597 15.41015625 3.40234375 C42.7705712 8.69896835 69.81558536 16.07345732 96.12890625 25.26879883 C101.3540033 26.84674435 106.38294998 27.2205609 111.82299805 27.26342773 C112.8338328 27.27353473 112.8338328 27.27353473 113.86508846 27.2838459 C115.32588973 27.29792629 116.78671267 27.30988699 118.24754715 27.3199482 C120.5932635 27.33626008 122.93886247 27.35838296 125.28451538 27.38206482 C128.63303312 27.41564059 131.98156029 27.44735608 135.33010864 27.47772217 C182.88134727 27.91977845 182.88134727 27.91977845 205.91015625 28.96484375 C206.7233432 28.99818817 207.53653015 29.03153259 208.37435913 29.06588745 C223.41420454 29.70012932 238.38376973 31.60223007 252.97265625 35.40234375 C253.79193604 35.60819092 254.61121582 35.81403809 255.45532227 36.02612305 C261.0474774 37.47989984 266.39054331 39.34629066 271.78515625 41.40234375 C279.69744518 44.3804925 287.59638527 45.90679727 295.828125 43.05859375 C301.69259497 41.28710173 307.981911 41.97670594 314.03515625 42.08984375 C324.6731427 42.21903276 335.17157467 41.94598857 345.78515625 41.08984375 C382.14607817 38.22493713 382.14607817 38.22493713 397.61523438 45.75463867 C408.48872688 51.02131922 418.94452751 50.78638532 430.8671875 50.94140625 C443.22965299 51.11723093 454.33651395 53.27542805 465.97265625 57.40234375 C467.12822021 57.80960693 467.12822021 57.80960693 468.30712891 58.22509766 C476.79931869 61.46507484 483.07775873 67.14589851 489.671875 73.2578125 C491.93972574 75.16736725 494.2992545 76.58531469 496.84765625 78.08984375 C504.56633448 86.04973067 506.99626917 96.66143992 509.28515625 107.15234375 C512.99118421 123.32909102 517.93700851 137.40670306 525.2277832 152.27734375 C534.83464512 172.21300227 540.09534448 197.33863287 533.84765625 219.08984375 C533.61820313 219.96125 533.38875 220.83265625 533.15234375 221.73046875 C531.29467924 228.418061 531.29467924 228.418061 529.31762695 231.38916016 C527.66826566 234.41942667 527.46147477 236.20294307 527.44921875 239.625 C527.44535156 240.68267578 527.44148438 241.74035156 527.4375 242.83007812 C527.44910156 243.92642578 527.46070313 245.02277344 527.47265625 246.15234375 C527.45525391 247.75625977 527.45525391 247.75625977 527.4375 249.39257812 C527.48683961 263.0020876 531.58222531 274.89673058 537.83325195 286.82788086 C545.46125787 301.52186551 549.12561241 318.58151758 545.00390625 335.046875 C542.78277559 341.49265621 539.83070194 345.69692102 534.7578125 350.19140625 C532.70007182 352.23652276 531.58484344 354.13262695 530.28515625 356.71484375 C522.38560696 371.76529223 500.7341736 375.41314923 485.75097656 380.19091797 C480.96080835 381.67404943 476.13225547 382.99672516 471.29174805 384.30371094 C459.63194771 387.47346781 448.40393167 391.34142071 437.34765625 396.21484375 C426.51040477 400.92827193 415.66611658 403.19664339 404.02734375 405.00390625 C391.28528191 407.00568653 381.20713832 409.01125582 370.84765625 417.15234375 C362.9459414 423.3285821 353.64923893 425.49776014 344.03662109 427.51147461 C329.87410309 430.51240526 316.60536311 435.07179529 303.31005859 440.75463867 C293.12222492 444.99821533 282.56658415 447.56774307 271.84765625 450.08984375 C271.23510986 450.2717627 270.62256348 450.45368164 269.99145508 450.64111328 C264.22852784 451.84738367 258.03987251 451.43037615 252.16015625 451.46484375 C251.40310394 451.46973816 250.64605164 451.47463257 249.86605835 451.47967529 C234.81400978 451.51983264 220.06010713 449.88951658 205.72241211 445.03076172 C200.72717574 443.81775429 196.01627279 443.77317705 190.89453125 443.74609375 C189.31227753 443.72415955 189.31227753 443.72415955 187.69805908 443.70178223 C184.33129685 443.65548793 180.9645882 443.62124269 177.59765625 443.58984375 C155.54269888 443.38019587 135.12840862 442.08140229 113.72265625 436.65234375 C104.41609179 434.32333672 95.12997091 432.02751302 85.68359375 430.33203125 C85.01472137 430.21013931 84.345849 430.08824738 83.65670776 429.96266174 C78.95077921 429.15529191 74.35906106 428.84014097 69.59765625 428.65234375 C48.87940991 427.71324869 30.7395798 421.50472819 12.13598633 412.80566406 C4.03721226 409.07761279 -3.05633834 407.74647368 -11.96484375 407.83984375 C-12.87991699 407.84371094 -13.79499023 407.84757812 -14.73779297 407.8515625 C-20.8056121 407.92687417 -26.75473448 408.37238737 -32.77734375 409.08984375 C-66.76878143 412.98884107 -114.03705114 407.37140769 -143.58984375 389.421875 C-149.30792482 386.44951883 -154.80851601 385.82083155 -161.15625 386 C-162.70710385 386.02274256 -164.25796704 386.04485419 -165.80883789 386.06640625 C-166.61064484 386.0809082 -167.41245178 386.09541016 -168.23855591 386.11035156 C-182.48462569 386.35193238 -196.03577788 385.70023585 -210.11767578 383.39306641 C-218.33542285 382.16839136 -226.50956243 383.29562626 -234.71484375 384.08984375 C-244.90246154 385.0748249 -254.92315772 385.51212993 -265.15234375 385.08984375 C-265.91095703 385.05938965 -266.66957031 385.02893555 -267.45117188 384.99755859 C-282.35357225 384.25747743 -296.51803671 380.59561195 -310.92431641 376.90771484 C-314.94605278 375.88874518 -318.98301849 374.95130184 -323.02734375 374.02734375 C-325.73688611 373.38611268 -328.44501477 372.7402407 -331.15234375 372.08984375 C-332.50948486 371.76765869 -332.50948486 371.76765869 -333.89404297 371.43896484 C-365.87581246 363.77573579 -365.87581246 363.77573579 -374.4609375 349.98828125 C-378.8579443 341.13340942 -378.50382343 329.89435555 -376.3046875 320.44921875 C-374.56015087 315.36345094 -372.36866327 310.53500794 -370.07421875 305.6796875 C-365.10101416 295.08814814 -362.87038447 287.00036802 -363.29296875 275.14453125 C-363.80022331 258.13763313 -358.73168947 244.19934518 -351.17529297 229.14355469 C-348.374258 223.5200926 -345.75965586 217.8050719 -343.15234375 212.08984375 C-342.82363281 211.38085938 -342.49492187 210.671875 -342.15625 209.94140625 C-339.99824762 204.8203436 -339.23751208 199.39534595 -338.27416992 193.95361328 C-337.10799567 187.50214638 -335.46596418 182.34762887 -332.15234375 176.65234375 C-328.24194843 169.91443181 -326.96995498 164.21728612 -327.15234375 156.40234375 C-327.30812772 148.59243425 -326.14521325 141.65027244 -324.15234375 134.08984375 C-323.90000977 133.10000488 -323.64767578 132.11016602 -323.38769531 131.09033203 C-322.50944083 127.64924446 -321.61522007 124.21270673 -320.71484375 120.77734375 C-320.42665771 119.66762207 -320.13847168 118.55790039 -319.84155273 117.41455078 C-314.1355817 96.1643974 -314.1355817 96.1643974 -305.44433594 91.09326172 C-301.35318092 88.92104836 -297.16586779 86.95508193 -292.97851562 84.97705078 C-288.35660258 82.73159196 -284.28875921 80.14508668 -280.52734375 76.65234375 C-270.48603281 68.04164969 -253.20082014 64.20178263 -240.46484375 61.77734375 C-235.46084754 60.7112214 -231.97392317 58.91379858 -227.71484375 56.08984375 C-219.91836067 50.98855638 -212.11733664 49.82538932 -203.10058594 48.48681641 C-192.47497812 46.87185724 -182.35695662 44.42677347 -172.08984375 41.27734375 C-171.3165271 41.04396301 -170.54321045 40.81058228 -169.74645996 40.57012939 C-144.25411153 32.87596956 -119.10584844 24.06809488 -94.12084961 14.87207031 C-87.28647293 12.39463108 -80.46529665 10.46575347 -73.359375 8.94140625 C-67.20593216 7.30748355 -63.49119337 4.65705388 -59.15234375 0.08984375 C-43.8366334 -12.44693359 -16.90739493 -5.55199462 0 0 Z " fill="#242423" transform="translate(679.15234375,288.91015625)"/>
<path d="M0 0 C0.80179687 0.144375 1.60359375 0.28875 2.4296875 0.4375 C7.44868133 1.22823863 12.49008686 1.72756956 17.54296875 2.25 C18.31511719 2.3325 19.08726562 2.415 19.8828125 2.5 C20.92526123 2.60828125 20.92526123 2.60828125 21.98876953 2.71875 C24 3 24 3 25.88227844 3.5 C29.39982245 4.33050201 32.9988159 4.34075828 36.59765625 4.5 C37.42833115 4.54060547 38.25900604 4.58121094 39.11485291 4.62304688 C42.66231044 4.7963934 46.21018063 4.96047573 49.75805664 5.125 C52.35060068 5.24656631 54.94286691 5.37313629 57.53515625 5.5 C58.73991356 5.55317383 58.73991356 5.55317383 59.9690094 5.60742188 C63.18848258 5.76562119 65.92568455 5.97522818 69 7 C70.520582 7.12418261 72.04533862 7.20086535 73.5703125 7.24609375 C74.4675 7.27896484 75.3646875 7.31183594 76.2890625 7.34570312 C78.15615087 7.40613918 80.02334134 7.4635113 81.890625 7.51757812 C88.63722133 7.77225733 95.27908314 8.32558741 101.5 11.125 C105.26297379 12.44204083 109.04813478 12.33385109 113 12 C113.66 11.67 114.32 11.34 115 11 C119.08937255 10.6067911 121.2220303 10.41177901 124.5625 12.9375 C127.59518457 15.18277804 130.01362332 15.29043474 133.75 15.4375 C139.61051751 15.67657969 145.0190832 16.56364916 150.75097656 17.79956055 C163.18304557 20.4797233 175.08909033 21.60193864 187.7734375 21.63476562 C194.11391384 21.68634217 199.55032346 22.03972247 205.5234375 24.25927734 C211.52217573 26.05345832 217.87434141 26.1618479 224.09375 26.39453125 C225.63545257 26.4633935 227.1771184 26.53308246 228.71875 26.60351562 C231.0961783 26.70978978 233.47335202 26.81152339 235.8515625 26.89868164 C245.10995558 27.24606491 253.65373174 28.14872418 262.60192871 30.60620117 C267.51592915 31.94493427 271.929336 32.54205722 277 32.3125 C278.00740234 32.29799805 278.00740234 32.29799805 279.03515625 32.28320312 C282.34214976 32.20992678 285.5269494 31.9230968 288.80078125 31.4453125 C293.96439678 30.76364501 299.01173533 31.15054802 304.1875 31.5625 C305.26032227 31.64693359 306.33314453 31.73136719 307.43847656 31.81835938 C318.57044509 32.83471481 329.37062671 35.12863396 340.265625 37.5625 C346.80338709 39.01279165 353.37045236 40.06741986 360 41 C360 41.66 360 42.32 360 43 C356.60387586 42.8604947 353.20818542 42.71227678 349.8125 42.5625 C348.85279297 42.52318359 347.89308594 42.48386719 346.90429688 42.44335938 C345.97294922 42.40146484 345.04160156 42.35957031 344.08203125 42.31640625 C343.22843018 42.27974854 342.3748291 42.24309082 341.49536133 42.20532227 C339 42 339 42 336.72583008 41.48852539 C332.91059423 40.80475585 329.17298857 40.85735022 325.3046875 40.8671875 C324.47542755 40.86623077 323.6461676 40.86527405 322.79177856 40.86428833 C321.04526697 40.8636099 319.2987528 40.86544064 317.55224609 40.86962891 C314.87722133 40.87499554 312.20236342 40.86966555 309.52734375 40.86328125 C307.82812463 40.86394183 306.12890561 40.86522256 304.4296875 40.8671875 C303.62965302 40.86516327 302.82961853 40.86313904 302.00534058 40.86105347 C298.7451805 40.87485817 296.11487158 40.96170947 293 42 C285.73910383 42.47612434 282.00258524 40.91016905 275.82666016 36.98120117 C271.98834089 34.80409907 268.18317975 34.05848641 263.8359375 33.55078125 C263.03527863 33.4481044 262.23461975 33.34542755 261.40969849 33.23963928 C258.73358131 32.90847879 256.05530351 32.60776672 253.375 32.3125 C252.43970459 32.20472229 251.50440918 32.09694458 250.54077148 31.98590088 C230.04633513 29.67382458 209.52531611 29.37874488 188.92333984 29.36450195 C151.85327461 29.26485042 151.85327461 29.26485042 135 25 C133.34796483 24.96500287 131.69431362 24.98376461 130.04296875 25.04296875 C129.09486328 25.06423828 128.14675781 25.08550781 127.16992188 25.10742188 C125.19299994 25.16050229 123.2163589 25.22547039 121.24023438 25.30273438 C114.79941595 25.42047445 111.29137155 24.69798489 106 21 C101.90731328 18.20375441 99.21184641 17.6323159 94.25 17.5 C89.21157352 17.23921188 85.2128992 16.61178773 80.53515625 14.828125 C68.07835683 10.75903181 54.45344102 9.81761892 41.4375 9.875 C40.55642578 9.87113281 39.67535156 9.86726563 38.76757812 9.86328125 C33.74911241 9.87068858 28.94751243 10.16152699 23.99243164 10.98095703 C21.51980388 11.00458955 20.14844633 10.16621196 18 9 C12.69205644 9 8.86420072 12.73392404 5 16 C4.113125 16.886875 3.22625 17.77375 2.3125 18.6875 C0.02659483 20.97340517 -2.1703762 22.46391851 -5 24 C-3.66198588 20.9350908 -2.29092019 19.14639067 0.3125 17.0625 C6.30139308 12.38867814 6.30139308 12.38867814 10 6 C6.7 4.35 3.4 2.7 0 1 C0 0.67 0 0.34 0 0 Z " fill="#ECE8E5" transform="translate(467,408)"/>
<path d="M0 0 C-1.10408203 0.79664063 -1.10408203 0.79664063 -2.23046875 1.609375 C-3.20628906 2.31578125 -4.18210937 3.0221875 -5.1875 3.75 C-6.15042969 4.44609375 -7.11335938 5.1421875 -8.10546875 5.859375 C-9.98694276 7.25080248 -11.84096115 8.68042525 -13.66015625 10.15234375 C-16.00229796 12.00181459 -18.44070291 13.36835214 -21.05078125 14.80078125 C-24.08252441 16.66600199 -26.76718126 18.94034109 -29.49609375 21.21875 C-34.79440606 24.98790821 -40.12258855 27.20668038 -46.44506836 28.62133789 C-57.33364396 31.06697006 -65.32616426 35.59562747 -72.8203125 44.0546875 C-74.14684863 46.24215437 -74.3569389 47.52719489 -74.4375 50.0625 C-74.80987052 54.87954838 -76.33768494 58.8587185 -78.078125 63.3359375 C-79.31771037 66.91812912 -79.7155143 70.23056446 -80 74 C-80.66 74 -81.32 74 -82 74 C-82.09796875 73.21496094 -82.1959375 72.42992187 -82.296875 71.62109375 C-83.18140845 64.64713082 -83.18140845 64.64713082 -86 58.3125 C-87.85165145 55.24570229 -88.32874517 53.76958358 -88.875 50.375 C-89.51509489 47.04424075 -90.20479049 45.32795053 -92.8125 43.125 C-93.864375 42.42375 -94.91625 41.7225 -96 41 C-96.763125 40.4225 -97.52625 39.845 -98.3125 39.25 C-101.55602175 37.74138523 -104.3692163 37.50821819 -107.9140625 37.30859375 C-110 37 -110 37 -113 35 C-115.34152003 34.61650287 -115.34152003 34.61650287 -117.875 34.5 C-121.68666387 34.26687071 -124.47936482 33.44904192 -128 32 C-130.0316127 31.49897898 -132.07507645 31.04486386 -134.125 30.625 C-135.36378906 30.3671875 -136.60257813 30.109375 -137.87890625 29.84375 C-139.25253932 29.56218344 -140.6262398 29.28094561 -142 29 C-145.02171233 28.37918413 -148.04243171 27.75376422 -151.0625 27.125 C-151.85785156 26.96032227 -152.65320313 26.79564453 -153.47265625 26.62597656 C-158.66381464 25.5362453 -163.81123606 24.31934535 -168.95800781 23.03735352 C-178.94401167 20.55730697 -188.75144799 18.89993838 -199 18 C-199 17.34 -199 16.68 -199 16 C-177.17695312 15.29294285 -156.8690275 16.18191643 -135.98193359 23.36083984 C-125.08931125 26.87363675 -112.25615569 25.35160435 -101.18359375 23.4375 C-96.2380694 22.75786966 -92.02506331 22.73113094 -87.1875 24 C-76.06166589 26.65264312 -63.67886161 25.87788097 -53 22 C-51.7102671 21.59174902 -50.4198475 21.18566379 -49.12890625 20.78125 C-42.44425848 18.58943342 -37.09878169 16.60503639 -32.0625 11.5 C-25.92736559 5.31269608 -18.15923618 3.39414675 -10 1 C-9.34950684 0.78972168 -8.69901367 0.57944336 -8.02880859 0.36279297 C-4.76062893 -0.66542729 -3.33716956 -1.11238985 0 0 Z " fill="#EFEBE8" transform="translate(1041,434)"/>
<path d="M0 0 C0.80179687 0.144375 1.60359375 0.28875 2.4296875 0.4375 C7.44868133 1.22823863 12.49008686 1.72756956 17.54296875 2.25 C18.31511719 2.3325 19.08726562 2.415 19.8828125 2.5 C20.92526123 2.60828125 20.92526123 2.60828125 21.98876953 2.71875 C24 3 24 3 25.88227844 3.5 C29.39982245 4.33050201 32.9988159 4.34075828 36.59765625 4.5 C37.42833115 4.54060547 38.25900604 4.58121094 39.11485291 4.62304688 C42.66231044 4.7963934 46.21018063 4.96047573 49.75805664 5.125 C52.35060068 5.24656631 54.94286691 5.37313629 57.53515625 5.5 C58.73991356 5.55317383 58.73991356 5.55317383 59.9690094 5.60742188 C63.18848258 5.76562119 65.92568455 5.97522818 69 7 C70.62567079 7.14715199 72.25586857 7.24721867 73.88671875 7.31640625 C74.82451172 7.35830078 75.76230469 7.40019531 76.72851562 7.44335938 C77.70498047 7.48267578 78.68144531 7.52199219 79.6875 7.5625 C80.67556641 7.60568359 81.66363281 7.64886719 82.68164062 7.69335938 C85.12095546 7.79941654 87.56037113 7.90147714 90 8 C90 8.33 90 8.66 90 9 C89.15695312 9.03738281 88.31390625 9.07476562 87.4453125 9.11328125 C85.80175781 9.21189453 85.80175781 9.21189453 84.125 9.3125 C83.03445313 9.37050781 81.94390625 9.42851562 80.8203125 9.48828125 C79.88960937 9.65714844 78.95890625 9.82601563 78 10 C77.34 10.99 76.68 11.98 76 13 C74.50339844 12.78537109 74.50339844 12.78537109 72.9765625 12.56640625 C72.33364258 12.47504395 71.69072266 12.38368164 71.02832031 12.28955078 C69.13029114 12.01859958 67.23308049 11.7419318 65.3359375 11.46484375 C57.19659187 10.38120306 49.21507802 9.81322971 41 9.8125 C40.14067871 9.8117749 39.28135742 9.8110498 38.39599609 9.81030273 C33.51537255 9.85236893 28.82748522 10.19451089 24.0078125 10.9831543 C21.52669848 11.00397104 20.15551278 10.17083027 18 9 C12.69205644 9 8.86420072 12.73392404 5 16 C4.113125 16.886875 3.22625 17.77375 2.3125 18.6875 C0.02659483 20.97340517 -2.1703762 22.46391851 -5 24 C-3.66198588 20.9350908 -2.29092019 19.14639067 0.3125 17.0625 C6.30139308 12.38867814 6.30139308 12.38867814 10 6 C6.7 4.35 3.4 2.7 0 1 C0 0.67 0 0.34 0 0 Z " fill="#E8E4E0" transform="translate(467,408)"/>
<path d="M0 0 C-1.14597656 0.53109375 -2.29195312 1.0621875 -3.47265625 1.609375 C-5.0026776 2.32275919 -6.5326214 3.03630973 -8.0625 3.75 C-8.81466797 4.09804688 -9.56683594 4.44609375 -10.34179688 4.8046875 C-19.1253998 8.85741997 -19.1253998 8.85741997 -26.8125 14.625 C-30.03108648 17.02316248 -31.31333763 17.40843893 -35.125 18 C-39.26305899 18.62336093 -39.26305899 18.62336093 -42.375 21.5 C-42.91125 22.325 -43.4475 23.15 -44 24 C-47.09339537 25.95480639 -49.83684972 26.31131266 -53.4375 26.6875 C-61.5360488 27.92808652 -69.13750896 31.60806624 -75.30859375 37.02734375 C-78.98131272 39.71924952 -82.80575201 40.8529009 -87.125 42.1875 C-87.93582031 42.44724609 -88.74664063 42.70699219 -89.58203125 42.97460938 C-91.08194672 43.45433441 -92.58326553 43.92971087 -94.08642578 44.39916992 C-95.72990865 44.91519587 -97.36580697 45.45526899 -99 46 C-99 45.34 -99 44.68 -99 44 C-97.09375 42.73828125 -97.09375 42.73828125 -94.5 41.3125 C-90.87950791 39.23122842 -87.80988075 37.09047069 -84.75 34.25 C-80.76806005 30.6551931 -77.60103946 29.35368242 -72.2421875 28.625 C-62.9902342 27.32648024 -57.80119095 24.75680302 -51.1875 18.25 C-47.15233942 14.56161103 -44.15282995 14.56112388 -38.8515625 14.4296875 C-34.39892367 13.75874192 -31.44745384 11.24522406 -27.8203125 8.703125 C-23.99993392 6.39608198 -20.27114141 5.64936894 -15.9375 4.7578125 C-11.95405647 3.73016882 -8.61508523 1.92290585 -5.05859375 -0.109375 C-3 -1 -3 -1 0 0 Z " fill="#EAE8E5" transform="translate(1145,386)"/>
<path d="M0 0 C3.33767689 0.23840549 6.6749937 0.47895681 10.01171875 0.73046875 C12.51187118 0.89943106 15.014973 1.03266839 17.51953125 1.11328125 C24.64995053 1.39849802 30.36685639 2.69265513 37.04272461 5.19555664 C43.72356806 7.53543458 50.29550138 7.62971925 57.3125 7.82421875 C64.81738791 8.03939602 72.86475948 8.62158649 80 11 C80 11.66 80 12.32 80 13 C76.4375692 13.05827558 72.87526181 13.09368885 69.3125 13.125 C67.80139648 13.15013672 67.80139648 13.15013672 66.25976562 13.17578125 C65.28330078 13.18222656 64.30683594 13.18867188 63.30078125 13.1953125 C62.40528564 13.20578613 61.50979004 13.21625977 60.5871582 13.22705078 C57.73437807 12.97668884 55.6331034 12.08538482 53 11 C49.83668535 11.06845374 49.83668535 11.06845374 47 12 C46.34 12.99 45.68 13.98 45 15 C44.45601563 14.34902344 43.91203125 13.69804687 43.3515625 13.02734375 C40.45937466 10.5339127 39.13334164 10.56745823 35.375 10.5625 C31.05319482 10.34459386 28.17940399 9.85767279 24.4375 7.6875 C17.01320641 3.47999259 8.29589964 2.52460579 0 1 C0 0.67 0 0.34 0 0 Z " fill="#E5E2E0" transform="translate(386,396)"/>
<path d="M0 0 C5.58605591 1.48938602 11.02163037 2.2071264 16.78686523 2.45141602 C16.78686523 2.78141602 16.78686523 3.11141602 16.78686523 3.45141602 C11.29822794 4.47159701 6.53456795 4.33616535 1.00952148 3.67407227 C-0.20750206 3.53877357 -0.20750206 3.53877357 -1.44911194 3.40074158 C-4.01729203 3.11333809 -6.5838889 2.81383142 -9.15063477 2.51391602 C-10.90119502 2.31584633 -12.65184553 2.11857262 -14.40258789 1.92211914 C-18.6738691 1.441084 -22.94377399 0.94919613 -27.21313477 0.45141602 C-27.21313477 0.12141602 -27.21313477 -0.20858398 -27.21313477 -0.54858398 C-30.18313477 -1.04358398 -30.18313477 -1.04358398 -33.21313477 -1.54858398 C-33.21313477 -1.87858398 -33.21313477 -2.20858398 -33.21313477 -2.54858398 C-21.75908499 -4.32593654 -11.09548438 -3.00488772 0 0 Z " fill="#E4E3E1" transform="translate(729.213134765625,438.548583984375)"/>
<path d="M0 0 C2.11352328 0.21966993 4.22654716 0.4462208 6.33544922 0.70654297 C10.89881912 1.20912411 15.47739555 1.36786439 20.0625 1.5625 C21.02349609 1.60568359 21.98449219 1.64886719 22.97460938 1.69335938 C25.31630277 1.79821132 27.65807929 1.90037788 30 2 C30 2.33 30 2.66 30 3 C29.15695312 3.03738281 28.31390625 3.07476562 27.4453125 3.11328125 C25.80175781 3.21189453 25.80175781 3.21189453 24.125 3.3125 C23.03445313 3.37050781 21.94390625 3.42851562 20.8203125 3.48828125 C19.42425781 3.74158203 19.42425781 3.74158203 18 4 C17.01 5.485 17.01 5.485 16 7 C14.54400391 6.78537109 14.54400391 6.78537109 13.05859375 6.56640625 C8.73502712 5.94875387 4.4007956 5.43935939 0.0625 4.9375 C-0.71673828 4.84662109 -1.49597656 4.75574219 -2.29882812 4.66210938 C-4.19912522 4.44060235 -6.09954953 4.22018718 -8 4 C-8 3.67 -8 3.34 -8 3 C-6.865625 2.690625 -5.73125 2.38125 -4.5625 2.0625 C-1.21224901 1.37075469 -1.21224901 1.37075469 0 0 Z " fill="#DCDBD8" transform="translate(527,414)"/>
<path d="M0 0 C-1.14597656 0.53109375 -2.29195312 1.0621875 -3.47265625 1.609375 C-5.0026776 2.32275919 -6.5326214 3.03630973 -8.0625 3.75 C-8.81466797 4.09804688 -9.56683594 4.44609375 -10.34179688 4.8046875 C-19.30620419 8.84491767 -19.30620419 8.84491767 -27.0625 14.75 C-30.40382239 17.30931077 -31.89947929 17.48815723 -36 17 C-36 16.01 -36 15.02 -36 14 C-30.02161082 8.82186764 -23.57141454 6.32833138 -15.9375 4.7578125 C-11.95405647 3.73016882 -8.61508523 1.92290585 -5.05859375 -0.109375 C-3 -1 -3 -1 0 0 Z " fill="#E7E5E3" transform="translate(1145,386)"/>
<path d="M0 0 C1.33341652 0.14507078 2.66672764 0.2911103 4 0.4375 C4.7425 0.51871094 5.485 0.59992188 6.25 0.68359375 C8.36804925 0.92728976 10.48206765 1.20620072 12.59375 1.5 C17.87896424 2.16499817 23.18075419 2.34959055 28.5 2.5625 C29.51320313 2.60568359 30.52640625 2.64886719 31.5703125 2.69335938 C34.0467679 2.79849192 36.52330749 2.90063837 39 3 C38.34 3.99 37.68 4.98 37 6 C34.55199197 6.09007125 32.3632643 5.98445947 29.9375 5.75 C20.42149154 5.01635105 10.91297167 4.70436778 1.375 4.4375 C-0.14201263 4.39369872 -1.65902118 4.34975598 -3.17602539 4.30566406 C-6.78395059 4.2013517 -10.3919482 4.09984909 -14 4 C-14 3.67 -14 3.34 -14 3 C-6.08 2.505 -6.08 2.505 2 2 C1.34 1.34 0.68 0.68 0 0 Z " fill="#F7F6F5" transform="translate(666,432)"/>
<path d="M0 0 C0.79664063 0.14308594 1.59328125 0.28617187 2.4140625 0.43359375 C6.72302553 1.11420338 11.03853226 1.59565539 15.375 2.0625 C16.20644531 2.15337891 17.03789062 2.24425781 17.89453125 2.33789062 C19.92952333 2.5601024 21.96473952 2.78026014 24 3 C24 3.33 24 3.66 24 4 C22.93458984 4.07347656 22.93458984 4.07347656 21.84765625 4.1484375 C20.92855469 4.22320312 20.00945312 4.29796875 19.0625 4.375 C18.14597656 4.44460938 17.22945313 4.51421875 16.28515625 4.5859375 C15.53105469 4.72257812 14.77695312 4.85921875 14 5 C13.67 5.66 13.34 6.32 13 7 C13.66 7 14.32 7 15 7 C15 7.66 15 8.32 15 9 C13.171875 10.33203125 13.171875 10.33203125 10.75 11.8125 C7.02489233 14.19726519 4.74201898 16.52677596 2 20 C-0.26731784 21.51979602 -2.57086075 22.73871616 -5 24 C-3.66198588 20.9350908 -2.29092019 19.14639067 0.3125 17.0625 C6.30139308 12.38867814 6.30139308 12.38867814 10 6 C6.7 4.35 3.4 2.7 0 1 C0 0.67 0 0.34 0 0 Z " fill="#E2E0DE" transform="translate(467,408)"/>
<path d="M0 0 C4.18748519 -0.02920143 8.37494391 -0.04686646 12.5625 -0.0625 C13.74392578 -0.07087891 14.92535156 -0.07925781 16.14257812 -0.08789062 C21.86863072 -0.10392999 27.36394482 -0.0510705 33 1 C32.34 1.99 31.68 2.98 31 4 C28.57324219 4.28051758 28.57324219 4.28051758 25.546875 4.14453125 C23.90525391 4.07588867 23.90525391 4.07588867 22.23046875 4.00585938 C21.08191406 3.94205078 19.93335938 3.87824219 18.75 3.8125 C17.61691406 3.76802734 16.48382813 3.72355469 15.31640625 3.67773438 C9.80795899 3.41619614 5.21065021 2.91984072 0 1 C0 0.67 0 0.34 0 0 Z " fill="#F6F3F0" transform="translate(494,413)"/>
<path d="M0 0 C10.23 0 20.46 0 31 0 C31 0.66 31 1.32 31 2 C27.52141784 2.19956481 24.0421401 2.38240361 20.5625 2.5625 C19.58861328 2.61857422 18.61472656 2.67464844 17.61132812 2.73242188 C11.59279841 3.0343548 5.97003796 2.83345928 0 2 C0 1.34 0 0.68 0 0 Z " fill="#C4C3C1" transform="translate(842,450)"/>
<path d="M0 0 C0.680625 0.70125 1.36125 1.4025 2.0625 2.125 C6.71856726 6.75468728 10.82935635 10.60030525 17 13 C20.14756573 16.14756573 20.93846207 19.75384829 22 24 C19.82206947 21.97227157 18.15170045 20.3034009 16.8125 17.625 C14.91246099 14.87321936 13.47967504 13.88061508 10.6875 12.125 C6.33489594 9.37973012 2.8432002 6.32612423 0 2 C0 1.34 0 0.68 0 0 Z " fill="#D0CFCF" transform="translate(342,498)"/>
<path d="M0 0 C2.61034995 3.07700469 3.66775583 5.72238915 4.625 9.625 C5.53629536 13.41511679 5.53629536 13.41511679 7 17 C7.07092842 19.2072923 7.08415025 21.41667452 7.0625 23.625 C7.05347656 24.81351562 7.04445313 26.00203125 7.03515625 27.2265625 C7.02355469 28.14179688 7.01195312 29.05703125 7 30 C4.97874028 26.96811042 4.73325907 26.02056575 4.5 22.5625 C4.26979441 19.16121242 3.54557381 17.01561206 2 14 C1.57072123 12.34648178 1.19723487 10.67766727 0.875 9 C0.70742188 8.154375 0.53984375 7.30875 0.3671875 6.4375 C0 4 0 4 0 0 Z " fill="#C1C1C1" transform="translate(432,411)"/>
<path d="M0 0 C2.10409639 -0.02701408 4.20829178 -0.04640223 6.3125 -0.0625 C7.48425781 -0.07410156 8.65601563 -0.08570313 9.86328125 -0.09765625 C13 0 13 0 16 1 C16 1.66 16 2.32 16 3 C8.74 3 1.48 3 -6 3 C-6 2.67 -6 2.34 -6 2 C-4.02 1.67 -2.04 1.34 0 1 C0 0.67 0 0.34 0 0 Z " fill="#C6C4C2" transform="translate(450,406)"/>
<path d="M0 0 C-1.18078125 0.55429687 -2.3615625 1.10859375 -3.578125 1.6796875 C-5.13542874 2.41143263 -6.69271974 3.14320489 -8.25 3.875 C-9.02730469 4.23980469 -9.80460937 4.60460937 -10.60546875 4.98046875 C-11.35957031 5.33496094 -12.11367187 5.68945312 -12.890625 6.0546875 C-13.58188477 6.37937012 -14.27314453 6.70405273 -14.98535156 7.03857422 C-16.36357136 7.69628502 -17.71989764 8.40136947 -19.05371094 9.14501953 C-21.89105409 10.39142893 -24.05001394 9.67045138 -27 9 C-24.51355621 6.51355621 -22.91678855 6.40520172 -19.5 5.6875 C-14.17123607 4.44989297 -9.79619933 2.59782819 -5.05859375 -0.109375 C-3 -1 -3 -1 0 0 Z " fill="#C1C1C0" transform="translate(1145,386)"/>
<path d="M0 0 C1.17949219 0.10183594 2.35898437 0.20367187 3.57421875 0.30859375 C4.47785156 0.39238281 5.38148438 0.47617187 6.3125 0.5625 C4.57536782 2.73391522 3.74153194 3.50322585 0.9375 3.890625 C0.07125 3.86484375 -0.795 3.8390625 -1.6875 3.8125 C-2.55375 3.79703125 -3.42 3.7815625 -4.3125 3.765625 C-6.6875 3.5625 -6.6875 3.5625 -9.6875 2.5625 C-9.6875 1.9025 -9.6875 1.2425 -9.6875 0.5625 C-6.14075997 -0.61974668 -3.71227005 -0.33079634 0 0 Z " fill="#EBE8E6" transform="translate(448.6875,404.4375)"/>
<path d="M0 0 C0.82113281 0.11859375 1.64226563 0.2371875 2.48828125 0.359375 C3.80505859 0.53533203 3.80505859 0.53533203 5.1484375 0.71484375 C6.02371094 0.84503906 6.89898438 0.97523438 7.80078125 1.109375 C9.34208038 1.29987265 10.88371306 1.48770643 12.42578125 1.671875 C13.53953125 1.81625 14.65328125 1.960625 15.80078125 2.109375 C15.80078125 2.769375 15.80078125 3.429375 15.80078125 4.109375 C8.87078125 3.779375 1.94078125 3.449375 -5.19921875 3.109375 C-2.19921875 0.109375 -2.19921875 0.109375 0 0 Z " fill="#D0CFCE" transform="translate(811.19921875,446.890625)"/>
<path d="M0 0 C0 0.33 0 0.66 0 1 C-11.52164009 3.29612756 -11.52164009 3.29612756 -17 3 C-17 2.67 -17 2.34 -17 2 C-19.97 1.505 -19.97 1.505 -23 1 C-23 0.67 -23 0.34 -23 0 C-15.19744856 -1.21074074 -7.84402334 -0.72526532 0 0 Z " fill="#DEDCDB" transform="translate(719,436)"/>
<path d="M0 0 C0.99 0.66 1.98 1.32 3 2 C-2 4 -7 6 -12 8 C-13.32 6.68 -14.64 5.36 -16 4 C-15.18015625 3.87882812 -14.3603125 3.75765625 -13.515625 3.6328125 C-12.43796875 3.46523438 -11.3603125 3.29765625 -10.25 3.125 C-9.18265625 2.96257812 -8.1153125 2.80015625 -7.015625 2.6328125 C-4.32291129 2.06776118 -2.36427561 1.36577086 0 0 Z " fill="#D7D7D5" transform="translate(1086,411)"/>
<path d="M0 0 C-3 2 -3 2 -6.0625 2.9375 C-9.27630502 3.7712102 -9.27630502 3.7712102 -11 7 C-12.32 5.35 -13.64 3.7 -15 2 C-10.13948404 -0.59227518 -5.34728867 -0.18689553 0 0 Z " fill="#DBD9D7" transform="translate(442,404)"/>
<path d="M0 0 C-4.455 2.97 -4.455 2.97 -9 6 C-9.66 5.34 -10.32 4.68 -11 4 C-10.67 3.01 -10.34 2.02 -10 1 C-3.84210526 -1.28070175 -3.84210526 -1.28070175 0 0 Z " fill="#D5D4D2" transform="translate(1041,434)"/>
<path d="M0 0 C1.4540625 0.0309375 1.4540625 0.0309375 2.9375 0.0625 C1.5625 2.0625 1.5625 2.0625 -1.0625 4.0625 C-4.4205469 4.42041096 -7.69786357 4.29365823 -11.0625 4.0625 C-11.0625 3.7325 -11.0625 3.4025 -11.0625 3.0625 C-9.928125 2.753125 -8.79375 2.44375 -7.625 2.125 C-0.5367268 0.01095361 -0.5367268 0.01095361 0 0 Z " fill="#CDCCCA" transform="translate(530.0625,413.9375)"/>
<path d="M0 0 C4.6875 0.78125 4.6875 0.78125 9.375 1.5625 C10.674375 1.7790625 10.674375 1.7790625 12 2 C11.34 3.32 10.68 4.64 10 6 C6.7 4.35 3.4 2.7 0 1 C0 0.67 0 0.34 0 0 Z " fill="#CFCECD" transform="translate(467,408)"/>
<path d="M0 0 C1.67542976 0.28604898 3.34385343 0.61781233 5 1 C4.67 1.66 4.34 2.32 4 3 C0.04 3 -3.92 3 -8 3 C-8 2.67 -8 2.34 -8 2 C-6.865625 1.855625 -5.73125 1.71125 -4.5625 1.5625 C-1.19222799 1.38828522 -1.19222799 1.38828522 0 0 Z " fill="#F8F5F1" transform="translate(798,445)"/>
<path d="M0 0 C0.99 0.33 1.98 0.66 3 1 C3.94921875 3.06640625 3.94921875 3.06640625 4.6875 5.5625 C4.93886719 6.38878906 5.19023437 7.21507812 5.44921875 8.06640625 C5.63097656 8.70449219 5.81273437 9.34257813 6 10 C2.51668565 6.98112756 1.20842856 4.43090471 0 0 Z " fill="#E0E0E0" transform="translate(358,512)"/>
<path d="M0 0 C0.99 0.33 1.98 0.66 3 1 C2.0479279 2.00596297 1.08812654 3.00461563 0.125 4 C-0.40867187 4.556875 -0.94234375 5.11375 -1.4921875 5.6875 C-3 7 -3 7 -5 7 C-3.70700306 4.11562221 -2.34058637 2.12780579 0 0 Z " fill="#393938" transform="translate(972,473)"/>
<path d="M0 0 C0.66 0.66 1.32 1.32 2 2 C-2.455 4.97 -2.455 4.97 -7 8 C-4.9957983 3.9915966 -3.50944037 2.58590343 0 0 Z " fill="#B8B7B8" transform="translate(469,424)"/>
<path d="M0 0 C1.670625 0.061875 1.670625 0.061875 3.375 0.125 C2.25 1.6875 2.25 1.6875 0.375 3.125 C-2.8125 2.8125 -2.8125 2.8125 -5.625 2.125 C-3.625 0.125 -3.625 0.125 0 0 Z " fill="#CAC9C7" transform="translate(1123.625,392.875)"/>
</svg>
