<?xml version="1.0" encoding="UTF-8"?>
<svg version="1.1" xmlns="http://www.w3.org/2000/svg" viewBox="0 0 1024 501">
<path d="M0 0 C1.37239415 0.0050384 2.74479015 0.00959706 4.1171875 0.01367188 C7.41150792 0.02527159 10.70572784 0.04158909 14 0.0625 C14.26554688 0.61679688 14.53109375 1.17109375 14.8046875 1.7421875 C15.15789063 2.46664062 15.51109375 3.19109375 15.875 3.9375 C16.39707031 5.01644531 16.39707031 5.01644531 16.9296875 6.1171875 C17.96557543 8.21385019 17.96557543 8.21385019 20 10.0625 C22.52550998 10.37765575 22.52550998 10.37765575 25.51748657 10.3409729 C26.68980331 10.35213638 27.86212006 10.36329987 29.06996155 10.37480164 C30.36252365 10.37696182 31.65508575 10.37912201 32.98681641 10.38134766 C34.35655818 10.39064205 35.72629426 10.40080998 37.09602356 10.41178894 C40.82098084 10.43915832 44.54590017 10.45425877 48.27093172 10.46721697 C52.16140901 10.48281729 56.05180842 10.50961731 59.94223022 10.5352478 C67.3121972 10.58209066 74.68217874 10.61880803 82.05221879 10.65192068 C90.4415127 10.69010325 98.8307285 10.73952347 107.21995664 10.78990483 C124.47991465 10.89330655 141.73991781 10.98254005 159 11.0625 C159.65468744 12.81701245 160.30516347 14.57309675 160.95385742 16.32983398 C161.31654221 17.30758286 161.67922699 18.28533173 162.05290222 19.29270935 C165.44611659 29.21617623 165.49538325 42.15891413 162 52.0625 C152.19475845 61.86774155 126.27596381 61.91330467 112.95350647 64.07902527 C108.89558724 64.74043169 104.84986727 65.4469651 100.80859375 66.203125 C97.20633232 66.86945304 93.6587166 67.36910762 90 67.625 C87.03271018 67.83633314 84.84356879 68.11464374 82 69.0625 C79.34101965 69.40086247 76.68909638 69.70284302 74.0234375 69.9765625 C72.38890473 70.15180715 70.75446743 70.32794398 69.12011719 70.50488281 C68.27477417 70.59612427 67.42943115 70.68736572 66.55847168 70.78137207 C60.04850878 71.49669458 53.54926751 72.2945516 47.05371094 73.12988281 C45.41033388 73.33803069 43.7660783 73.53933783 42.12109375 73.734375 C39.69557103 74.02285658 37.27374 74.33324229 34.8515625 74.6484375 C34.11934479 74.73088715 33.38712708 74.81333679 32.63272095 74.89828491 C29.35142666 75.34715834 27.22607952 75.89227302 24.56005859 77.8996582 C22.941106 80.14414975 22.57921473 81.39650037 22.1875 84.08203125 C21.4609375 86.18994141 21.4609375 86.18994141 20 88.0625 C15.16970719 90.05308406 10.12277068 90.86650087 5 91.75 C2.24618482 92.2559275 -0.50307596 92.78215375 -3.25 93.32421875 C-3.9175531 93.45525497 -4.5851062 93.5862912 -5.27288818 93.72129822 C-15.92811497 95.94498273 -26.60556928 100.8867704 -33.04296875 109.93359375 C-40.83813394 122.80767069 -42.27687417 137.49653809 -39.27734375 152.25 C-38.45154307 155.45958968 -37.56034192 158.63976201 -36.625 161.81884766 C-33.05673793 174.62835096 -30.25399341 187.73939126 -30 201.0625 C-44.48730374 201.41923251 -58.89210927 200.5977999 -73.34793091 199.77146912 C-74.17155121 199.72442337 -74.99517151 199.67737762 -75.84375 199.62890625 C-77.09477005 199.55731041 -77.09477005 199.55731041 -78.37106323 199.48426819 C-86.73970813 199.01059499 -95.11177414 198.62484504 -103.48501587 198.2428894 C-121.02794323 197.44050803 -138.557826 196.4741856 -156.0881958 195.43441772 C-169.54669789 194.63762463 -183.00672102 193.89693263 -196.47265625 193.23828125 C-197.50629051 193.18757445 -197.50629051 193.18757445 -198.56080627 193.13584328 C-204.69157474 192.83529303 -210.8224031 192.53612425 -216.95379639 192.24856567 C-220.70762371 192.07226027 -224.46123356 191.89179685 -228.21484375 191.7109375 C-229.33633316 191.66000443 -230.45782257 191.60907135 -231.61329651 191.55659485 C-232.64832809 191.50617538 -233.68335968 191.45575592 -234.74975586 191.40380859 C-236.09667763 191.34077042 -236.09667763 191.34077042 -237.47080994 191.27645874 C-240.04304862 191.05885827 -242.47316553 190.57936193 -245 190.0625 C-247.85652048 189.88030166 -250.69935052 189.73741984 -253.55859375 189.6328125 C-255.30592119 189.56086152 -257.05323509 189.48858137 -258.80053711 189.41601562 C-259.7191452 189.37903564 -260.6377533 189.34205566 -261.584198 189.30395508 C-287.64974153 188.24011224 -313.65463727 186.46252189 -339.59765625 183.69360352 C-345.568662 183.06581712 -351.54095629 182.67841234 -357.53833008 182.40380859 C-360.23139784 182.27283261 -362.82607595 182.09739471 -365.47265625 181.56640625 C-368.95940403 180.87121233 -372.45747649 180.73897257 -376 180.5625 C-383.3652466 180.19559657 -383.3652466 180.19559657 -386.40551758 179.55810547 C-389.09255904 179.04481911 -391.59079149 178.90451613 -394.32421875 178.8515625 C-395.34265869 178.82529785 -396.36109863 178.7990332 -397.41040039 178.77197266 C-398.49184326 178.74409668 -399.57328613 178.7162207 -400.6875 178.6875 C-408.08302136 178.44568171 -415.29092716 178.08853454 -422.5625 176.6875 C-430.72656942 175.11991451 -438.91036265 174.34632103 -447.1875 173.625 C-459.53378786 172.54355603 -471.79212349 171.12876797 -484.07519531 169.47729492 C-492.50590777 168.35301862 -500.92844257 167.40347946 -509.40893555 166.74584961 C-513.69972448 166.39013889 -517.62186101 165.69434766 -521.79614258 164.57080078 C-526.4205598 163.50421868 -531.1651812 163.09757305 -535.875 162.5625 C-542.35113864 161.82120614 -548.71241431 160.96712241 -555.09130859 159.625 C-558.81430637 158.9050246 -562.5560436 158.33236449 -566.3046875 157.765625 C-567.06427261 157.65035965 -567.82385773 157.5350943 -568.60646057 157.41633606 C-570.20274683 157.17417652 -571.79904536 156.93209787 -573.39535522 156.69009399 C-587.23884191 154.58204308 -600.92054814 152.18078873 -614.58789062 149.11132812 C-622.07363234 147.4374145 -629.54609574 146.04773865 -637.14526367 144.99926758 C-641.30634381 144.41161009 -645.03578486 143.43185926 -649 142.0625 C-651.20159882 141.59228198 -653.41090388 141.15733371 -655.625 140.75 C-668.9153152 138.19080722 -681.9575309 134.90277495 -694.7421875 130.44921875 C-701.39699447 128.20838176 -708.21390904 126.46238497 -714.99487305 124.64892578 C-720.76719679 123.07768511 -726.26831959 121.25587523 -731.79125977 118.95727539 C-734.66330726 117.79378981 -737.58474485 116.91437376 -740.5625 116.0625 C-745.09828881 114.70387794 -749.30400545 113.12762585 -753.58203125 111.1171875 C-756.54568483 109.82447915 -759.56638684 108.79808021 -762.625 107.75 C-769.69159041 105.26529563 -776.38423101 102.26134028 -783.10791016 98.98291016 C-785.03922883 98.04341707 -786.97815715 97.12102805 -788.91796875 96.19921875 C-790.1749691 95.59215926 -791.43149755 94.98412144 -792.6875 94.375 C-794.36392578 93.56482422 -794.36392578 93.56482422 -796.07421875 92.73828125 C-798.90073899 91.1193531 -800.83783184 89.47718415 -803 87.0625 C-785.13360127 74.23677803 -785.13360127 74.23677803 -776 69.0625 C-774.95972656 68.45148438 -773.91945313 67.84046875 -772.84765625 67.2109375 C-761.29209983 60.45121755 -749.36174629 54.2230013 -737 49.0625 C-736.22785156 48.73765625 -735.45570313 48.4128125 -734.66015625 48.078125 C-729.19947525 45.83519126 -723.67215146 43.90268184 -718.0546875 42.08984375 C-715.82345002 41.33944035 -713.61324964 40.52564463 -711.41796875 39.67578125 C-695.64887351 33.7242315 -678.92748698 29.88367832 -662.5 26.1875 C-661.23212646 25.90165039 -659.96425293 25.61580078 -658.65795898 25.32128906 C-651.1369709 23.662899 -643.61300644 22.22649942 -636 21.0625 C-635.14712402 20.9298877 -634.29424805 20.79727539 -633.41552734 20.66064453 C-594.39878197 14.84294905 -554.27060056 15.63131496 -514.91235352 14.75952148 C-511.46629656 14.68265722 -508.02025257 14.60523821 -504.57421875 14.52734375 C-503.3179002 14.49904134 -503.3179002 14.49904134 -502.03620148 14.47016716 C-491.95769723 14.24030328 -481.89452504 13.92229423 -471.82598877 13.40660095 C-459.53999826 12.80374457 -447.23544679 12.73210499 -434.9375 12.5625 C-418.79064199 12.33758119 -402.65899772 12.01815056 -386.52113342 11.42442322 C-375.86320748 11.03874644 -365.20734332 10.83631234 -354.54403687 10.67434692 C-333.37280743 10.34467735 -312.21849678 9.75349223 -291.05862427 8.99490356 C-275.92823252 8.45264754 -260.79883851 7.95795427 -245.6640625 7.55859375 C-244.49989083 7.52779976 -244.49989083 7.52779976 -243.31220055 7.49638367 C-239.38310218 7.39256757 -235.45398973 7.28929198 -231.52487183 7.18621826 C-229.954081 7.14498717 -228.38329039 7.10374775 -226.8125 7.0625 C-226.03480885 7.042089 -225.25711769 7.02167801 -224.45586014 7.0006485 C-206.66643279 6.5323423 -188.89317453 6.01945608 -171.125 5 C-154.32547994 4.03776654 -137.53513503 3.75115652 -120.71130371 3.50997925 C-101.26863646 3.22872764 -81.84039538 2.76273276 -62.40650177 2.12857056 C-60.40064581 2.06333408 -58.39475052 1.99931055 -56.38885498 1.93530273 C-39.79780549 1.4278586 -39.79780549 1.4278586 -23.2265625 0.50390625 C-15.47083795 -0.0257176 -7.77142084 -0.05021296 0 0 Z " fill="#22221E" transform="translate(832,164.9375)"/>
<path d="M0 0 C5.84108147 0.67284578 11.07145699 2.69709437 16.5625 4.6875 C25.25194614 7.78010646 33.97177051 10.5253027 42.85791016 12.9909668 C47.26514606 14.21510574 51.61605122 15.49366643 55.9375 17 C62.48556515 19.2579535 69.17218183 20.99165736 75.859375 22.7824707 C80.92567324 24.14377881 85.94404102 25.57451387 90.9375 27.1875 C97.11810803 29.1234029 103.35021963 30.36932384 109.71142578 31.55957031 C112.22843089 32.04396088 114.73694439 32.5623908 117.24609375 33.0859375 C141.77828354 38.17592148 166.51274592 42.15130415 191.3125 45.6875 C191.9898822 45.78409912 192.6672644 45.88069824 193.36517334 45.98022461 C213.4740581 48.83352477 233.62107931 51.3622934 253.79833984 53.67993164 C257.13021518 54.06309975 260.46159994 54.45034611 263.79296875 54.83789062 C274.98880881 56.13236901 286.18339167 57.36189356 297.41091919 58.3506012 C301.3453645 58.70471668 305.12899487 59.19331789 309 60 C310.98813496 60.20904872 312.97967653 60.38671963 314.97265625 60.54296875 C316.23126465 60.64432129 317.48987305 60.74567383 318.78662109 60.85009766 C319.47649109 60.90450012 320.16636108 60.95890259 320.87713623 61.01495361 C333.76163211 62.03225482 346.63808152 63.13637598 359.51051903 64.29556465 C361.75015909 64.49716292 363.98985514 64.69812807 366.22956848 64.89891052 C378.84050914 66.02989979 378.84050914 66.02989979 384.32693481 66.53109741 C406.15748686 68.53611903 406.15748686 68.53611903 428.04647827 69.70315552 C434.97140442 69.93872842 441.78592771 70.6923924 448.66015625 71.52734375 C453.87509631 72.13285031 459.10197977 72.41869113 464.3449707 72.65820312 C467.21221819 72.79657085 469.99342562 72.99886319 472.82398987 73.48831177 C476.06170835 74.00994186 479.2139313 74.25715523 482.48803711 74.43310547 C484.40307289 74.53877335 484.40307289 74.53877335 486.35679626 74.64657593 C487.03481733 74.68243176 487.7128384 74.71828758 488.41140556 74.75522995 C490.5700265 74.86944591 492.7283906 74.98774661 494.88673401 75.10708618 C497.96835832 75.27716796 501.0500601 75.44572348 504.13183594 75.61303711 C512.19136925 76.0513736 520.2501515 76.50300772 528.30859375 76.9609375 C529.09996609 77.00590614 529.89133842 77.05087479 530.70669174 77.09720612 C542.31671988 77.75994553 553.91166479 78.52606612 565.5 79.5 C577.69945857 80.52382406 589.90662662 81.31155332 602.12890625 82.00390625 C602.89930111 82.04757198 603.66969597 82.09123772 604.46343613 82.13622665 C612.28305012 82.57825259 620.10310442 83.01166359 627.92382812 83.43359756 C674.42410106 85.94704665 674.42410106 85.94704665 688 89 C688 89.33 688 89.66 688 90 C676.90813506 90.22149489 666.1772597 89.36321998 655.15234375 88.15429688 C645.10824795 87.12580555 635.09770807 86.71577631 625.00724792 86.39631653 C612.21220035 85.97547666 599.45784421 85.12944566 586.6875 84.25 C582.09369048 83.93919392 577.49972757 83.63069888 572.9057045 83.32306862 C571.51352948 83.22978264 570.12136594 83.13632527 568.72921371 83.04269981 C556.36990064 82.21180696 544.00783211 81.42921658 531.64453125 80.66015625 C529.82736523 80.54683459 528.01020112 80.43348221 526.19303894 80.32009888 C515.42612615 79.64870221 515.42612615 79.64870221 504.65878296 78.98425293 C500.43701268 78.72508301 496.21544767 78.46278543 491.99400902 78.1982708 C490.43013293 78.10090714 488.86618004 78.00476828 487.30214882 77.90992928 C485.15174549 77.77942721 483.00164384 77.64472262 480.8515625 77.5090332 C479.03906006 77.39722466 479.03906006 77.39722466 477.18994141 77.28315735 C474.38325969 77.03402031 471.74989726 76.5913637 469 76 C467.04289765 75.83502625 465.08250937 75.70703022 463.12109375 75.60546875 C461.91638428 75.5391626 460.7116748 75.47285645 459.47045898 75.40454102 C458.81826385 75.36966583 458.16606873 75.33479065 457.49411011 75.29885864 C423.48134798 73.45717995 389.49591247 70.68507901 355.59863281 67.35009766 C350.71993667 66.87546738 345.83887764 66.42796606 340.95776367 65.97900391 C333.97047084 65.33363958 326.98498212 64.66983918 320 64 C318.6121933 63.86691437 318.6121933 63.86691437 317.1963501 63.73114014 C292.38031213 61.3460875 267.60332121 58.89386407 242.89941406 55.52246094 C238.57876841 54.94356151 234.25502422 54.39406009 229.9296875 53.8515625 C196.51030334 49.65421807 163.08925494 45.35151482 130 39 C128.59089355 38.73340576 128.59089355 38.73340576 127.15332031 38.46142578 C116.80111037 36.49616668 106.53417658 34.30593655 96.34326172 31.61572266 C94.65621266 31.17242846 92.96752509 30.73535307 91.27783203 30.30224609 C73.59053561 25.76741577 56.24957097 20.37758443 38.92663574 14.63720703 C37.0044005 14.0014554 35.08104688 13.36921882 33.15722656 12.73828125 C29.49920636 11.53818562 25.84294299 10.33292077 22.1875 9.125 C20.56146851 8.58963623 20.56146851 8.58963623 18.90258789 8.04345703 C12.50491707 5.91274182 6.22838597 3.58471534 0 1 C0 0.67 0 0.34 0 0 Z " fill="#ABACA7" transform="translate(80,257)"/>
<path d="M0 0 C5.84108147 0.67284578 11.07145699 2.69709437 16.5625 4.6875 C25.25194614 7.78010646 33.97177051 10.5253027 42.85791016 12.9909668 C47.26514606 14.21510574 51.61605122 15.49366643 55.9375 17 C62.48556515 19.2579535 69.17218183 20.99165736 75.859375 22.7824707 C80.92567324 24.14377881 85.94404102 25.57451387 90.9375 27.1875 C97.11810803 29.1234029 103.35021963 30.36932384 109.71142578 31.55957031 C112.22843089 32.04396088 114.73694439 32.5623908 117.24609375 33.0859375 C141.77828354 38.17592148 166.51274592 42.15130415 191.3125 45.6875 C191.9898822 45.78409912 192.6672644 45.88069824 193.36517334 45.98022461 C213.4740581 48.83352477 233.62107931 51.3622934 253.79833984 53.67993164 C257.13021518 54.06309975 260.46159994 54.45034611 263.79296875 54.83789062 C274.98880881 56.13236901 286.18339167 57.36189356 297.41091919 58.3506012 C301.34781171 58.70493693 305.12341876 59.21774597 309 60 C311.68317617 60.26838788 314.35926236 60.50868915 317.046875 60.71875 C317.81751282 60.78155151 318.58815063 60.84435303 319.38214111 60.90905762 C321.83787974 61.10880402 324.29390798 61.30465097 326.75 61.5 C329.19175998 61.6959019 331.6334428 61.89267923 334.07501221 62.09094238 C335.5898247 62.21377886 337.1047514 62.33521868 338.61981201 62.45495605 C343.75979655 62.86940215 348.87691723 63.41183627 354 64 C354 64.33 354 64.66 354 65 C344.63626942 66.9713117 335.28218091 65.84482207 325.875 64.75 C323.38950514 64.47102791 320.90381536 64.19378888 318.41796875 63.91796875 C317.75612076 63.84424545 317.09427277 63.77052216 316.41236877 63.69456482 C311.06663103 63.10428564 305.71642069 62.56924265 300.36328125 62.05078125 C281.2108473 60.19368215 262.13308112 58.10714389 243.06054688 55.53857422 C238.67339158 54.95237571 234.28230519 54.3987714 229.890625 53.84765625 C196.48444519 49.64929067 163.07653228 45.34907269 130 39 C128.59089355 38.73340576 128.59089355 38.73340576 127.15332031 38.46142578 C116.80111037 36.49616668 106.53417658 34.30593655 96.34326172 31.61572266 C94.65621266 31.17242846 92.96752509 30.73535307 91.27783203 30.30224609 C73.59053561 25.76741577 56.24957097 20.37758443 38.92663574 14.63720703 C37.0044005 14.0014554 35.08104688 13.36921882 33.15722656 12.73828125 C29.49920636 11.53818562 25.84294299 10.33292077 22.1875 9.125 C20.56146851 8.58963623 20.56146851 8.58963623 18.90258789 8.04345703 C12.50491707 5.91274182 6.22838597 3.58471534 0 1 C0 0.67 0 0.34 0 0 Z " fill="#ABACA7" transform="translate(80,257)"/>
<path d="M0 0 C7.13626993 0.85951904 14.03206734 1.94446975 20.9921875 3.73828125 C34.1525032 6.95664805 47.58990875 8.91120181 60.95518494 11.07572556 C63.21020855 11.4411802 65.46493306 11.80843525 67.71960449 12.17605591 C101.15566587 17.62166883 134.5676334 22.01200224 168.28076172 25.33062744 C175.35882288 26.02943476 182.4296675 26.7895474 189.5 27.5625 C196.63105302 28.34090799 203.76348932 29.08305177 210.90625 29.74609375 C234.77768037 31.96548615 234.77768037 31.96548615 246.14428711 33.8046875 C254.25583997 35.09866736 262.4065975 36.03817944 270.5625 37 C282.42465102 38.403684 294.21886405 40.02282823 306 42 C308.56123551 42.40460008 311.12415791 42.79629624 313.6875 43.1875 C314.72261719 43.34605469 315.75773437 43.50460937 316.82421875 43.66796875 C317.54222656 43.77753906 318.26023437 43.88710938 319 44 C319 44.33 319 44.66 319 45 C310.80347522 45.29861562 302.92306761 44.36549795 294.8125 43.25 C293.45272659 43.0677689 292.09286112 42.88622357 290.73291016 42.70532227 C287.9073687 42.32902468 285.08224268 41.94979194 282.25732422 41.56884766 C278.11244975 41.01222892 273.9650098 40.47724108 269.81640625 39.94921875 C269.15428635 39.86484055 268.49216644 39.78046234 267.8099823 39.69352722 C265.83165909 39.44148499 263.85332957 39.18949232 261.875 38.9375 C254.90382912 38.04725823 247.93528591 37.15537143 240.984375 36.1171875 C240.0680127 35.98062744 239.15165039 35.84406738 238.20751953 35.70336914 C236.59801301 35.45976733 234.98940863 35.21002767 233.38232422 34.95092773 C228.23428376 34.1673332 223.09948636 33.80265271 217.90234375 33.52734375 C209.54134672 33.08221866 201.25117729 32.22672863 192.9375 31.25 C189.77250372 30.88476542 186.60704488 30.52368411 183.44140625 30.1640625 C182.6105249 30.06946747 181.77964355 29.97487244 180.92358398 29.87741089 C174.44215642 29.14633793 167.95536695 28.48077178 161.46484375 27.8359375 C135.19676824 25.21776542 109.08556603 22.05929634 83 18 C81.79216858 17.81277374 81.79216858 17.81277374 80.55993652 17.62176514 C60.90398035 14.56684866 41.42526967 11.05566153 22.01611328 6.67285156 C19.11809019 6.02634423 16.21552594 5.40972252 13.30859375 4.8046875 C12.45475098 4.62437988 11.6009082 4.44407227 10.72119141 4.25830078 C9.16866933 3.93067551 7.61501977 3.60832669 6.06005859 3.29248047 C4.35830459 2.92566253 2.6756284 2.472008 1 2 C0.67 1.34 0.34 0.68 0 0 Z " fill="#969793" transform="translate(253,232)"/>
<path d="M0 0 C16.34536862 -1.00621284 32.24244641 1.60859631 48.3633728 3.92971802 C56.97349165 5.15967547 65.60411444 6.20510859 74.23828125 7.24993896 C89.56664128 9.11110483 104.80999399 11.20146943 120 14 C121.35230713 14.24532471 121.35230713 14.24532471 122.73193359 14.49560547 C131.00472055 16.00201986 139.25145151 17.56136179 147.43481445 19.5 C168.60901512 24.47587642 190.35257609 26.49492819 211.97143555 28.51757812 C220.55626229 29.33594303 229.022989 30.41757564 237.5196228 31.897995 C244.57004781 33.12362284 251.64600315 34.01646234 258.75 34.875 C269.14921724 36.17990364 279.51836188 37.61310983 289.86340332 39.2979126 C291.84783246 39.62058253 293.8335809 39.9351046 295.81933594 40.24951172 C297.01075195 40.44818848 298.20216797 40.64686523 299.4296875 40.8515625 C300.48397949 41.02510254 301.53827148 41.19864258 302.62451172 41.37744141 C303.40842285 41.58288574 304.19233398 41.78833008 305 42 C305.33 42.66 305.66 43.32 306 44 C301.77030701 43.5464453 297.54136022 43.08624957 293.3125 42.625 C292.13365234 42.49867188 290.95480469 42.37234375 289.74023438 42.2421875 C282.80124125 41.4817499 275.91143612 40.5673801 269.01733398 39.47314453 C264.64553057 38.78760727 260.26166264 38.2062328 255.875 37.625 C249.9721929 36.83748607 244.07734155 36.02508771 238.1953125 35.09375 C221.10948326 32.40899084 203.98012412 30.50923121 186.77734375 28.75048828 C185.80378937 28.6491156 184.83023499 28.54774292 183.82717896 28.44329834 C181.99974636 28.25323134 180.17186575 28.06740057 178.34347534 27.88677979 C173.47331219 27.37767154 168.79069692 26.58311952 164.02453613 25.46166992 C161.36305725 24.85475324 158.69110007 24.45891834 155.98828125 24.08203125 C148.76418196 23.00663627 141.62352989 21.58147289 134.46572876 20.14321899 C109.18515605 15.08629171 83.81046104 11.20566832 58.20541382 8.21563721 C52.04455776 7.49548104 45.89225431 6.73548159 39.74609375 5.8984375 C38.73872162 5.76149223 38.73872162 5.76149223 37.71099854 5.6217804 C34.54579413 5.18993195 31.38158516 4.75182302 28.21826172 4.30639648 C21.13346546 3.33189846 14.11278829 2.68757965 6.9675293 2.3503418 C4.14443537 2.01705181 2.40872694 1.45655061 0 0 Z " fill="#8C8D8A" transform="translate(421,220)"/>
<path d="M0 0 C7.597862 -0.18061157 14.95558678 0.52714401 22.5 1.390625 C23.79756226 1.53528702 25.09512451 1.67994904 26.43200684 1.82899475 C29.90694577 2.21671858 33.38114148 2.6107437 36.85519409 3.00632095 C39.72441347 3.3323032 42.59402965 3.654715 45.46364594 3.97718143 C95.13204138 9.56044792 95.13204138 9.56044792 108.17138672 11.46264648 C122.67181351 13.54554062 137.29267649 14.54535186 151.88671875 15.74731445 C167.34653135 17.02654529 182.6748259 18.57544831 198 21 C198 21.66 198 22.32 198 23 C197.44156403 22.94825119 196.88312805 22.89650238 196.30776978 22.84318542 C186.17499361 21.90672506 176.04192882 20.98889054 165.8984375 20.17578125 C134.90146082 17.66439355 104.05580994 14.10308922 73.18334961 10.38275146 C66.62015604 9.59362295 60.05523995 8.81908211 53.49005127 8.04675293 C51.54065591 7.81728569 49.59137161 7.58687553 47.64208984 7.35644531 C31.77084054 5.48779635 15.8852643 3.74477033 0 2 C0 1.34 0 0.68 0 0 Z " fill="#80817D" transform="translate(570,268)"/>
<path d="M0 0 C6.65959439 0.45811314 13.18757295 1.11942003 19.7565918 2.30712891 C45.74552747 6.98798655 72.35782107 8.60600355 98.68603516 10.21362305 C124.35084328 11.85034663 150.80660954 13.68305172 176 19 C176 19.33 176 19.66 176 20 C168.20023843 20.29097556 160.61986026 19.47205199 152.8934021 18.51953125 C136.52483942 16.5195154 120.13298895 15.1835413 103.6875 14 C75.66281792 11.96360011 47.71675335 9.68751719 19.9375 5.375 C19.26206146 5.27067657 18.58662292 5.16635315 17.89071655 5.05886841 C11.73083052 4.09578804 5.88904686 3.09312482 0 1 C0 0.67 0 0.34 0 0 Z " fill="#959691" transform="translate(368,239)"/>
<path d="M0 0 C0.64904297 0.08765625 1.29808594 0.1753125 1.96679688 0.265625 C4.98209363 0.68352946 7.98340188 1.14460836 10.97851562 1.68969727 C22.63322336 3.7839683 34.43827594 4.79081406 46.21044922 5.99731445 C56.96965707 7.10505997 67.65467432 8.31414795 78.31124878 10.17982483 C85.28428002 11.40001866 92.28518813 12.27572993 99.3125 13.125 C109.71171724 14.42990364 120.08086188 15.86310983 130.42590332 17.5479126 C132.41033246 17.87058253 134.3960809 18.1851046 136.38183594 18.49951172 C137.57325195 18.69818848 138.76466797 18.89686523 139.9921875 19.1015625 C141.04647949 19.27510254 142.10077148 19.44864258 143.18701172 19.62744141 C143.97092285 19.83288574 144.75483398 20.03833008 145.5625 20.25 C145.8925 20.91 146.2225 21.57 146.5625 22.25 C142.33280701 21.7964453 138.10386022 21.33624957 133.875 20.875 C132.69615234 20.74867188 131.51730469 20.62234375 130.30273438 20.4921875 C123.36374125 19.7317499 116.47393612 18.8173801 109.57983398 17.72314453 C105.20803057 17.03760727 100.82416264 16.4562328 96.4375 15.875 C90.5346929 15.08748607 84.63984155 14.27508771 78.7578125 13.34375 C61.67198326 10.65899084 44.54262412 8.75923121 27.33984375 7.00048828 C26.36628937 6.8991156 25.39273499 6.79774292 24.38967896 6.69329834 C22.56224636 6.50323134 20.73436575 6.31740057 18.90597534 6.13677979 C14.02520892 5.62656311 9.3175105 4.85094557 4.54350281 3.70892334 C1.55325109 3.01619524 -1.46475396 2.57229942 -4.5 2.125 C-6.18802734 1.87363281 -6.18802734 1.87363281 -7.91015625 1.6171875 C-9.16119141 1.43542969 -9.16119141 1.43542969 -10.4375 1.25 C-6.64547162 -1.27801892 -4.26859812 -0.64370942 0 0 Z " fill="#80817C" transform="translate(580.4375,241.75)"/>
<path d="M0 0 C16.55747887 -0.70540738 32.76446406 0.87690444 49.21972656 2.50244141 C59.51027686 3.51478387 69.74784958 4.37179293 80.08666992 4.70678711 C86.2818614 4.9193703 92.37586664 5.52007093 98.52734375 6.27001953 C103.53735951 6.87153624 108.52326693 7.25035524 113.5625 7.5 C122.09508898 7.92422251 130.52990785 8.90811077 139 10 C139 10.33 139 10.66 139 11 C99.16866761 12.00838816 58.67506595 7.11118967 19.04495239 3.55758667 C17.05893498 3.3802621 15.07231908 3.20968089 13.08569336 3.03930664 C11.92303955 2.93094482 10.76038574 2.82258301 9.5625 2.7109375 C8.57378906 2.62118652 7.58507812 2.53143555 6.56640625 2.43896484 C4.02056938 2.00351824 2.22392008 1.28611454 0 0 Z " fill="#B0B1AD" transform="translate(428,322)"/>
<path d="M0 0 C1.34501164 0.08257289 2.69002824 0.16506513 4.03504944 0.2474823 C6.84133277 0.42049143 9.64739974 0.59663392 12.45336914 0.7746582 C15.28313642 0.95375228 18.11315432 1.12719682 20.94360352 1.29516602 C37.33449874 2.26886412 53.57231089 3.52090596 69.78515625 6.23046875 C69.78515625 6.56046875 69.78515625 6.89046875 69.78515625 7.23046875 C59.94730692 7.42692204 50.44398768 6.83946181 40.66015625 5.79296875 C29.2938252 4.6365947 17.99445579 3.88888999 6.56884766 3.57666016 C-3.28951325 3.29909876 -13.12169317 2.76504184 -22.96484375 2.16796875 C-24.11457672 2.09846512 -24.11457672 2.09846512 -25.28753662 2.02755737 C-29.59691991 1.7663069 -33.9059979 1.50045936 -38.21484375 1.23046875 C-38.21484375 0.90046875 -38.21484375 0.57046875 -38.21484375 0.23046875 C-36.46552697 0.05677772 -34.71532051 -0.10794878 -32.96484375 -0.26953125 C-31.9903125 -0.36234375 -31.01578125 -0.45515625 -30.01171875 -0.55078125 C-19.98626339 -1.1283795 -10.01136163 -0.62526405 0 0 Z " fill="#878884" transform="translate(698.21484375,339.76953125)"/>
<path d="M0 0 C5.84108147 0.67284578 11.07145699 2.69709437 16.5625 4.6875 C25.25194614 7.78010646 33.97177051 10.5253027 42.85791016 12.9909668 C47.26514606 14.21510574 51.61605122 15.49366643 55.9375 17 C62.48556515 19.2579535 69.17218183 20.99165736 75.859375 22.7824707 C80.92567324 24.14377881 85.94404102 25.57451387 90.9375 27.1875 C97.84752137 29.37781181 104.8765751 30.69945769 112 32 C109.67332321 33.4546782 108.40150221 34.03605242 105.63183594 33.78735352 C104.75817383 33.57006592 103.88451172 33.35277832 102.984375 33.12890625 C101.99308594 32.8880127 101.00179687 32.64711914 99.98046875 32.39892578 C98.91441406 32.12290527 97.84835938 31.84688477 96.75 31.5625 C95.63753906 31.28390137 94.52507812 31.00530273 93.37890625 30.71826172 C73.3422272 25.62702081 53.64229194 19.4260133 34 13 C32.91992676 12.64728027 31.83985352 12.29456055 30.72705078 11.93115234 C27.5038166 10.87590121 24.28270318 9.81446162 21.0625 8.75 C20.09828125 8.43297119 19.1340625 8.11594238 18.140625 7.78930664 C11.99816924 5.74414807 5.98323296 3.4722358 0 1 C0 0.67 0 0.34 0 0 Z " fill="#535451" transform="translate(80,257)"/>
<path d="M0 0 C7.71389878 -0.18914235 15.19183043 0.5517894 22.8515625 1.42578125 C24.19603405 1.57590723 25.540548 1.7256539 26.88510132 1.87504578 C29.70109621 2.18896267 32.51669718 2.50613952 35.33203125 2.82592773 C38.86654495 3.22733754 42.40169921 3.62269862 45.9371376 4.01587105 C59.03983021 5.4740164 72.13654903 6.97158439 85.2109375 8.66796875 C86.14144928 8.7884407 87.07196106 8.90891266 88.03067017 9.03303528 C92.05230489 9.56557478 96.03514003 10.12490096 100 11 C100 11.33 100 11.66 100 12 C91.99116459 12.24266056 84.23816392 11.60625227 76.29190063 10.63269043 C72.52689759 10.17165405 68.75929142 9.7325421 64.9921875 9.2890625 C64.15925674 9.19036865 63.32632599 9.0916748 62.46815491 8.98999023 C51.1611017 7.65485924 39.84350909 6.41292653 28.52700806 5.16094971 C24.82742377 4.75165107 21.12793177 4.34152791 17.4284668 3.93115234 C11.61904823 3.2867988 5.80955609 2.64311239 0 2 C0 1.34 0 0.68 0 0 Z " fill="#A6A7A2" transform="translate(570,268)"/>
<path d="M0 0 C4.80771892 -0.13549303 8.98422148 0.26917621 13.65625 1.390625 C14.91373047 1.68614258 16.17121094 1.98166016 17.46679688 2.28613281 C18.12413818 2.44359985 18.78147949 2.60106689 19.45874023 2.76330566 C22.94627271 3.59483251 26.44171495 4.39149907 29.9375 5.1875 C30.63435913 5.34623596 31.33121826 5.50497192 32.04919434 5.66851807 C50.67413421 9.88526778 69.33738884 12.00794588 88.33349609 13.67529297 C93.70426287 14.15093019 99.07069016 14.66946093 104.4375 15.1875 C106.12366393 15.34801369 107.80985786 15.50821282 109.49609375 15.66796875 C111.23052734 15.83232422 111.23052734 15.83232422 113 16 C105.54672703 20.28473181 95.30500359 17.79778016 87.125 16.875 C85.97443115 16.74520752 84.8238623 16.61541504 83.63842773 16.48168945 C55.51859188 13.14474532 27.43155026 8.02353702 0 1 C0 0.67 0 0.34 0 0 Z " fill="#3E3F3A" transform="translate(312,203)"/>
<path d="M0 0 C9.80901944 0.49689485 19.35673377 2.44704508 28.98400879 4.26708984 C47.26779611 7.71648231 65.52873563 10.74046194 84 13 C84 13.33 84 13.66 84 14 C74.5695565 15.5811522 65.92946186 14.06977905 56.625 12.5 C54.96150118 12.22854148 53.29792561 11.95755284 51.63427734 11.68701172 C34.35130169 8.84216164 17.16525645 5.47772501 0 2 C0 1.34 0 0.68 0 0 Z " fill="#888885" transform="translate(190,290)"/>
<path d="M0 0 C6.66213515 0.45828792 13.19211914 1.12149097 19.76391602 2.30761719 C39.66445926 5.89780505 59.87144088 7.27821443 80 9 C80 9.33 80 9.66 80 10 C71.43479815 11.15985966 63.38811669 10.77328311 54.8125 9.875 C54.15557159 9.80886505 53.49864319 9.7427301 52.82180786 9.67459106 C41.98009435 8.57895431 31.20421303 7.11073381 20.4375 5.4375 C19.40878281 5.27903595 19.40878281 5.27903595 18.35928345 5.11737061 C12.04703715 4.13557761 6.03197919 3.15334561 0 1 C0 0.67 0 0.34 0 0 Z " fill="#71726D" transform="translate(368,239)"/>
<path d="M0 0 C7.33090572 0.8829617 14.43627997 2.03613667 21.59375 3.84375 C32.14849205 6.41250461 42.8384645 8.06303261 53.5625 9.75 C55.55673166 10.06844083 57.55087296 10.38744807 59.54492188 10.70703125 C64.36226835 11.47786393 69.18075918 12.24110475 74 13 C74 13.33 74 13.66 74 14 C67.16509965 14.99666617 61.32612313 14.90908381 54.57421875 13.5234375 C53.28043304 13.27506134 53.28043304 13.27506134 51.96051025 13.02166748 C49.19976529 12.48728366 46.44372812 11.93217093 43.6875 11.375 C41.79447977 11.00179382 39.90133146 10.62923672 38.00805664 10.25732422 C28.29321584 8.3349874 18.58479683 6.36453529 8.9375 4.125 C8.10758545 3.93470215 7.2776709 3.7444043 6.42260742 3.54833984 C4.59675728 3.10131649 2.79370389 2.56230328 1 2 C0.67 1.34 0.34 0.68 0 0 Z " fill="#737370" transform="translate(253,232)"/>
<path d="M0 0 C20.69595809 -1.27403299 41.64524111 2.53430256 62 6 C60 8 60 8 57.70263672 8.046875 C56.74631348 7.94890625 55.78999023 7.8509375 54.8046875 7.75 C53.72413086 7.64042969 52.64357422 7.53085938 51.53027344 7.41796875 C44.10795194 6.53919874 36.70899229 5.50623433 29.30859375 4.4609375 C21.8422336 3.43268235 14.45222107 2.69154434 6.92138672 2.34375 C4.12095145 2.01423196 2.39189571 1.44284618 0 0 Z " fill="#888984" transform="translate(421,220)"/>
<path d="M0 0 C9.57069924 -0.20106084 18.91997069 0.39836157 28.4375 1.375 C30.39139648 1.56449219 30.39139648 1.56449219 32.38476562 1.7578125 C40.96390697 2.61188332 49.47604312 3.71102351 58 5 C58 5.33 58 5.66 58 6 C46.87641929 6.28734853 36.00382945 5.54136327 24.94335938 4.40087891 C22.21328569 4.12123938 19.481891 3.85887873 16.75 3.59765625 C15.00510587 3.42289505 13.2603098 3.24715126 11.515625 3.0703125 C10.7032135 2.99313995 9.890802 2.91596741 9.05377197 2.8364563 C5.33534189 2.44131398 3.16418851 2.10945901 0 0 Z " fill="#A4A4A1" transform="translate(403,257)"/>
<path d="M0 0 C2.18223962 0.28454405 4.36538371 0.56105004 6.54882812 0.83618164 C18.04313775 2.30116359 18.04313775 2.30116359 22.92382812 3.34594727 C22.59382813 4.00594727 22.26382813 4.66594727 21.92382812 5.34594727 C15.09916262 4.95713574 8.35566271 4.48992301 1.61132812 3.34594727 C-4.31108032 2.36372965 -10.17622845 1.95413577 -16.1652832 1.68774414 C-20.2068229 1.50027715 -24.10029969 1.09881195 -28.07617188 0.34594727 C-28.07617188 0.01594727 -28.07617188 -0.31405273 -28.07617188 -0.65405273 C-18.87115017 -3.02954221 -9.2619399 -1.20812475 0 0 Z " fill="#91928D" transform="translate(484.076171875,263.654052734375)"/>
<path d="M0 0 C6.36485259 1.69087877 12.6896159 3.49313505 19 5.375 C30.9112045 8.91463767 42.94238793 12.00270483 55 15 C55 15.33 55 15.66 55 16 C46.64594543 15.54119369 38.88444037 13.96582198 30.8125 11.8125 C29.63445801 11.50223877 28.45641602 11.19197754 27.24267578 10.87231445 C18.34164697 8.47578968 9.34722197 5.9766264 1 2 C0.67 1.34 0.34 0.68 0 0 Z " fill="#62625F" transform="translate(175,209)"/>
<path d="M0 0 C6.8580299 0.37407436 12.95235409 2.06409322 19.47827148 4.0546875 C25.92406607 6.01254544 32.41498463 7.57813433 39 9 C40.7709755 9.39519677 42.54182544 9.79095702 44.3125 10.1875 C45.529375 10.455625 46.74625 10.72375 48 11 C45.61630876 12.51030956 44.36770568 13.03624553 41.52075195 12.75561523 C40.60253662 12.52559814 39.68432129 12.29558105 38.73828125 12.05859375 C37.70904541 11.8069043 36.67980957 11.55521484 35.61938477 11.29589844 C34.52811279 11.01262695 33.43684082 10.72935547 32.3125 10.4375 C31.19866943 10.1580957 30.08483887 9.87869141 28.93725586 9.59082031 C22.28757932 7.90338169 15.65687582 6.14255302 9.0625 4.25 C8.36616455 4.05204834 7.6698291 3.85409668 6.95239258 3.65014648 C4.01228483 2.77294383 2.20429569 2.20429569 0 0 Z " fill="#70716C" transform="translate(144,278)"/>
<path d="M0 0 C23.35811064 0.60093027 46.67175035 1.68721269 70 3 C70 3.33 70 3.66 70 4 C58.78 4.33 47.56 4.66 36 5 C36 4.34 36 3.68 36 3 C34.5773584 2.970271 34.5773584 2.970271 33.12597656 2.93994141 C29.59967636 2.86174239 26.07379639 2.77504634 22.54785156 2.68261719 C21.02319342 2.64438734 19.49844693 2.609524 17.97363281 2.578125 C15.77897619 2.53234338 13.5849246 2.47437234 11.390625 2.4140625 C10.7113092 2.40251129 10.03199341 2.39096008 9.33209229 2.37905884 C5.7416264 2.26765084 3.06381512 1.94041624 0 0 Z " fill="#B5B1A9" transform="translate(620,357)"/>
<path d="M0 0 C1.19278564 0.04632568 2.38557129 0.09265137 3.61450195 0.14038086 C12.85614278 0.54034654 21.97325281 1.3579796 31.125 2.6875 C31.125 3.0175 31.125 3.3475 31.125 3.6875 C14.08203466 4.11896748 -2.88104948 2.82466416 -19.875 1.6875 C-19.875 1.3575 -19.875 1.0275 -19.875 0.6875 C-13.22554544 -0.59420646 -6.74243406 -0.28021356 0 0 Z " fill="#B2B3AE" transform="translate(535.875,329.3125)"/>
<path d="M0 0 C6.23612926 -0.13637658 11.99043533 0.30034577 18.125 1.375 C19.77969691 1.65124733 21.43464977 1.9259655 23.08984375 2.19921875 C24.31743408 2.40297119 24.31743408 2.40297119 25.56982422 2.61083984 C31.36099951 3.53821913 37.1823475 4.26083638 43 5 C43 5.33 43 5.66 43 6 C34.81067019 7.51212235 27.20838803 6.44157792 19.11083984 5.04907227 C16.9785855 4.68383184 14.84349485 4.34161231 12.70703125 4.00195312 C2.28149085 2.28149085 2.28149085 2.28149085 0 0 Z " fill="#838381" transform="translate(231,298)"/>
<path d="M0 0 C7.05319457 -0.24686654 13.53269855 0.39880829 20.4375 1.8125 C21.35039795 1.99264648 22.2632959 2.17279297 23.20385742 2.35839844 C29.54603207 3.63485357 35.81546556 5.08815329 42 7 C42 7.33 42 7.66 42 8 C36.64446475 8.11765528 31.82850222 7.77686803 26.54296875 6.7578125 C25.87332596 6.62937958 25.20368317 6.50094666 24.51374817 6.36862183 C23.11400651 6.09818804 21.71497108 5.82407432 20.31665039 5.54638672 C18.17724162 5.12296973 16.03526274 4.71507039 13.89257812 4.30859375 C12.52586306 4.04258269 11.15931978 3.77568713 9.79296875 3.5078125 C8.5608667 3.26691895 7.32876465 3.02602539 6.05932617 2.77783203 C3 2 3 2 0 0 Z " fill="#9C9D98" transform="translate(531,234)"/>
<path d="M0 0 C10.65521265 -0.60694249 20.96015336 1.08450666 31.47070312 2.63623047 C34.97503571 3.14023197 38.48526863 3.57509703 42 4 C40 6 40 6 36.80078125 6.2421875 C30.21883527 6.07269533 23.69898095 5.03357874 17.1875 4.125 C15.85225384 3.94891289 14.51696762 3.77312929 13.18164062 3.59765625 C11.91900391 3.42363281 10.65636719 3.24960937 9.35546875 3.0703125 C7.63299927 2.83465576 7.63299927 2.83465576 5.87573242 2.59423828 C3 2 3 2 0 0 Z " fill="#A5A5A2" transform="translate(269,304)"/>
<path d="M0 0 C0.68771484 0.00451172 1.37542969 0.00902344 2.08398438 0.01367188 C2.78716797 0.01560547 3.49035156 0.01753906 4.21484375 0.01953125 C12.18811201 0.08286701 20.1318949 0.58753696 28.08398438 1.13867188 C28.08398438 1.46867188 28.08398438 1.79867187 28.08398438 2.13867188 C10.40380161 3.06985954 -7.21565669 3.26180151 -24.91601562 3.13867188 C-24.91601562 2.80867187 -24.91601562 2.47867188 -24.91601562 2.13867188 C-24.34568604 2.11361572 -23.77535645 2.08855957 -23.18774414 2.06274414 C-20.61775406 1.94710639 -18.04816035 1.82423563 -15.47851562 1.70117188 C-14.58068359 1.66185547 -13.68285156 1.62253906 -12.7578125 1.58203125 C-11.90380859 1.54013672 -11.04980469 1.49824219 -10.16992188 1.45507812 C-9.3791626 1.41842041 -8.58840332 1.3817627 -7.77368164 1.34399414 C-5.03311382 1.04108738 -3.1042743 0.00949319 0 0 Z " fill="#B6B4AB" transform="translate(771.916015625,164.861328125)"/>
<path d="M0 0 C7.94654605 -0.20752677 15.67202242 0.60399692 23.5625 1.5 C24.85736328 1.64308594 26.15222656 1.78617187 27.48632812 1.93359375 C30.6580635 2.28470837 33.82923028 2.64028681 37 3 C37 3.33 37 3.66 37 4 C28.76316464 5.31175706 21.11164847 4.59869507 12.875 3.5625 C11.63234375 3.41490234 10.3896875 3.26730469 9.109375 3.11523438 C6.07162858 2.75304153 3.03542163 2.38110482 0 2 C0 1.34 0 0.68 0 0 Z " fill="#7E7F7A" transform="translate(570,268)"/>
<path d="M0 0 C3.97935485 0.31013236 7.95844547 0.62353991 11.9375 0.9375 C13.05447266 1.02451172 14.17144531 1.11152344 15.32226562 1.20117188 C21.56391121 1.69537842 27.78166031 2.26804273 34 3 C34 3.33 34 3.66 34 4 C22.71433734 6.37592898 11.29576324 4.37813233 0 3 C0 2.01 0 1.02 0 0 Z " fill="#9E9F9A" transform="translate(400,318)"/>
<path d="M0 0 C0.96099609 0.14308594 1.92199219 0.28617187 2.91210938 0.43359375 C5.2548455 0.78325586 7.59651777 1.1388144 9.9375 1.5 C9.9375 1.83 9.9375 2.16 9.9375 2.5 C-2.80459104 2.90379866 -15.38785895 1.67467711 -28.0625 0.5 C-28.0625 0.17 -28.0625 -0.16 -28.0625 -0.5 C-18.41695136 -1.90298889 -9.62665625 -1.48720786 0 0 Z " fill="#5B5C58" transform="translate(758.0625,344.5)"/>
<path d="M0 0 C0.7945459 0.04632568 1.5890918 0.09265137 2.40771484 0.14038086 C8.49449414 0.53648497 14.42052951 1.3365959 20.375 2.6875 C20.375 3.3475 20.375 4.0075 20.375 4.6875 C19.46959473 4.60447632 19.46959473 4.60447632 18.54589844 4.51977539 C2.46574384 3.04282212 2.46574384 3.04282212 -13.625 1.6875 C-13.625 1.3575 -13.625 1.0275 -13.625 0.6875 C-9.0046359 -0.53662037 -4.71613841 -0.29457423 0 0 Z " fill="#6E6F6A" transform="translate(747.625,286.3125)"/>
<path d="M0 0 C6.96508208 0.76022206 13.9223675 1.57064365 20.875 2.4375 C21.90625 2.55931641 22.9375 2.68113281 24 2.80664062 C25.48113281 2.99323242 25.48113281 2.99323242 26.9921875 3.18359375 C28.32805908 3.34686157 28.32805908 3.34686157 29.69091797 3.51342773 C32 4 32 4 35 6 C24.25269955 6.45986864 14.49244885 5.13405739 4 3 C4 2.34 4 1.68 4 1 C2.68 0.67 1.36 0.34 0 0 Z " fill="#797A75" transform="translate(656,252)"/>
<path d="M0 0 C1.04994141 0.07238892 1.04994141 0.07238892 2.12109375 0.14624023 C8.7821993 0.68398573 15.11277647 2.0564965 21.5625 3.8125 C21.5625 4.1425 21.5625 4.4725 21.5625 4.8125 C14.24623739 4.99713754 7.24679971 4.2822345 0 3.3125 C-1.10408203 3.16941406 -2.20816406 3.02632812 -3.34570312 2.87890625 C-6.0436765 2.5285201 -8.7408556 2.17294731 -11.4375 1.8125 C-7.52133084 -0.36969463 -4.38102632 -0.34096628 0 0 Z " fill="#8E8F8A" transform="translate(638.4375,249.1875)"/>
<path d="M0 0 C11.71389465 -0.12330415 23.31433979 0.1716494 35 1 C35 1.33 35 1.66 35 2 C24.07510909 3.30168913 12.91601732 3.68182825 2 2 C1.34 1.34 0.68 0.68 0 0 Z " fill="#7C7D78" transform="translate(443,249)"/>
<path d="M0 0 C10.76734025 0.6346603 21.35549183 2.32119997 32 4 C32 4.33 32 4.66 32 5 C24.73313585 6.1786133 18.69527642 5.59880754 11.5 4.1875 C10.4996875 4.00896484 9.499375 3.83042969 8.46875 3.64648438 C3.03613622 2.62417866 3.03613622 2.62417866 1 2 C0.67 1.34 0.34 0.68 0 0 Z " fill="#52534E" transform="translate(368,239)"/>
<path d="M0 0 C0 0.33 0 0.66 0 1 C-10.52670777 1.30028643 -20.58696894 0.41193641 -31 -1 C-31 -1.33 -31 -1.66 -31 -2 C-21.10059213 -4.50308222 -9.82787101 -2.10451292 0 0 Z " fill="#8D8E8A" transform="translate(696,282)"/>
<path d="M0 0 C0 0.33 0 0.66 0 1 C-7.53595866 2.28453841 -14.88591104 1.89909844 -22.5 1.5625 C-23.799375 1.51029297 -25.09875 1.45808594 -26.4375 1.40429688 C-29.62528846 1.27537896 -32.81270218 1.14044748 -36 1 C-36 0.67 -36 0.34 -36 0 C-23.9762532 -1.50008357 -12.05731063 -0.6814397 0 0 Z " fill="#9FA09B" transform="translate(590,333)"/>
<path d="M0 0 C19.34042553 -0.19148936 19.34042553 -0.19148936 29 1 C20.68059811 5.73248143 8.99632897 2.34345179 0 1 C0 0.67 0 0.34 0 0 Z " fill="#5E5F5C" transform="translate(396,218)"/>
<path d="M0 0 C0 0.33 0 0.66 0 1 C-2.31 1.33 -4.62 1.66 -7 2 C-7 2.33 -7 2.66 -7 3 C-16.57 2.67 -26.14 2.34 -36 2 C-36 1.67 -36 1.34 -36 1 C-23.98168818 0.20446163 -12.04394251 -0.12812705 0 0 Z " fill="#63605A" transform="translate(282,181)"/>
<path d="M0 0 C9.94396878 -0.25068829 19.1776452 0.3049249 29 2 C29 2.33 29 2.66 29 3 C19.05603122 3.25068829 9.8223548 2.6950751 0 1 C0 0.67 0 0.34 0 0 Z " fill="#ACADA9" transform="translate(432,260)"/>
<path d="M0 0 C7.85546636 -0.31918373 15.26940505 0.64290496 23 2 C22.67 2.66 22.34 3.32 22 4 C14.6379306 3.5140207 7.30899482 3.02325928 0 2 C0 1.34 0 0.68 0 0 Z " fill="#989896" transform="translate(484,265)"/>
<path d="M0 0 C3.0000624 -0.02721831 5.99987256 -0.04694378 9 -0.0625 C9.83917969 -0.07087891 10.67835938 -0.07925781 11.54296875 -0.08789062 C16.79319339 -0.10824033 21.80455662 0.23631793 27 1 C27 1.33 27 1.66 27 2 C18.29256908 3.35115307 7.95905433 4.28813037 0 0 Z " fill="#797A75" transform="translate(421,220)"/>
<path d="M0 0 C7.40096336 -0.10295003 14.68080976 -0.19986725 22 1 C22.66 1.66 23.32 2.32 24 3 C15.7574683 3.26305952 8.08808989 2.60614551 0 1 C0 0.67 0 0.34 0 0 Z " fill="#AFAFAC" transform="translate(333,312)"/>
<path d="M0 0 C8.44430279 0.51755404 16.68086307 1.4560881 25 3 C21.16784392 5.55477072 19.78186357 4.96509817 15.3125 4.25 C14.06855469 4.05148438 12.82460938 3.85296875 11.54296875 3.6484375 C7.62811617 2.93193747 3.83102114 2.07268592 0 1 C0 0.67 0 0.34 0 0 Z " fill="#81817E" transform="translate(278,238)"/>
<path d="M0 0 C2.32104492 0.30053711 2.32104492 0.30053711 5 1 C5.79317627 1.18892822 6.58635254 1.37785645 7.40356445 1.57250977 C8.215271 1.77674561 9.02697754 1.98098145 9.86328125 2.19140625 C10.74951172 2.41376953 11.63574219 2.63613281 12.54882812 2.86523438 C13.46083984 3.09533203 14.37285156 3.32542969 15.3125 3.5625 C16.24384766 3.79646484 17.17519531 4.03042969 18.13476562 4.27148438 C20.42344778 4.84658912 22.71184706 5.42279394 25 6 C25 6.33 25 6.66 25 7 C15.64942777 6.60378931 6.98595695 4.42406618 -2 2 C-1.34 1.34 -0.68 0.68 0 0 Z " fill="#565754" transform="translate(205,218)"/>
<path d="M0 0 C6.95660771 0.57021375 13.31427305 2.01302694 20 4 C19.34 4.66 18.68 5.32 18 6 C11.74152688 5.59285026 5.75777298 3.34575936 0 1 C0 0.67 0 0.34 0 0 Z " fill="#656661" transform="translate(144,278)"/>
<path d="M0 0 C7.63054095 0.61044328 14.70189474 2.79621821 22 5 C19 7 19 7 16.58203125 6.64453125 C15.66808594 6.36996094 14.75414062 6.09539062 13.8125 5.8125 C12.3584375 5.379375 12.3584375 5.379375 10.875 4.9375 C7.19679994 3.73808694 3.59675176 2.42512805 0 1 C0 0.67 0 0.34 0 0 Z " fill="#5C5C5A" transform="translate(125,272)"/>
<path d="M0 0 C5.77759884 -0.12036664 11.27959989 0.1679418 17 1 C17 1.66 17 2.32 17 3 C11.39 3 5.78 3 0 3 C0 2.01 0 1.02 0 0 Z " fill="#9A9B96" transform="translate(506,327)"/>
<path d="M0 0 C6.86515862 -0.26404456 13.25846717 0.74158054 20 2 C15.77785814 4.81476124 12.83536247 3.84735452 8 3 C5.30428422 2.40836601 2.66422603 1.7266071 0 1 C0 0.67 0 0.34 0 0 Z " fill="#949492" transform="translate(514,231)"/>
<path d="M0 0 C1.02577148 0.07831055 1.02577148 0.07831055 2.07226562 0.15820312 C3.73621169 0.28619898 5.3994473 0.42337719 7.0625 0.5625 C4.09301422 2.28198485 2.14797775 2.78289127 -1.265625 2.5390625 C-2.06484375 2.4875 -2.8640625 2.4359375 -3.6875 2.3828125 C-4.5125 2.31835938 -5.3375 2.25390625 -6.1875 2.1875 C-7.02796875 2.13078125 -7.8684375 2.0740625 -8.734375 2.015625 C-10.80279042 1.87459668 -12.8702646 1.71988212 -14.9375 1.5625 C-14.9375 1.2325 -14.9375 0.9025 -14.9375 0.5625 C-9.79660079 -0.33999856 -5.24023626 -0.41736395 0 0 Z " fill="#969693" transform="translate(364.9375,314.4375)"/>
<path d="M0 0 C2.27203802 0.2821289 4.54261684 0.57602856 6.8125 0.875 C8.70935547 1.11863281 8.70935547 1.11863281 10.64453125 1.3671875 C14 2 14 2 17 4 C15.2709226 4.02725341 13.54171824 4.04650987 11.8125 4.0625 C10.36810547 4.07990234 10.36810547 4.07990234 8.89453125 4.09765625 C6.14423487 4.00486622 3.67520409 3.62111685 1 3 C0.67 2.01 0.34 1.02 0 0 Z " fill="#8E8F8A" transform="translate(530,270)"/>
<path d="M0 0 C6.41688675 -0.10349817 12.62694402 0.25492456 19 1 C19 1.33 19 1.66 19 2 C12.43507888 2.78441153 6.53162622 3.10914408 0 2 C0 1.34 0 0.68 0 0 Z " fill="#595A55" transform="translate(570,268)"/>
<path d="M0 0 C6.35987804 -0.20190089 11.85221129 0.3722167 18 2 C18 2.33 18 2.66 18 3 C11.59370576 3.20852314 6.07027358 3.1583195 0 1 C0 0.67 0 0.34 0 0 Z " fill="#A2A2A0" transform="translate(231,298)"/>
<path d="M0 0 C1.90845703 0.16628906 1.90845703 0.16628906 3.85546875 0.3359375 C4.83128906 0.43132812 5.80710937 0.52671875 6.8125 0.625 C4.8125 2.625 4.8125 2.625 1.125 2.8125 C-2.71242934 2.72129967 -6.40394004 2.25559333 -10.1875 1.625 C-6.35207543 -0.93194972 -4.52847467 -0.41545639 0 0 Z " fill="#989994" transform="translate(304.1875,307.375)"/>
<path d="M0 0 C1.26328125 0.11085938 2.5265625 0.22171875 3.828125 0.3359375 C4.79234375 0.43132812 5.7565625 0.52671875 6.75 0.625 C2.98564408 3.11555871 -0.11617377 2.65590984 -4.5 2.25 C-5.76328125 2.13914062 -7.0265625 2.02828125 -8.328125 1.9140625 C-9.29234375 1.81867188 -10.2565625 1.72328125 -11.25 1.625 C-7.48564408 -0.86555871 -4.38382623 -0.40590984 0 0 Z " fill="#979893" transform="translate(635.25,274.375)"/>
<path d="M0 0 C0.87269531 0.10828125 1.74539063 0.2165625 2.64453125 0.328125 C5.13879356 0.69883927 7.60610418 1.11434098 10.0625 1.6875 C10.0625 2.0175 10.0625 2.3475 10.0625 2.6875 C3.62994599 2.80836218 -2.55523055 2.51101864 -8.9375 1.6875 C-5.71773639 -0.2532813 -3.70470403 -0.47379112 0 0 Z " fill="#80817C" transform="translate(533.9375,256.3125)"/>
<path d="M0 0 C3 2 3 2 3.58203125 4.05859375 C3.65808594 4.84363281 3.73414063 5.62867188 3.8125 6.4375 C3.90144531 7.21996094 3.99039063 8.00242187 4.08203125 8.80859375 C4 11 4 11 2 14 C-0.29612756 4.58997722 -0.29612756 4.58997722 0 0 Z " fill="#D7D3CA" transform="translate(792,313)"/>
<path d="M0 0 C4.29 0.33 8.58 0.66 13 1 C9.38863788 2.80568106 8.455469 3.24851563 4.75 3.125 C2.89375 3.063125 2.89375 3.063125 1 3 C0.67 2.01 0.34 1.02 0 0 Z " fill="#949591" transform="translate(394,255)"/>
<path d="M0 0 C0.99 0.99 1.98 1.98 3 3 C-2.28 2.67 -7.56 2.34 -13 2 C-13 1.67 -13 1.34 -13 1 C-8.60590108 0.14261484 -4.47621945 -0.33782788 0 0 Z " fill="#969792" transform="translate(493,326)"/>
<path d="M0 0 C1.07765625 0.11085937 2.1553125 0.22171875 3.265625 0.3359375 C4.08546875 0.43132812 4.9053125 0.52671875 5.75 0.625 C2.19181064 2.88773207 -0.37547951 2.69831744 -4.5 2.25 C-5.57765625 2.13914063 -6.6553125 2.02828125 -7.765625 1.9140625 C-8.99539063 1.77097656 -8.99539063 1.77097656 -10.25 1.625 C-6.69181064 -0.63773207 -4.12452049 -0.44831744 0 0 Z " fill="#90908C" transform="translate(602.25,245.375)"/>
<path d="M0 0 C0.89203125 0.11085938 1.7840625 0.22171875 2.703125 0.3359375 C3.37859375 0.43132812 4.0540625 0.52671875 4.75 0.625 C4.09 1.285 3.43 1.945 2.75 2.625 C-0.0703125 2.6015625 -0.0703125 2.6015625 -3.375 2.25 C-4.47070312 2.13914062 -5.56640625 2.02828125 -6.6953125 1.9140625 C-7.53835937 1.81867188 -8.38140625 1.72328125 -9.25 1.625 C-5.9353333 -0.40407167 -3.8184021 -0.50242133 0 0 Z " fill="#91918F" transform="translate(254.25,300.375)"/>
<path d="M0 0 C0.90105469 0.11085938 1.80210937 0.22171875 2.73046875 0.3359375 C3.76107422 0.47902344 3.76107422 0.47902344 4.8125 0.625 C1.36035147 2.92643236 0.57770676 2.76333854 -3.375 2.25 C-4.72658203 2.08371094 -4.72658203 2.08371094 -6.10546875 1.9140625 C-6.79253906 1.81867188 -7.47960937 1.72328125 -8.1875 1.625 C-4.73535147 -0.67643236 -3.95270676 -0.51333854 0 0 Z " fill="#7D7E79" transform="translate(218.1875,294.375)"/>
<path d="M0 0 C3.00617269 3.00617269 2.59585316 5.82381598 3 10 C2.34 10 1.68 10 1 10 C-0.83691257 6.21812119 -1.15837626 4.05431692 0 0 Z " fill="#DDD9CF" transform="translate(798,333)"/>
<path d="M0 0 C5.12583611 -0.10251672 9.94997778 -0.03590199 15 1 C15 1.33 15 1.66 15 2 C11.7 2.33 8.4 2.66 5 3 C5 2.67 5 2.34 5 2 C3.35 1.67 1.7 1.34 0 1 C0 0.67 0 0.34 0 0 Z " fill="#D2CEC7" transform="translate(477,347)"/>
<path d="M0 0 C1.258125 -0.04125 2.51625 -0.0825 3.8125 -0.125 C4.52019531 -0.14820313 5.22789062 -0.17140625 5.95703125 -0.1953125 C8 0 8 0 11 2 C6.99799622 3.60080151 3.95443764 2.29279692 0 1 C0 0.67 0 0.34 0 0 Z " fill="#767772" transform="translate(181,288)"/>
<path d="M0 0 C6.625 -0.125 6.625 -0.125 10 1 C10 1.66 10 2.32 10 3 C4.58461538 3.36923077 4.58461538 3.36923077 1.625 1.5 C1.08875 1.005 0.5525 0.51 0 0 Z " fill="#2A2823" transform="translate(648,356)"/>
</svg>
