<?xml version="1.0" encoding="UTF-8"?>
<svg version="1.1" xmlns="http://www.w3.org/2000/svg" viewBox="0 0 1024 501">
<path d="M0 0 C2.03527785 2.46700345 3 3.79999318 3 7 C3.66 7 4.32 7 5 7 C5 7.66 5 8.32 5 9 C8.6422096 10.21406987 12.10214709 10.30840543 15.90234375 10.45703125 C17.08061989 10.50460823 17.08061989 10.50460823 18.28269958 10.55314636 C20.83407109 10.64922745 23.38555734 10.73308158 25.9375 10.8125 C26.80280334 10.84045654 27.66810669 10.86841309 28.55963135 10.8972168 C39.26553525 11.21292382 49.20989674 11.11167976 59.6472168 8.41235352 C67.25644157 6.47606612 74.24143774 7.00308977 82 8 C82 8.66 82 9.32 82 10 C82.763125 10.144375 83.52625 10.28875 84.3125 10.4375 C87 11 87 11 90 12 C91.68545724 12.09287771 93.374493 12.12997204 95.0625 12.125 C96.37927734 12.12886719 96.37927734 12.12886719 97.72265625 12.1328125 C100.03198266 12.14833424 100.03198266 12.14833424 102 11 C104.94269525 10.8641977 107.86053126 10.7872425 110.8046875 10.76171875 C112.11797531 10.74961113 112.11797531 10.74961113 113.45779419 10.73725891 C115.31217467 10.72341779 117.16658063 10.71269576 119.02099609 10.70483398 C121.85693566 10.68760971 124.69171286 10.64372357 127.52734375 10.59960938 C129.32811642 10.58948345 131.12889901 10.58096703 132.9296875 10.57421875 C133.77771942 10.55671066 134.62575134 10.53920258 135.4994812 10.52116394 C141.38375902 10.54284313 141.38375902 10.54284313 144.50805664 12.8605957 C146.27154277 15.3893846 146.90597417 17.49402012 147.5625 20.5 C148.23982626 23.56269267 148.70371521 25.6059195 150.59765625 28.125 C152 30 152 30 151.875 33.5 C151.61186129 35.00526658 151.31589695 36.5049152 151 38 C150.80019531 39.00546875 150.60039063 40.0109375 150.39453125 41.046875 C148.31437355 50.47079387 148.31437355 50.47079387 144 54 C141.00177216 54.99940928 139.07550727 55.09771891 135.94921875 55.0703125 C123.02024989 55.14305224 113.97632625 55.99838799 103 63 C94.64298863 67.66808537 86.80825694 68.31446834 77.4375 68.5625 C71.21866893 68.75046467 65.14059932 68.95790671 59 70 C59 70.66 59 71.32 59 72 C56.12271532 73.43864234 53.72564231 73.02108274 50.515625 72.921875 C49.17320263 72.89454802 47.83075261 72.86855363 46.48828125 72.84375 C44.38838594 72.801083 42.28996755 72.7514027 40.19091797 72.67773438 C30.81738878 72.36341244 23.49227732 73.31783413 14.78417969 76.91503906 C12 78 12 78 9 78 C9 78.66 9 79.32 9 80 C8.34 80 7.68 80 7 80 C7.1546875 81.3303125 7.1546875 81.3303125 7.3125 82.6875 C7 86 7 86 4.75 88.75 C-3.5766639 95.56272501 -14.79702272 94.09915324 -25.06640625 94.328125 C-28 94 -28 94 -29.84375 92.70703125 C-31 91 -31 91 -31.9375 87.4375 C-32.60756915 83.94226702 -32.60756915 83.94226702 -35 82.75 C-35.66 82.5025 -36.32 82.255 -37 82 C-37.66 81.01 -38.32 80.02 -39 79 C-38.34 78.113125 -37.68 77.22625 -37 76.3125 C-34.94110538 72.90245578 -34.79294742 71.79812072 -35 68 C-35.64690922 69.6037331 -36.29248764 71.20800306 -36.9375 72.8125 C-37.29714844 73.70582031 -37.65679688 74.59914063 -38.02734375 75.51953125 C-38.73613486 77.3270909 -39.3860247 79.15807409 -40 81 C-39.236875 81.70125 -38.47375 82.4025 -37.6875 83.125 C-34.07131609 86.99347582 -32.10948217 90.02932102 -31.8125 95.375 C-31.9053125 96.674375 -31.9053125 96.674375 -32 98 C-33.175625 98.495 -34.35125 98.99 -35.5625 99.5 C-42.60864549 103.01057958 -48.19578152 109.88512819 -50.8046875 117.28125 C-52.35056745 122.16917518 -53.44630694 126.90602386 -54 132 C-58.4076787 133.68961017 -62.0378362 134.24721636 -66.75 134.1875 C-67.87921875 134.18105469 -69.0084375 134.17460937 -70.171875 134.16796875 C-73 134 -73 134 -75 133 C-87.7297722 130.51531184 -100.13155313 131.09963577 -113 132 C-113 131.34 -113 130.68 -113 130 C-113.88429688 129.74992188 -114.76859375 129.49984375 -115.6796875 129.2421875 C-119.12962806 127.95150386 -121.22616509 126.36462464 -124.125 124.125 C-135.71065258 116.20673536 -153.31695423 115.78962389 -166.91796875 116.08984375 C-174.66070915 116.17961779 -181.83973556 114.72390795 -189.375 113.0625 C-201.40554722 110.47984726 -212.75153041 108.8509227 -225.046875 108.48242188 C-229.36567178 108.31460939 -233.41414461 107.97985358 -237.62890625 107.00390625 C-244.83999718 105.43766753 -252.21494181 105.53218453 -259.5625 105.375 C-261.05015071 105.3367262 -262.53778149 105.29766938 -264.02539062 105.2578125 C-270.0119891 105.07654902 -270.0119891 105.07654902 -276 105 C-274.74703125 105.06058594 -273.4940625 105.12117188 -272.203125 105.18359375 C-270.55207276 105.26802256 -268.90103165 105.35266939 -267.25 105.4375 C-266.425 105.47681641 -265.6 105.51613281 -264.75 105.55664062 C-263.95078125 105.59853516 -263.1515625 105.64042969 -262.328125 105.68359375 C-261.5949707 105.72025146 -260.86181641 105.75690918 -260.10644531 105.79467773 C-257.98433341 106.00152708 -256.06317518 106.47585171 -254 107 C-251.37214071 107.20085549 -248.75616387 107.36964876 -246.125 107.5 C-242.40074208 107.68655837 -238.72993733 107.87141501 -235.05078125 108.51953125 C-232.58118234 108.90846936 -230.39348357 109.07342944 -227.91015625 109.10546875 C-216.29333296 109.27008207 -205.45746678 110.94968813 -194.09643555 113.35348511 C-182.65940172 115.74726236 -171.46863504 116.89801278 -159.79516602 117.41772461 C-153.53922603 117.7010857 -148.02663693 118.32818125 -142 120 C-140.19010919 120.1280467 -138.37661212 120.21686553 -136.5625 120.25 C-130.40496653 120.71906418 -126.77530256 123.29821507 -122 127 C-120.8190326 127.78080489 -119.63237103 128.55314271 -118.4375 129.3125 C-117.633125 129.869375 -116.82875 130.42625 -116 131 C-116 131.33 -116 131.66 -116 132 C-132.89535859 132.51838032 -132.89535859 132.51838032 -137.3125 130.4375 C-141.83644324 128.67392891 -144.74540064 129.23331856 -149.48046875 129.8046875 C-156.36495729 130.18673459 -163.19570273 128.97549759 -170 128 C-170 128.66 -170 129.32 -170 130 C-169.33613281 129.98839844 -168.67226563 129.97679687 -167.98828125 129.96484375 C-167.10527344 129.95582031 -166.22226562 129.94679688 -165.3125 129.9375 C-164.44238281 129.92589844 -163.57226562 129.91429687 -162.67578125 129.90234375 C-160 130 -160 130 -157.6640625 130.5078125 C-153.45830415 131.28482944 -149.22864535 131.00424397 -144.97070312 130.87304688 C-141.84592053 130.82269493 -139.30716569 130.88424362 -136.36523438 131.99291992 C-131.93093453 133.31992854 -127.84848117 133.27858922 -123.24609375 133.2734375 C-121.31965582 133.2937427 -119.39322358 133.31459377 -117.46679688 133.3359375 C-114.46113271 133.35840976 -111.45569514 133.37496431 -108.44995117 133.38085938 C-88.15982673 133.44780691 -88.15982673 133.44780691 -78.51879883 137.07373047 C-72.53802834 139.27311432 -66.23466655 139.12162485 -59.9453125 138.83984375 C-58 139 -58 139 -55 141 C-53.47245867 145.13334714 -52.7925459 149.2147445 -52.125 153.5625 C-51.43187002 157.98870797 -50.40780767 162.10377602 -49.0625 166.375 C-45.77641017 177.36555512 -43.83170444 189.51382811 -44 201 C-72.06064186 201.3798296 -72.06064186 201.3798296 -84.4375 200.125 C-85.22737305 200.04652832 -86.01724609 199.96805664 -86.83105469 199.88720703 C-91.10882722 199.39866703 -94.97201553 198.51927148 -99 197 C-99 196.34 -99 195.68 -99 195 C-99.66 195 -100.32 195 -101 195 C-102.5846874 188.44995876 -104 181.77803678 -104 175 C-106.24824282 177.6821539 -106.24824282 177.6821539 -105.79296875 180.0078125 C-105.49326172 181.05582031 -105.49326172 181.05582031 -105.1875 182.125 C-104.99542969 182.82882812 -104.80335938 183.53265625 -104.60546875 184.2578125 C-104.1399896 186.00527565 -104.1399896 186.00527565 -103 187 C-102.95936168 188.66617115 -102.957279 190.33388095 -103 192 C-109.60243677 194.92030857 -114.62504759 196.15697326 -121.921875 196.16796875 C-122.69952209 196.17129715 -123.47716919 196.17462555 -124.27838135 196.17805481 C-125.92923392 196.18311492 -127.58009671 196.18546342 -129.23095703 196.18530273 C-131.69972863 196.18745615 -134.16802817 196.20552795 -136.63671875 196.22460938 C-138.25260267 196.22755045 -139.86848868 196.22953046 -141.484375 196.23046875 C-142.19857605 196.23765427 -142.9127771 196.24483978 -143.64862061 196.25224304 C-148.70714405 196.23082526 -153.63044611 195.69475991 -158.63842773 195.01855469 C-166.52692947 193.96547724 -174.34164991 193.61794572 -182.30078125 193.47265625 C-183.73070346 193.43991378 -185.16060452 193.40623652 -186.59048462 193.3717041 C-189.60646865 193.29966609 -192.62250041 193.23142265 -195.63864136 193.16629028 C-203.59052079 192.99250943 -211.54142932 192.78111946 -219.4921875 192.5625 C-220.68310281 192.52982623 -220.68310281 192.52982623 -221.89807701 192.49649239 C-252.63298934 191.64097233 -283.3005899 189.74891621 -313.89453125 186.6875 C-329.03776313 185.18576007 -344.22819004 184.23572955 -359.4296875 183.57421875 C-375.89583487 182.84679205 -392.08108602 181.86165501 -408.40014648 179.46362305 C-416.59381975 178.26981696 -424.73803385 177.47435746 -433 176.9375 C-441.24473755 176.38992769 -449.43227857 175.71227872 -457.625 174.625 C-458.42808594 174.5230835 -459.23117187 174.42116699 -460.05859375 174.31616211 C-464.71289618 173.66247323 -469.18241902 172.70290825 -473.72903442 171.50498962 C-483.50545069 168.98107994 -492.90488661 168.35990087 -502.97247314 168.12994385 C-522.89111991 167.64627969 -542.32427348 165.67932098 -561.99560547 162.6171875 C-565.61874896 162.05371463 -569.2470829 161.53610072 -572.87890625 161.03125 C-597.4170874 157.55603806 -621.65541264 152.17437388 -645.74316406 146.3972168 C-652.97805244 144.66688813 -660.23059 143.13675313 -667.52954102 141.70117188 C-672.01120083 140.79569688 -676.4446252 139.75227176 -680.875 138.625 C-682.12990234 138.30909912 -682.12990234 138.30909912 -683.41015625 137.98681641 C-690.26612539 136.23781823 -697.04595717 134.2769516 -703.8125 132.2109375 C-706.9757939 131.26276172 -710.15752197 130.48202672 -713.37109375 129.72265625 C-720.94505349 127.85266022 -728.29586103 125.36096139 -735.68188477 122.86645508 C-738.06046637 122.06318677 -740.44113279 121.26637324 -742.82226562 120.47070312 C-751.66024632 117.5097144 -760.47382862 114.4963537 -769.1809082 111.16577148 C-773.41762753 109.54656984 -777.62741752 108.18424109 -782 107 C-782 106.34 -782 105.68 -782 105 C-782.9075 104.95875 -783.815 104.9175 -784.75 104.875 C-789.54386308 104.19153759 -793.46243293 101.9202724 -797.7109375 99.69921875 C-803.05126026 96.9402634 -808.52905476 94.48839767 -814 92 C-814 91.34 -814 90.68 -814 90 C-814.99 89.67 -815.98 89.34 -817 89 C-817 88.01 -817 87.02 -817 86 C-815.13671875 84.17578125 -815.13671875 84.17578125 -812.6875 82.3125 C-811.48673828 81.37857422 -811.48673828 81.37857422 -810.26171875 80.42578125 C-808 79 -808 79 -805 79 C-805 78.34 -805 77.68 -805 77 C-804.31035156 76.63648438 -803.62070312 76.27296875 -802.91015625 75.8984375 C-797.39644747 72.94871675 -792.10776505 69.86745533 -786.97265625 66.296875 C-783.82317759 64.22632665 -781.8253945 63 -778 63 C-778 62.34 -778 61.68 -778 61 C-776.96101562 60.48050781 -775.92203125 59.96101563 -774.8515625 59.42578125 C-774.18012207 59.08998047 -773.50868164 58.75417969 -772.81689453 58.40820312 C-771.35198538 57.67591171 -769.88681463 56.94414337 -768.42138672 56.21289062 C-765.20171173 54.60555121 -761.98583856 52.9927646 -758.78125 51.35546875 C-757.9046875 50.90816406 -757.028125 50.46085937 -756.125 50 C-755.36445312 49.608125 -754.60390625 49.21625 -753.8203125 48.8125 C-752 48 -752 48 -750 48 C-750 47.34 -750 46.68 -750 46 C-747.81690366 45.00988557 -745.62932734 44.03294432 -743.4375 43.0625 C-742.82841797 42.78470703 -742.21933594 42.50691406 -741.59179688 42.22070312 C-737.36406963 40.36408217 -733.59658658 39.46734921 -729 39 C-729 38.34 -729 37.68 -729 37 C-727.53240234 36.81824219 -727.53240234 36.81824219 -726.03515625 36.6328125 C-724.71080193 36.46460564 -723.38659214 36.29525835 -722.0625 36.125 C-721.37752441 36.03694092 -720.69254883 35.94888184 -719.98681641 35.8581543 C-716.22366732 35.35589779 -712.55776913 34.73162914 -708.875 33.8125 C-702.72782964 32.52357718 -700.11256675 33.84495995 -694.80859375 37.02734375 C-692.02200779 38.52596126 -689.04586875 39.17400169 -686 40 C-683.48578497 40.95210438 -681.0001309 41.96300161 -678.51171875 42.98046875 C-675.03344243 44.39233519 -671.52005853 45.69627462 -668 47 C-668 47.33 -668 47.66 -668 48 C-668.67804688 48.12117188 -669.35609375 48.24234375 -670.0546875 48.3671875 C-670.98539063 48.53476563 -671.91609375 48.70234375 -672.875 48.875 C-673.88046875 49.05546875 -674.8859375 49.2359375 -675.921875 49.421875 C-678.67078287 49.93816734 -681.39381311 50.52379534 -684.125 51.125 C-688.82639093 52.08938788 -693.20945876 52.15453359 -698 52 C-697.67 52.33 -697.34 52.66 -697 53 C-693.28777711 52.95828963 -689.58519901 52.87271591 -685.87695312 52.69726562 C-680.34755069 52.57519378 -677.4134181 53.36427672 -673 57 C-672.30132813 57.56203125 -671.60265625 58.1240625 -670.8828125 58.703125 C-670.01269531 59.46882813 -670.01269531 59.46882813 -669.125 60.25 C-668.23167969 61.03117187 -668.23167969 61.03117187 -667.3203125 61.828125 C-666.88460937 62.21484375 -666.44890625 62.6015625 -666 63 C-666.66 62.38125 -667.32 61.7625 -668 61.125 C-670 59 -670 59 -670 57 C-670.5775 56.7525 -671.155 56.505 -671.75 56.25 C-674.3002997 54.83316683 -676.01785701 53.12372463 -678 51 C-673.15291001 48.576455 -666.33790123 49.01684539 -660.96264648 48.63061523 C-659.29036392 48.50272434 -657.61927147 48.35807827 -655.94995117 48.19604492 C-642.04604872 46.85602613 -642.04604872 46.85602613 -636.98095703 49.68798828 C-634.59765625 51.84765625 -634.59765625 51.84765625 -632.71118164 54.03930664 C-625.80449091 61.9530794 -609.22689957 61.25038374 -599.59326172 61.921875 C-587.76843822 62.76142856 -587.76843822 62.76142856 -575.921875 62.98828125 C-572.61704086 62.99815625 -569.88181046 63.24716742 -566.6875 64 C-563.56424065 64.72423405 -561.27609664 65 -558 65 C-567.33917868 62.62664742 -575.94821529 61.59275771 -585.5914917 61.51919556 C-622.56738965 61.17015693 -622.56738965 61.17015693 -634 52 C-635.03125 51.2575 -636.0625 50.515 -637.125 49.75 C-637.74375 49.1725 -638.3625 48.595 -639 48 C-639 47.34 -639 46.68 -639 46 C-634.05 45.01 -629.1 44.02 -624 43 C-629.85783344 43 -631.6433105 43.02958752 -636.5625 45 C-642.91089697 47.08156307 -648.83669722 47.41564056 -655.5 47.4375 C-656.93388062 47.45200195 -656.93388062 47.45200195 -658.39672852 47.46679688 C-663.51381995 47.40522699 -666.76283153 47.11239284 -671 44 C-672.61033189 43.39678987 -674.2368839 42.83557446 -675.875 42.3125 C-683.33912607 39.70873509 -690.11153298 35.83002485 -697 32 C-697 31.01 -697 30.02 -697 29 C-690.30856146 25.65428073 -683.32406756 24.30228588 -676 23 C-675.0812207 22.83322754 -674.16244141 22.66645508 -673.21582031 22.49462891 C-657.83386564 19.78494377 -642.82082242 18.6378671 -627.24334717 18.40133667 C-616.581574 18.23868556 -606.16458416 17.66303238 -595.5625 16.4375 C-585.90427648 15.35792118 -576.32249368 14.63415566 -566.6076355 14.52420044 C-564.6855233 14.50073876 -562.76372769 14.45471445 -560.84204102 14.40795898 C-554.42342671 14.40487163 -549.81025138 14.8309958 -544.46630859 18.53320312 C-542.79012625 20.20994364 -542.01555335 21.87192022 -541 24 C-538.84112746 25.97350244 -538.84112746 25.97350244 -536.375 27.75 C-535.55773437 28.36359375 -534.74046875 28.9771875 -533.8984375 29.609375 C-533.27195312 30.06828125 -532.64546875 30.5271875 -532 31 C-532.20435519 29.07266476 -532.20435519 29.07266476 -533 27 C-534.77567645 25.58522544 -534.77567645 25.58522544 -536.9375 24.5 C-540.18600054 22.754889 -541.74395032 21.5248305 -543 18 C-543 16.68 -543 15.36 -543 14 C-542.07802826 13.97938507 -541.15605652 13.95877014 -540.20614624 13.93753052 C-500.18383097 13.040894 -460.16169585 12.13810023 -420.14539337 11.00008392 C-417.96280984 10.93821742 -415.78020585 10.8771252 -413.59759521 10.81622314 C-409.51159288 10.70194769 -405.42571412 10.58374579 -401.33984375 10.46484375 C-400.18996475 10.43260208 -399.04008575 10.40036041 -397.85536194 10.36714172 C-392.7087255 10.21356956 -387.56718333 10.0393932 -382.4263916 9.74804688 C-368.84244589 8.99102923 -355.30654707 8.90511239 -341.70357132 8.98596573 C-337.747 9.00840553 -333.7904466 9.02250207 -329.83383179 9.03366089 C-318.60009029 9.06661893 -307.36642855 9.10843103 -296.1328125 9.17138672 C-289.88888932 9.2062889 -283.64502248 9.22984437 -277.40101182 9.24159515 C-274.12355622 9.24825033 -270.84639579 9.26206625 -267.56901932 9.28662491 C-241.97252683 9.84157056 -241.97252683 9.84157056 -217 5 C-206.54151849 2.9560457 -196.05780154 2.80625587 -185.4375 2.8125 C-184.12934326 2.8117749 -182.82118652 2.8110498 -181.47338867 2.81030273 C-171.88659877 2.8652679 -171.88659877 2.8652679 -167.6953125 3.50219727 C-163.16778119 4.11210981 -158.75361251 4.14331456 -154.19140625 4.1328125 C-153.26585434 4.13376923 -152.34030243 4.13472595 -151.38670349 4.13571167 C-149.43773327 4.13638931 -147.48876075 4.13456415 -145.53979492 4.13037109 C-142.57530587 4.1250231 -139.61096873 4.13032713 -136.64648438 4.13671875 C-134.74479134 4.13605778 -132.84309839 4.13477621 -130.94140625 4.1328125 C-129.62542198 4.13584885 -129.62542198 4.13584885 -128.28285217 4.13894653 C-123.09555476 4.11942725 -118.13729801 3.71476975 -113 3 C-111.00082953 2.9387509 -108.99995226 2.9125006 -107 2.9375 C-106.05125 2.94652344 -105.1025 2.95554688 -104.125 2.96484375 C-103.42375 2.97644531 -102.7225 2.98804688 -102 3 C-101.608125 4.093125 -101.21625 5.18625 -100.8125 6.3125 C-99.2974477 9.91074922 -97.60153162 11.34524223 -94 13 C-95.07949708 15.82330006 -96.25033803 18.49104768 -97.625 21.1875 C-99.14640338 23.77769146 -99.14640338 23.77769146 -99 26 C-96.525 21.545 -96.525 21.545 -94 17 C-93.34 17 -92.68 17 -92 17 C-92 15.35 -92 13.7 -92 12 C-92.8971875 11.566875 -92.8971875 11.566875 -93.8125 11.125 C-96 10 -96 10 -99 8 C-98.67 5.69 -98.34 3.38 -98 1 C-96.68394775 0.97494385 -95.36789551 0.9498877 -94.01196289 0.92407227 C-89.09732467 0.82941316 -84.18280867 0.72933876 -79.26831055 0.62768555 C-77.14724602 0.58455675 -75.02615169 0.54286764 -72.9050293 0.50268555 C-69.84414717 0.44444466 -66.78341206 0.38090952 -63.72265625 0.31640625 C-62.78478775 0.29969376 -61.84691925 0.28298126 -60.88063049 0.26576233 C-55.87489613 0.15485977 -50.97002108 -0.16330502 -45.99995422 -0.76841736 C-43.33710556 -1.07675918 -40.6818646 -1.21159154 -38.00390625 -1.31640625 C-36.95009766 -1.35830078 -35.89628906 -1.40019531 -34.81054688 -1.44335938 C-33.73869141 -1.48267578 -32.66683594 -1.52199219 -31.5625 -1.5625 C-30.49451172 -1.60568359 -29.42652344 -1.64886719 -28.32617188 -1.69335938 C-6.12973436 -2.54759002 -6.12973436 -2.54759002 0 0 Z " fill="#232321" transform="translate(846,165)"/>
<path d="M0 0 C1.00377686 0.15992432 2.00755371 0.31984863 3.04174805 0.48461914 C6.8411924 0.97932259 10.50339469 1.17223178 14.33203125 1.24609375 C15.72201136 1.27903853 17.11198516 1.31225007 18.50195312 1.34570312 C20.65400856 1.39289625 22.80603965 1.43738166 24.95825195 1.47680664 C32.36137562 1.61853789 39.46879704 1.87143679 46.71704102 3.54760742 C50.79900667 4.35649228 54.91348712 4.34217 59.0625 4.4375 C69.49913464 4.81615968 79.3457722 6.40726358 89.54833984 8.53027344 C91.35673117 8.90492287 93.16617434 9.2745261 94.9765625 9.6394043 C96.70971791 9.98981261 98.44053815 10.35211592 100.16796875 10.72973633 C106.30600411 11.97470375 112.13178256 12.06020397 118.38354492 11.98266602 C136.53054688 12.06964618 152.29773849 15.23794458 167 26 C167.66 26.33 168.32 26.66 169 27 C169 27.66 169 28.32 169 29 C170.00160156 28.855625 171.00320313 28.71125 172.03515625 28.5625 C173.37756922 28.37474993 174.72001915 28.18726406 176.0625 28 C176.71927734 27.90460938 177.37605469 27.80921875 178.05273438 27.7109375 C185.30876166 26.71010615 192.09891164 26.99485314 199.3125 27.9375 C200.02728516 28.02451172 200.74207031 28.11152344 201.47851562 28.20117188 C206.74170354 28.87085177 206.74170354 28.87085177 209 30 C210.70363822 30.22622081 212.41328701 30.40888473 214.125 30.5625 C215.03507813 30.64628906 215.94515625 30.73007812 216.8828125 30.81640625 C217.58148437 30.87699219 218.28015625 30.93757813 219 31 C219 31.33 219 31.66 219 32 C214.545 32.495 214.545 32.495 210 33 C209.67 33.99 209.34 34.98 209 36 C207.26969709 35.71515154 205.54079286 35.42180062 203.8125 35.125 C202.84957031 34.96257812 201.88664063 34.80015625 200.89453125 34.6328125 C198 34 198 34 195.93798828 32.98193359 C191.66885758 31.55510596 187.57115229 31.68197089 183.09765625 31.65625 C182.14233505 31.6416272 181.18701385 31.62700439 180.20274353 31.61193848 C177.15603789 31.56554044 174.10939605 31.53128477 171.0625 31.5 C167.05314773 31.45876131 163.04424636 31.40505449 159.03515625 31.34375 C158.11936295 31.3384729 157.20356964 31.3331958 156.26002502 31.32775879 C151.40986139 31.25248404 147.58515999 30.7426196 143 29 C140.52236138 28.91296988 138.04038038 28.92014887 135.5625 29 C127.53965248 29.16588595 119.91803045 28.27416582 112 27 C112 26.34 112 25.68 112 25 C117.44197454 24.90688637 122.77828833 24.90632813 128.1875 25.5625 C131.35787379 25.93813671 133.98716656 25.943847 137.125 25.375 C141.14546561 24.98592268 142.84484755 25.7033598 146.4375 27.296875 C152.3704905 28.92482971 158.89884956 28.19991634 165 28 C164.07316406 27.43410156 163.14632812 26.86820312 162.19140625 26.28515625 C160.98172588 25.54434424 159.77209291 24.80345482 158.5625 24.0625 C157.64500977 23.50272461 157.64500977 23.50272461 156.70898438 22.93164062 C152.11328125 20.11328125 152.11328125 20.11328125 151 19 C148.58219569 18.6421409 146.17769596 18.33529665 143.75 18.0625 C138.72094898 17.47533214 133.73966357 16.80809234 128.75 15.9375 C125.09523478 15.34615721 121.53260764 14.94786749 117.8359375 14.86328125 C106.43903344 14.60246865 95.68475316 12.90175294 84.54721069 10.5798645 C73.6258278 8.31901422 63.07400976 7.22138035 51.93261719 7.07763672 C49.24172334 6.96953866 46.64973451 6.46677442 44 6 C40.58203167 5.75634285 37.1680904 5.56406136 33.74609375 5.39453125 C28.39812015 5.10135311 28.39812015 5.10135311 26.02734375 4.49780273 C23.92923573 3.98262424 22.03938456 3.82815873 19.8828125 3.75390625 C19.11066406 3.72103516 18.33851563 3.68816406 17.54296875 3.65429688 C15.93893487 3.5934006 14.33476131 3.53607277 12.73046875 3.48242188 C8.14332508 3.28016013 4.32263956 2.71654658 0 1 C0 0.67 0 0.34 0 0 Z " fill="#BBBBB9" transform="translate(564,268)"/>
<path d="M0 0 C0.67546875 0.20496094 1.3509375 0.40992188 2.046875 0.62109375 C2.93890625 0.89050781 3.8309375 1.15992188 4.75 1.4375 C5.63171875 1.70433594 6.5134375 1.97117187 7.421875 2.24609375 C13.59961729 4.05261536 19.19059433 4.21887833 25.625 4.25 C27.18927734 4.2809375 27.18927734 4.2809375 28.78515625 4.3125 C34.93973293 4.34323447 40.02771447 3.65118017 45.85595703 1.68115234 C52.07098523 -0.29333282 58.68387336 0.68175159 64.81640625 2.4921875 C68.6428408 3.382056 72.54859721 3.51124211 76.4609375 3.75390625 C79 4 79 4 81 5 C88.13309915 5.51273863 95.88397138 5.41637665 102.4375 2.4375 C109.67477977 -0.48280587 116.70675831 0.8390395 124 3 C124 3.33 124 3.66 124 4 C122.04707031 3.94779297 122.04707031 3.94779297 120.0546875 3.89453125 C118.32813796 3.86638099 116.60157439 3.83908216 114.875 3.8125 C114.0190625 3.78736328 113.163125 3.76222656 112.28125 3.73632812 C106.97026217 3.6750475 103.69767096 4.29713714 99 7 C96.125 7.6875 96.125 7.6875 94 8 C102.68129881 11.16588649 111.20162981 11.49572361 120.328125 11.7890625 C130.43045029 12.16943345 130.43045029 12.16943345 133.94140625 14.02734375 C137.13126326 15.53450579 140.46820613 15.43283633 143.9375 15.5625 C148.36873224 15.75339635 152.66664017 15.9739011 157 17 C157 17.33 157 17.66 157 18 C153.39590081 18.05800828 149.79192149 18.09359869 146.1875 18.125 C144.65125977 18.15013672 144.65125977 18.15013672 143.08398438 18.17578125 C142.10107422 18.18222656 141.11816406 18.18867188 140.10546875 18.1953125 C139.19949951 18.20578613 138.29353027 18.21625977 137.36010742 18.22705078 C135 18 135 18 132 16 C128.9725341 15.79435495 128.9725341 15.79435495 125.5625 15.9375 C108.88759964 16.16190342 108.88759964 16.16190342 103.69921875 14.07421875 C100.00754091 12.60502714 96.26911227 11.93225432 92.375 11.1875 C91.52123779 11.0222583 90.66747559 10.8570166 89.7878418 10.68676758 C87.8995108 10.3228347 86.01073205 9.96121968 84.12158203 9.6015625 C80.74264227 8.95040439 77.36964576 8.27224003 73.99609375 7.59375 C71.6017244 7.12417371 69.20719443 6.65541564 66.8125 6.1875 C65.67925293 5.95635498 64.54600586 5.72520996 63.37841797 5.48706055 C54.35506878 3.75817561 47.42937472 3.80191402 38.9296875 7.30078125 C35.98277224 8.36859062 33.10972133 8.67607069 30 9 C33.3 10.32 36.6 11.64 40 13 C35.94790069 14.35069977 33.23313056 12.98839952 29.375 11.625 C28.68148438 11.39039063 27.98796875 11.15578125 27.2734375 10.9140625 C22.15438988 9.15438988 22.15438988 9.15438988 21 8 C19.54775975 7.69819698 18.08758564 7.43434016 16.625 7.1875 C10.83057215 6.09057796 5.47927492 4.14587573 0 2 C0 1.34 0 0.68 0 0 Z " fill="#C5C5C2" transform="translate(415,259)"/>
<path d="M0 0 C-3.53060101 2.35373401 -6.58595756 2.65778415 -10.6875 3.125 C-11.38939453 3.21136719 -12.09128906 3.29773438 -12.81445312 3.38671875 C-14.54211145 3.59826875 -16.2709566 3.800086 -18 4 C-3.23665736 19.14847332 15.44075267 18.12033558 35.35430908 18.47497559 C45.71070554 18.67197473 55.17980187 19.52739704 65 23 C65 23.33 65 23.66 65 24 C56.64546685 23.10960758 56.64546685 23.10960758 52.6875 22.4375 C49.56567201 22.06711363 46.72885336 21.98260387 43.59765625 22.0234375 C-2.43369747 22.17308203 -2.43369747 22.17308203 -15 11 C-15.52658203 10.30608154 -16.05316406 9.61216309 -16.59570312 8.8972168 C-20.03892898 6.18018713 -23.1098997 6.6978993 -27.265625 7.046875 C-28.45572174 7.12195282 -28.45572174 7.12195282 -29.66986084 7.19854736 C-32.19835887 7.36261425 -34.72364854 7.55588703 -37.25 7.75 C-38.96601573 7.86651559 -40.68216227 7.98112148 -42.3984375 8.09375 C-46.60079623 8.37371377 -50.80051691 8.67988273 -55 9 C-55 9.66 -55 10.32 -55 11 C-53.01399663 12.3540932 -51.01182457 13.68457624 -49 15 C-46.625 17.125 -46.625 17.125 -45 19 C-45 19.66 -45 20.32 -45 21 C-47.95803481 19.6512925 -50.20796367 18.10431451 -52.625 15.9375 C-57.88459795 11.24061013 -62.48091219 11.96597922 -69.25976562 12.21484375 C-74.05650317 12.30127145 -77.04981924 12.06078915 -81 9 C-80.34 8.67 -79.68 8.34 -79 8 C-78.34 8.33 -77.68 8.66 -77 9 C-69.49875168 9.69515879 -62.10721698 8.36907233 -55 6 C-53.10529184 5.9314505 -51.2083166 5.91519628 -49.3125 5.9375 C-48.31863281 5.94652344 -47.32476562 5.95554688 -46.30078125 5.96484375 C-45.16189453 5.98224609 -45.16189453 5.98224609 -44 6 C-44 5.67 -44 5.34 -44 5 C-43.1478894 4.98598145 -43.1478894 4.98598145 -42.27856445 4.97167969 C-31.91719232 4.75802155 -22.62182059 4.39987833 -12.8203125 0.85546875 C-8.53152794 -0.44542297 -4.43327699 -0.3602663 0 0 Z " fill="#ACACAA" transform="translate(225,207)"/>
<path d="M0 0 C1.8329821 -0.05498946 3.66646845 -0.09323089 5.5 -0.125 C6.5209375 -0.14820313 7.541875 -0.17140625 8.59375 -0.1953125 C11.86224243 -0.00789894 14.72888469 0.65401446 17.87988281 1.50537109 C21.58248583 2.3691981 25.34289108 2.5702104 29.125 2.875 C36.23832704 3.53156181 42.6976215 4.85555632 49.5390625 6.9765625 C61.7657825 10.59213884 72.83493039 11.47295762 85.5 9.4375 C93.49968022 8.43753997 100.92723781 7.71822812 108.046875 11.90625 C114.60502152 15.57881205 121.68733487 16.98892528 129 15 C129.99 14.34 130.98 13.68 132 13 C136.66807565 13.25933754 140.09804443 15.62822309 144 18 C142.3125 18.6875 142.3125 18.6875 140 19 C139.195625 18.505 138.39125 18.01 137.5625 17.5 C135.13288862 15.7519059 135.13288862 15.7519059 132.5 16.1875 C129.99971683 16.92634359 129.99971683 16.92634359 127.8125 18.125 C122.70865516 19.71286284 117.40636621 19.19531917 112.609375 16.8125 C111.78953125 16.35875 110.9696875 15.905 110.125 15.4375 C102.28250163 11.51059245 92.57887805 12.12381207 84 13 C83.34 13.33 82.68 13.66 82 14 C73.518721 14.80210546 65.49990771 13.77148078 57.1875 12.1875 C55.88171997 11.93963745 55.88171997 11.93963745 54.54956055 11.68676758 C49.56205655 10.67959795 44.79740068 9.37737 40.0012207 7.67700195 C35.77507651 6.24732063 31.96358112 5.83611532 27.5 5.625 C21.65186797 5.24809336 16.34933008 4.24864299 10.7109375 2.69921875 C7.14482236 1.77942825 3.66160738 1.35207763 0 1 C0 0.67 0 0.34 0 0 Z " fill="#AFAFAD" transform="translate(364,210)"/>
<path d="M0 0 C10.17865176 -0.38816892 20.82042018 0.23156719 30.64453125 3.04296875 C33.70655294 3.91630439 36.27523366 4.28604167 39.4375 4.4375 C44.29850058 4.78298258 49.0300681 5.45842971 53.8125 6.375 C54.83283325 6.56993042 54.83283325 6.56993042 55.8737793 6.76879883 C59.14673803 7.40684994 62.39983365 8.09065747 65.65234375 8.828125 C73.84488369 10.64275925 81.65356861 11.42630089 90.03613281 11.62158203 C95.04585425 11.76537773 99.15785151 12.61112482 104 14 C107.1624781 14.32191007 110.32330146 14.41468582 113.5 14.5 C119.35651219 14.6572839 124.42288675 15.14096225 130 17 C130 17.33 130 17.66 130 18 C125.87450943 17.88879348 121.74982493 17.75848948 117.625 17.625 C116.46871094 17.5940625 115.31242187 17.563125 114.12109375 17.53125 C108.00173738 17.32381419 102.27840827 16.791717 96.30566406 15.45458984 C92.57552535 14.71914742 88.8539625 14.62060899 85.0625 14.5 C79.17917976 14.24267664 73.56226101 13.74057996 67.78515625 12.53515625 C63.08575222 11.63218521 58.32791317 11.12843221 53.578125 10.5625 C50 10 50 10 46.42578125 8.96875 C42.23794681 7.78450491 38.29012823 7.57109741 33.96484375 7.34375 C31 7 31 7 28.3984375 6.0625 C22.23385493 4.13518223 15.73053558 3.82180853 9.32617188 3.14453125 C7.74739258 2.96470703 7.74739258 2.96470703 6.13671875 2.78125 C5.17467529 2.67876953 4.21263184 2.57628906 3.22143555 2.47070312 C2.48836182 2.31537109 1.75528809 2.16003906 1 2 C0.67 1.34 0.34 0.68 0 0 Z " fill="#BFBFBD" transform="translate(283,240)"/>
<path d="M0 0 C5.44197454 -0.09311363 10.77828833 -0.09367187 16.1875 0.5625 C19.35787379 0.93813671 21.98716656 0.943847 25.125 0.375 C29 0 29 0 32.42578125 1.4609375 C38.17336174 3.74326007 43.96510827 3.36077711 50.0625 3.25 C51.26753174 3.24049316 52.47256348 3.23098633 53.71411133 3.22119141 C59.9019182 3.15028294 66.02430162 2.9160945 72.1875 2.375 C79.67654026 1.74946531 90.10888129 1.55444064 97 5 C98.70363822 5.22622081 100.41328701 5.40888473 102.125 5.5625 C103.03507813 5.64628906 103.94515625 5.73007812 104.8828125 5.81640625 C105.58148437 5.87699219 106.28015625 5.93757813 107 6 C107 6.33 107 6.66 107 7 C102.545 7.495 102.545 7.495 98 8 C97.67 8.99 97.34 9.98 97 11 C95.26969709 10.71515154 93.54079286 10.42180062 91.8125 10.125 C90.84957031 9.96257812 89.88664063 9.80015625 88.89453125 9.6328125 C86 9 86 9 83.93798828 7.98193359 C79.66885758 6.55510596 75.57115229 6.68197089 71.09765625 6.65625 C70.14233505 6.6416272 69.18701385 6.62700439 68.20274353 6.61193848 C65.15603789 6.56554044 62.10939605 6.53128477 59.0625 6.5 C55.05314773 6.45876131 51.04424636 6.40505449 47.03515625 6.34375 C46.11936295 6.3384729 45.20356964 6.3331958 44.26002502 6.32775879 C39.40986139 6.25248404 35.58515999 5.7426196 31 4 C28.52236138 3.91296988 26.04038038 3.92014887 23.5625 4 C15.53965248 4.16588595 7.91803045 3.27416582 0 2 C0 1.34 0 0.68 0 0 Z " fill="#D0CCC5" transform="translate(676,293)"/>
<path d="M0 0 C0.495 0.99 0.495 0.99 1 2 C-0.26972656 1.855625 -1.53945313 1.71125 -2.84765625 1.5625 C-19.7285836 -1.3411307 -19.7285836 -1.3411307 -36 1 C-40.28117405 1.37650395 -44.58072581 1.47033334 -48.875 1.625 C-50.05320312 1.6765625 -51.23140625 1.728125 -52.4453125 1.78125 C-60.04904803 2.06597137 -67.4355868 1.82429371 -75 1 C-75 0.34 -75 -0.32 -75 -1 C-74.14881592 -1.02505615 -73.29763184 -1.0501123 -72.4206543 -1.07592773 C-69.20930374 -1.17206551 -65.99806344 -1.27122466 -62.78686523 -1.37231445 C-61.40701849 -1.41515886 -60.02713567 -1.45685973 -58.6472168 -1.49731445 C-51.24833201 -1.71500776 -43.91104185 -2.04932992 -36.54516602 -2.77954102 C-24.62786577 -3.81180213 -11.33225949 -4.38019959 0 0 Z " fill="#A4A4A2" transform="translate(569,234)"/>
<path d="M0 0 C1.73911652 0.0998822 1.73911652 0.0998822 3.5133667 0.20178223 C7.17056414 0.41255711 10.82746391 0.62806993 14.484375 0.84375 C16.98305467 0.9885963 19.48175246 1.13313044 21.98046875 1.27734375 C28.06531808 1.62920736 34.14993107 1.98494798 40.234375 2.34375 C40.234375 3.00375 40.234375 3.66375 40.234375 4.34375 C27.01281197 4.57050504 13.92128761 4.38796457 0.734375 3.34375 C-18.04085866 1.84784093 -18.04085866 1.84784093 -36.765625 3.34375 C-36.435625 2.68375 -36.105625 2.02375 -35.765625 1.34375 C-33.68359375 0.7109375 -33.68359375 0.7109375 -30.953125 0.21875 C-30.08042969 0.05117188 -29.20773437 -0.11640625 -28.30859375 -0.2890625 C-18.91673593 -1.26241932 -9.40201431 -0.56222606 0 0 Z " fill="#979795" transform="translate(438.765625,277.65625)"/>
<path d="M0 0 C3 1 3 1 4.42700195 2.42773438 C6.221335 4.22123194 7.87573283 5.08064874 10.16796875 6.15625 C10.97943359 6.53910156 11.79089844 6.92195312 12.62695312 7.31640625 C13.47193359 7.70699219 14.31691406 8.09757813 15.1875 8.5 C16.01314453 8.89058594 16.83878906 9.28117188 17.68945312 9.68359375 C21.57646338 11.50304536 25.44868878 13.20356619 29.48828125 14.65625 C33 16 33 16 35 18 C37.65537372 18.56520003 40.29144713 18.73788198 43 19 C43 19.33 43 19.66 43 20 C39.04 20 35.08 20 31 20 C31 19.34 31 18.68 31 18 C29.95199219 17.66226563 28.90398437 17.32453125 27.82421875 16.9765625 C26.44523407 16.52628179 25.06633211 16.07574769 23.6875 15.625 C22.65206055 15.29242188 22.65206055 15.29242188 21.59570312 14.953125 C18.39189438 13.90066609 15.82365809 12.88243873 13 11 C11.01488915 10.54440079 9.02964563 10.08934619 7.04296875 9.640625 C5 9 5 9 2 6.875 C-2.00173562 4.37391524 -4.35618578 4.67973695 -9 5 C-8.67 4.01 -8.34 3.02 -8 2 C-6.865625 1.855625 -5.73125 1.71125 -4.5625 1.5625 C-1.19222799 1.38828522 -1.19222799 1.38828522 0 0 Z " fill="#DFDCD4" transform="translate(146,194)"/>
<path d="M0 0 C10.17865176 -0.38816892 20.82042018 0.23156719 30.64453125 3.04296875 C33.70655294 3.91630439 36.27523366 4.28604167 39.4375 4.4375 C47.08295719 4.962093 54.50100945 6.48687881 62 8 C61.34 8.99 60.68 9.98 60 11 C55.4169653 10.64958688 51.04562427 10.3098146 46.625 9 C42.38001999 7.82897103 38.3500425 7.57424665 33.96484375 7.34375 C31 7 31 7 28.3984375 6.0625 C22.23385493 4.13518223 15.73053558 3.82180853 9.32617188 3.14453125 C7.74739258 2.96470703 7.74739258 2.96470703 6.13671875 2.78125 C5.17467529 2.67876953 4.21263184 2.57628906 3.22143555 2.47070312 C2.48836182 2.31537109 1.75528809 2.16003906 1 2 C0.67 1.34 0.34 0.68 0 0 Z " fill="#ADADAB" transform="translate(283,240)"/>
<path d="M0 0 C3.27075883 -0.0580476 6.54138524 -0.09361165 9.8125 -0.125 C10.74126953 -0.14175781 11.67003906 -0.15851563 12.62695312 -0.17578125 C13.51962891 -0.18222656 14.41230469 -0.18867188 15.33203125 -0.1953125 C16.56530151 -0.21102295 16.56530151 -0.21102295 17.82348633 -0.22705078 C20 0 20 0 23 2 C6.17 2.99 6.17 2.99 -11 4 C-11 4.66 -11 5.32 -11 6 C-9.01399663 7.3540932 -7.01182457 8.68457624 -5 10 C-2.625 12.125 -2.625 12.125 -1 14 C-1 14.66 -1 15.32 -1 16 C-3.95803481 14.6512925 -6.20796367 13.10431451 -8.625 10.9375 C-13.88459795 6.24061013 -18.48091219 6.96597922 -25.25976562 7.21484375 C-30.05650317 7.30127145 -33.04981924 7.06078915 -37 4 C-36.34 3.67 -35.68 3.34 -35 3 C-34.34 3.33 -33.68 3.66 -33 4 C-25.49875168 4.69515879 -18.10721698 3.36907233 -11 1 C-9.10529184 0.9314505 -7.2083166 0.91519628 -5.3125 0.9375 C-4.31863281 0.94652344 -3.32476562 0.95554688 -2.30078125 0.96484375 C-1.16189453 0.98224609 -1.16189453 0.98224609 0 1 C0 0.67 0 0.34 0 0 Z " fill="#9A9A98" transform="translate(181,212)"/>
<path d="M0 0 C0.67546875 0.20496094 1.3509375 0.40992188 2.046875 0.62109375 C2.93890625 0.89050781 3.8309375 1.15992188 4.75 1.4375 C5.63171875 1.70433594 6.5134375 1.97117187 7.421875 2.24609375 C8.27265625 2.49488281 9.1234375 2.74367188 10 3 C10.90613037 3.26562744 10.90613037 3.26562744 11.83056641 3.53662109 C16.34201247 4.50024079 21.03078997 4.18472236 25.625 4.1875 C26.66785156 4.19974609 27.71070313 4.21199219 28.78515625 4.22460938 C35.43037087 4.2370536 41.54476471 3.58727923 48 2 C48.495 2.99 48.495 2.99 49 4 C36.51480638 8.40774487 36.51480638 8.40774487 30 9 C33.3 10.32 36.6 11.64 40 13 C35.94790069 14.35069977 33.23313056 12.98839952 29.375 11.625 C28.68148438 11.39039063 27.98796875 11.15578125 27.2734375 10.9140625 C22.15438988 9.15438988 22.15438988 9.15438988 21 8 C19.54775975 7.69819698 18.08758564 7.43434016 16.625 7.1875 C10.83057215 6.09057796 5.47927492 4.14587573 0 2 C0 1.34 0 0.68 0 0 Z " fill="#B1B1AF" transform="translate(415,259)"/>
<path d="M0 0 C0.33 0 0.66 0 1 0 C1 1.65 1 3.3 1 5 C0.34 5 -0.32 5 -1 5 C-1.66 7.97 -2.32 10.94 -3 14 C-1.68 14.66 -0.36 15.32 1 16 C3 17 5 18 7 19 C5.375 19.6875 5.375 19.6875 3 20 C2.12988281 19.52175781 1.25976562 19.04351562 0.36328125 18.55078125 C-3.56253967 16.74061759 -6.95263062 16.56515915 -11.1875 16.5 C-17.28592464 16.27910908 -22.70896082 15.59439356 -28.56640625 13.7578125 C-31.68072709 12.78802399 -34.8293069 12.15499584 -38.02734375 11.52734375 C-40.19974129 10.94660381 -42.02500157 10.06482018 -44 9 C-37.85301569 8.47931427 -32.67849859 9.22151869 -26.75 10.9375 C-19.43878935 13.0466464 -12.629623 13.76488065 -5 14 C-4.81630859 12.91138672 -4.81630859 12.91138672 -4.62890625 11.80078125 C-4.00853366 9.03800392 -3.12379567 6.75142934 -1.9375 4.1875 C-1.57527344 3.39730469 -1.21304688 2.60710937 -0.83984375 1.79296875 C-0.56269531 1.20128906 -0.28554688 0.60960937 0 0 Z " fill="#BBBBB8" transform="translate(792,224)"/>
<path d="M0 0 C1.8329821 -0.05498946 3.66646845 -0.09323089 5.5 -0.125 C6.5209375 -0.14820313 7.541875 -0.17140625 8.59375 -0.1953125 C11.86224243 -0.00789894 14.72888469 0.65401446 17.87988281 1.50537109 C21.58245002 2.36918974 25.34290024 2.57041179 29.125 2.875 C36.40444634 3.54404852 42.92377845 4.85227241 49.90625 7.0546875 C53.54896794 8.1677402 57.19308749 8.87232421 60.93359375 9.5625 C63.42729877 10.09046779 65.69208302 10.92297208 68 12 C68 12.33 68 12.66 68 13 C59.0852551 12.4910874 50.82150956 10.77832857 42.2890625 8.171875 C35.96749285 6.2809656 30.07809988 5.65854194 23.49609375 5.3125 C19.07001329 4.9168727 14.98534514 3.87382139 10.7109375 2.69921875 C7.14482236 1.77942825 3.66160738 1.35207763 0 1 C0 0.67 0 0.34 0 0 Z " fill="#AEAEAC" transform="translate(364,210)"/>
<path d="M0 0 C5.44197454 -0.09311363 10.77828833 -0.09367187 16.1875 0.5625 C19.35787379 0.93813671 21.98716656 0.943847 25.125 0.375 C29.10883761 -0.01053267 30.80876588 0.65440854 34.37109375 2.23046875 C40.63140284 4.06298122 47.51621005 3.78632965 54 4 C54 4.66 54 5.32 54 6 C51.29139335 6.05429278 48.58389099 6.09381211 45.875 6.125 C45.11445312 6.14175781 44.35390625 6.15851563 43.5703125 6.17578125 C38.89324811 6.21610077 35.45655274 5.5194153 31 4 C28.52236138 3.91296988 26.04038038 3.92014887 23.5625 4 C15.53965248 4.16588595 7.91803045 3.27416582 0 2 C0 1.34 0 0.68 0 0 Z " fill="#B4B4B2" transform="translate(676,293)"/>
<path d="M0 0 C1.00377686 0.15992432 2.00755371 0.31984863 3.04174805 0.48461914 C6.8411924 0.97932259 10.50339469 1.17223178 14.33203125 1.24609375 C15.72201136 1.27903853 17.11198516 1.31225007 18.50195312 1.34570312 C20.65400856 1.39289625 22.80603965 1.43738166 24.95825195 1.47680664 C32.35228581 1.61836386 39.46546378 1.85888994 46.70483398 3.53442383 C50.80755273 4.36666345 54.95093996 4.46798207 59.125 4.625 C60.41664063 4.68300781 60.41664063 4.68300781 61.734375 4.7421875 C63.82262251 4.8349985 65.91128008 4.9185099 68 5 C68 5.33 68 5.66 68 6 C32.92686736 6.28554028 32.92686736 6.28554028 26.06689453 4.49560547 C23.95529207 3.98927981 22.05025884 3.82853314 19.8828125 3.75390625 C19.11066406 3.72103516 18.33851563 3.68816406 17.54296875 3.65429688 C15.93893487 3.5934006 14.33476131 3.53607277 12.73046875 3.48242188 C8.14332508 3.28016013 4.32263956 2.71654658 0 1 C0 0.67 0 0.34 0 0 Z " fill="#C0C0BE" transform="translate(564,268)"/>
<path d="M0 0 C4.75 1.875 4.75 1.875 7 3 C9.10346132 3.08291015 11.20794064 3.14002874 13.3125 3.1875 C21.81444591 3.54882758 30.06352228 5.21844227 38.375 6.9375 C39.03190826 7.07078705 39.68881653 7.2040741 40.3656311 7.34140015 C51.64579922 9.64579922 51.64579922 9.64579922 54 12 C47.03641163 11.30724924 40.20227162 10.21390954 33.3125 9 C26.49354473 7.80877748 19.85730253 6.80804138 12.9375 6.5625 C7.12655208 6.28578819 4.21091926 5.0103993 0 1 C0 0.67 0 0.34 0 0 Z " fill="#8E8E8C" transform="translate(553,237)"/>
<path d="M0 0 C9.69296288 -0.98176312 16.35518234 0.51138277 25.14575195 4.28808594 C31.0718004 6.78820703 36.78178542 8.19370463 43.13818359 9.11254883 C44.76766186 9.35476857 46.38593026 9.67038101 48 10 C48.495 10.99 48.495 10.99 49 12 C45.99370872 11.69937087 42.99902938 11.36313034 40 11 C39.09507812 10.90074219 38.19015625 10.80148438 37.2578125 10.69921875 C30.55845768 9.80052481 24.82862585 7.79054163 18.67114258 5.1159668 C12.55512139 2.57901498 6.60884795 2.02228954 0 2 C0 1.34 0 0.68 0 0 Z " fill="#A5A5A3" transform="translate(305,201)"/>
<path d="M0 0 C8.60764545 -0.46112386 16.61479306 1.27151563 25 3 C25 3.33 25 3.66 25 4 C22.98177083 3.96744792 20.96354167 3.93489583 18.9453125 3.90234375 C16.91814596 3.87350758 16.91814596 3.87350758 15 5 C14.67 5.99 14.34 6.98 14 8 C15.32 8.66 16.64 9.32 18 10 C10.78912941 9.63021176 4.83085502 5.12223992 0 0 Z " fill="#1C1C1A" transform="translate(265,228)"/>
<path d="M0 0 C0.59425781 0.13277344 1.18851563 0.26554687 1.80078125 0.40234375 C6.35606222 1.37290906 10.78826323 2.11593896 15.4375 2.4375 C20.31959658 2.81675892 24.71996761 3.92048256 29.40625 5.30078125 C32.93233566 6.25133747 36.36856777 6.65741205 40 7 C38 9 38 9 35.0546875 9.234375 C30.00929066 9.08298699 25.08077448 8.1510499 20.125 7.25 C19.18269531 7.09273438 18.24039063 6.93546875 17.26953125 6.7734375 C11.04077232 5.65346701 5.65049733 3.85060683 0 1 C0 0.67 0 0.34 0 0 Z " fill="#B7B7B5" transform="translate(619,290)"/>
<path d="M0 0 C-4.23057383 2.82038255 -7.15118868 1.83078112 -12 1 C-14.17170853 0.55121926 -16.32634424 0.05545766 -18.4831543 -0.45996094 C-29.63553563 -3.11683412 -40.56573964 -3.77245253 -52 -4 C-52 -4.33 -52 -4.66 -52 -5 C-33.85178535 -6.53833664 -17.67980265 -3.92038681 0 0 Z " fill="#9C9C9A" transform="translate(666,279)"/>
<path d="M0 0 C0.66 0 1.32 0 2 0 C2.12117187 0.86882812 2.24234375 1.73765625 2.3671875 2.6328125 C2.53476562 3.78523437 2.70234375 4.93765625 2.875 6.125 C3.03742187 7.26195312 3.19984375 8.39890625 3.3671875 9.5703125 C3.97447555 12.86166377 4.93316117 15.83534365 6 19 C6 23 6 27 6 31 C5.01 31 4.02 31 3 31 C2.95101562 30.0821875 2.90203125 29.164375 2.8515625 28.21875 C2.46416936 20.36712982 2.46416936 20.36712982 0.9375 12.6875 C-0.16496182 8.35115016 -0.18508789 4.44210933 0 0 Z " fill="#636361" transform="translate(765,242)"/>
<path d="M0 0 C3.26450489 1.56517358 6.40993075 1.70087675 9.99609375 1.95703125 C9.99609375 2.61703125 9.99609375 3.27703125 9.99609375 3.95703125 C8.66477343 4.06797461 7.33053695 4.14391569 5.99609375 4.20703125 C5.25359375 4.2534375 4.51109375 4.29984375 3.74609375 4.34765625 C0.98040058 3.95480211 -0.20653778 3.33362119 -2.56640625 1.95703125 C-7.89653085 -0.86583079 -13.10461543 -0.48493566 -19.00390625 -0.29296875 C-20.59525391 -0.26589844 -20.59525391 -0.26589844 -22.21875 -0.23828125 C-24.81476345 -0.19150623 -27.40884153 -0.12598017 -30.00390625 -0.04296875 C-30.00390625 -0.37296875 -30.00390625 -0.70296875 -30.00390625 -1.04296875 C-7.62982182 -4.34454643 -7.62982182 -4.34454643 0 0 Z " fill="#B1B1AE" transform="translate(592.00390625,288.04296875)"/>
<path d="M0 0 C4.38889325 0.66498383 7.9811485 2.18757677 12 4 C11.67 4.66 11.34 5.32 11 6 C15.95 6.33 20.9 6.66 26 7 C26 7.33 26 7.66 26 8 C17.09 8 8.18 8 -1 8 C1 4 1 4 3 2 C2.01 2 1.02 2 0 2 C0 1.34 0 0.68 0 0 Z " fill="#11110F" transform="translate(495,225)"/>
<path d="M0 0 C26.9576474 -0.20638953 26.9576474 -0.20638953 39 1 C39 1.33 39 1.66 39 2 C34.75049279 2.19996081 30.50040099 2.3826241 26.25 2.5625 C25.06277344 2.61857422 23.87554688 2.67464844 22.65234375 2.73242188 C15.00943089 3.04565601 7.60416095 2.83820579 0 2 C0 1.34 0 0.68 0 0 Z " fill="#8F8F8D" transform="translate(494,233)"/>
<path d="M0 0 C0 0.33 0 0.66 0 1 C-1.95292969 0.94779297 -1.95292969 0.94779297 -3.9453125 0.89453125 C-5.67186204 0.86638099 -7.39842561 0.83908216 -9.125 0.8125 C-9.9809375 0.78736328 -10.836875 0.76222656 -11.71875 0.73632812 C-17.01101606 0.67526352 -20.33583589 1.25637405 -25 4 C-27.65094209 4.82897353 -30.28456012 5.39136692 -33 6 C-33.33 4.68 -33.66 3.36 -34 2 C-33.14728516 1.94392578 -33.14728516 1.94392578 -32.27734375 1.88671875 C-28.26686497 1.54525895 -25.27111157 1.12323253 -21.5625 -0.5625 C-14.32522023 -3.48280587 -7.29324169 -2.1609605 0 0 Z " fill="#A8A7A5" transform="translate(539,262)"/>
<path d="M0 0 C10.33456751 -0.8360549 20.01196602 1.68153408 30 4 C30 4.33 30 4.66 30 5 C19.53878173 5.44133265 10.17805063 4.22066559 0 2 C0 1.34 0 0.68 0 0 Z " fill="#CCCCCA" transform="translate(463,260)"/>
<path d="M0 0 C30.33290997 0.36832592 30.33290997 0.36832592 43 5 C43 5.33 43 5.66 43 6 C38.86779383 6.26375784 36.00819587 6.10831664 32.1875 4.5 C26.71938195 2.47651397 21.35476799 2.86602691 15.61645508 2.98828125 C10.09598054 3.08093581 5.32608648 2.5780997 0 1 C0 0.67 0 0.34 0 0 Z " fill="#7F7E7C" transform="translate(292,268)"/>
<path d="M0 0 C24.98265839 -0.20638953 24.98265839 -0.20638953 35 1 C35 1.66 35 2.32 35 3 C23.19752867 3.32188558 11.71999669 2.33262907 0 1 C0 0.67 0 0.34 0 0 Z " fill="#494742" transform="translate(451,345)"/>
<path d="M0 0 C1.051875 0.48919922 1.051875 0.48919922 2.125 0.98828125 C6.56058958 3.03130417 10.96143377 5.04365682 15.5625 6.6875 C19 8 19 8 21 10 C23.65537372 10.56520003 26.29144713 10.73788198 29 11 C29 11.33 29 11.66 29 12 C25.04 12 21.08 12 17 12 C17 11.34 17 10.68 17 10 C15.95199219 9.67386719 14.90398437 9.34773437 13.82421875 9.01171875 C12.44515825 8.57079465 11.06626038 8.12936168 9.6875 7.6875 C8.99720703 7.47416016 8.30691406 7.26082031 7.59570312 7.04101562 C1.29826536 5.00271451 1.29826536 5.00271451 -1 2 C-0.67 1.34 -0.34 0.68 0 0 Z " fill="#ABACA9" transform="translate(160,202)"/>
<path d="M0 0 C12.28223685 -0.80981781 23.28062507 1.99715004 34 8 C31.34012919 9.02781893 30.22826184 9.08492631 27.51171875 8.07421875 C26.11373047 7.38779297 26.11373047 7.38779297 24.6875 6.6875 C18.46210633 3.91213977 12.86024406 3.08697854 6.15234375 2.45703125 C3 2 3 2 0 0 Z " fill="#939391" transform="translate(228,241)"/>
<path d="M0 0 C6.40629424 -0.20852314 11.92972642 -0.1583195 18 2 C18 2.33 18 2.66 18 3 C15.69 3.33 13.38 3.66 11 4 C11 4.66 11 5.32 11 6 C11.99 5.34 12.98 4.68 14 4 C16.33199388 3.92094936 18.66832622 3.91201231 21 4 C21.33 4.99 21.66 5.98 22 7 C17.71 7 13.42 7 9 7 C8.67 6.01 8.34 5.02 8 4 C8.33 3.34 8.66 2.68 9 2 C6.03 1.67 3.06 1.34 0 1 C0 0.67 0 0.34 0 0 Z " fill="#151513" transform="translate(551,234)"/>
<path d="M0 0 C4.45885926 0.10944715 8.91684156 0.24017666 13.375 0.375 C14.64601563 0.4059375 15.91703125 0.436875 17.2265625 0.46875 C18.43828125 0.50742187 19.65 0.54609375 20.8984375 0.5859375 C22.57945557 0.63306885 22.57945557 0.63306885 24.29443359 0.68115234 C27 1 27 1 29 3 C19.1 3 9.2 3 -1 3 C-0.67 2.01 -0.34 1.02 0 0 Z " fill="#EBEBE7" transform="translate(731,296)"/>
<path d="M0 0 C3.27075883 -0.0580476 6.54138524 -0.09361165 9.8125 -0.125 C11.2056543 -0.15013672 11.2056543 -0.15013672 12.62695312 -0.17578125 C13.51962891 -0.18222656 14.41230469 -0.18867188 15.33203125 -0.1953125 C16.15421143 -0.20578613 16.9763916 -0.21625977 17.82348633 -0.22705078 C20 0 20 0 23 2 C16.01772175 2.75338648 9.08105369 3.10678379 2.0625 3.125 C0.98077515 3.13176758 0.98077515 3.13176758 -0.12280273 3.13867188 C-3.873742 3.12816627 -7.35378166 2.89906754 -11 2 C-11 1.67 -11 1.34 -11 1 C-7.37 1 -3.74 1 0 1 C0 0.67 0 0.34 0 0 Z " fill="#6D6E6A" transform="translate(181,212)"/>
<path d="M0 0 C-3.53060101 2.35373401 -6.58595756 2.65778415 -10.6875 3.125 C-11.38939453 3.21136719 -12.09128906 3.29773438 -12.81445312 3.38671875 C-14.54211145 3.59826875 -16.2709566 3.800086 -18 4 C-15.525 6.97 -15.525 6.97 -13 10 C-13.99 10 -14.98 10 -16 10 C-16.45375 9.525625 -16.9075 9.05125 -17.375 8.5625 C-19.46366683 6.55416651 -21.1783448 6.38130476 -24 6 C-23 4 -23 4 -20.41015625 2.9296875 C-13.41538259 0.72596651 -7.33777833 -0.59629801 0 0 Z " fill="#A9A9A7" transform="translate(225,207)"/>
<path d="M0 0 C0.99 0.33 1.98 0.66 3 1 C3 2.32 3 3.64 3 5 C10.92 5.33 18.84 5.66 27 6 C27 6.33 27 6.66 27 7 C16.83562705 7.85803148 7.17617858 8.03351814 -3 7 C-3 6.34 -3 5.68 -3 5 C-2.01 5 -1.02 5 0 5 C0 3.35 0 1.7 0 0 Z " fill="#6F6F6D" transform="translate(713,335)"/>
<path d="M0 0 C8.8795045 -0.75214626 16.59186659 1.48877082 25 4 C24.67 4.66 24.34 5.32 24 6 C16.01529033 5.07154539 7.06886176 3.97300989 0 0 Z " fill="#ADADAA" transform="translate(748,233)"/>
<path d="M0 0 C2.40038314 1.24799794 4.68474935 2.59269078 7 4 C5.3125 4.6875 5.3125 4.6875 3 5 C2.195625 4.505 1.39125 4.01 0.5625 3.5 C-1.86711138 1.7519059 -1.86711138 1.7519059 -4.5 2.1875 C-7.00028317 2.92634359 -7.00028317 2.92634359 -9.1875 4.125 C-13.50494103 5.46820387 -17.58018885 4.63507966 -22 4 C-19 2 -19 2 -15.75 2.0625 C-11.91622226 2.2364642 -11.91622226 2.2364642 -8.375 0.4375 C-4.69641895 -1.12930304 -3.66208669 -1.37328251 0 0 Z " fill="#7D7D7B" transform="translate(501,224)"/>
<path d="M0 0 C1 2 1 2 1 6 C1.99 6.639375 2.98 7.27875 4 7.9375 C7 10 7 10 7.5625 12.5625 C6.89559817 15.45240793 6.1424514 16.01058085 4 18 C2.56701306 20.28558849 1.29589029 22.63164878 0 25 C-1 22 -1 22 0.03125 19.84375 C1.01041667 18.28125 1.98958333 16.71875 2.96875 15.15625 C4.35336979 12.90245185 4.35336979 12.90245185 3 10 C0.50240018 8.30117552 0.50240018 8.30117552 -2 7 C-1.125 1.125 -1.125 1.125 0 0 Z " fill="#B1B2AF" transform="translate(747,167)"/>
<path d="M0 0 C1.52519276 0.08937803 3.04681929 0.24537146 4.5625 0.4375 C5.38878906 0.53933594 6.21507812 0.64117187 7.06640625 0.74609375 C7.70449219 0.82988281 8.34257813 0.91367188 9 1 C9 1.33 9 1.66 9 2 C2.89226537 2.89691835 -3.01954784 3.13305622 -9.1875 3.09765625 C-10.13061035 3.0962413 -11.0737207 3.09482635 -12.04541016 3.09336853 C-15.03030697 3.0878124 -18.01512621 3.07526823 -21 3.0625 C-23.03515516 3.05747932 -25.07031151 3.05291741 -27.10546875 3.04882812 C-32.07034197 3.03785737 -37.03515787 3.02062339 -42 3 C-42 2.67 -42 2.34 -42 2 C-40.7632251 1.97494385 -39.5264502 1.9498877 -38.25219727 1.92407227 C-33.68063287 1.83017747 -29.10922682 1.72991371 -24.5378418 1.62768555 C-22.55610854 1.58426856 -20.57433622 1.54259863 -18.5925293 1.50268555 C-15.7503683 1.44514617 -12.90840517 1.38140555 -10.06640625 1.31640625 C-8.72891075 1.29133751 -8.72891075 1.29133751 -7.36439514 1.26576233 C-3.36051605 1.563413 -3.36051605 1.563413 0 0 Z " fill="#C3C0B7" transform="translate(724,167)"/>
<path d="M0 0 C4.9103308 0.66613015 9.76048172 1.48143887 14.625 2.4375 C16.53152344 2.80681641 16.53152344 2.80681641 18.4765625 3.18359375 C21.50335993 3.88492486 24.16701763 4.7463239 27 6 C27 6.33 27 6.66 27 7 C6.9162721 5.85348797 6.9162721 5.85348797 0 0 Z " fill="#B1B1AF" transform="translate(405,216)"/>
<path d="M0 0 C0 0.66 0 1.32 0 2 C-3.375 2.625 -3.375 2.625 -7 3 C-7.66 2.34 -8.32 1.68 -9 1 C-8.67 0.67 -8.34 0.34 -8 0 C-13.94 -0.33 -19.88 -0.66 -26 -1 C-26 -1.33 -26 -1.66 -26 -2 C-16.53438746 -3.32850702 -9.17900673 -2.78855901 0 0 Z " fill="#C8C6C0" transform="translate(766,298)"/>
<path d="M0 0 C0.54785156 0.16242188 1.09570312 0.32484375 1.66015625 0.4921875 C4.31282363 1.06789161 6.72405462 1.13252689 9.4375 1.125 C10.82775391 1.12886719 10.82775391 1.12886719 12.24609375 1.1328125 C15.00259499 1.09109493 15.00259499 1.09109493 17.609375 0.33984375 C20 0 20 0 22.01953125 0.99609375 C22.61121094 1.47175781 23.20289063 1.94742187 23.8125 2.4375 C24.41707031 2.91058594 25.02164062 3.38367188 25.64453125 3.87109375 C26.09183594 4.24363281 26.53914063 4.61617188 27 5 C26.01 5.495 26.01 5.495 25 6 C24.25492187 5.505 23.50984375 5.01 22.7421875 4.5 C19.27370099 2.60270823 17.89725942 3.05938466 14.125 4 C8.55208974 5.12695103 5.82466223 5.00201206 1 2 C0.67 1.34 0.34 0.68 0 0 Z " fill="#6C6C6A" transform="translate(335,274)"/>
<path d="M0 0 C0.90105469 0.00902344 1.80210937 0.01804688 2.73046875 0.02734375 C3.41753906 0.03894531 4.10460937 0.05054688 4.8125 0.0625 C4.34199219 0.50207031 3.87148437 0.94164062 3.38671875 1.39453125 C1.46398339 3.43177194 0.73373403 5.44052622 -0.1875 8.0625 C-3.13706528 6.69305898 -5.71218811 5.18419591 -8.1875 3.0625 C-8.1875 2.4025 -8.1875 1.7425 -8.1875 1.0625 C-5.17259443 0.05753148 -3.14568308 -0.04085303 0 0 Z " fill="#1D1D1C" transform="translate(215.1875,209.9375)"/>
<path d="M0 0 C0 0.33 0 0.66 0 1 C-1.6396875 1.2165625 -1.6396875 1.2165625 -3.3125 1.4375 C-6.93122987 1.88288104 -6.93122987 1.88288104 -10 3 C-12 3 -14 3 -16 3 C-16.33 3.33 -16.66 3.66 -17 4 C-18.63472882 4.08700342 -20.27314055 4.10701063 -21.91015625 4.09765625 C-22.89951172 4.09443359 -23.88886719 4.09121094 -24.90820312 4.08789062 C-25.94912109 4.07951172 -26.99003906 4.07113281 -28.0625 4.0625 C-29.10728516 4.05798828 -30.15207031 4.05347656 -31.22851562 4.04882812 C-33.8190666 4.03699913 -36.40950559 4.02051689 -39 4 C-39 3.67 -39 3.34 -39 3 C-37.24236328 2.92652344 -37.24236328 2.92652344 -35.44921875 2.8515625 C-27.65334167 2.49184226 -20.13664571 2.01261189 -12.48046875 0.41015625 C-8.32842478 -0.2764022 -4.19388477 -0.16375255 0 0 Z " fill="#100D0B" transform="translate(743,168)"/>
<path d="M0 0 C8.51372785 -0.31274919 16.6030674 0.62707087 25 2 C25 2.33 25 2.66 25 3 C16.82247606 4.21269894 9.04614567 4.10380873 1 2 C0.67 1.34 0.34 0.68 0 0 Z " fill="#A9A9A5" transform="translate(283,240)"/>
<path d="M0 0 C0.33 1.32 0.66 2.64 1 4 C0.01 4.33 -0.98 4.66 -2 5 C-1.67 8.63 -1.34 12.26 -1 16 C-4 13 -4 13 -4.1875 9.8125 C-4.0946875 8.4203125 -4.0946875 8.4203125 -4 7 C-7.63 7 -11.26 7 -15 7 C-15 6.67 -15 6.34 -15 6 C-13.87851562 5.92652344 -13.87851562 5.92652344 -12.734375 5.8515625 C-11.74953125 5.77679688 -10.7646875 5.70203125 -9.75 5.625 C-8.77546875 5.55539062 -7.8009375 5.48578125 -6.796875 5.4140625 C-4.10366811 5.01534751 -2.33036721 4.36492937 0 3 C0 2.01 0 1.02 0 0 Z " fill="#C7C7C5" transform="translate(744,336)"/>
<path d="M0 0 C-7.18803464 4.0252994 -13.4207128 4.20216251 -21.4375 3.625 C-22.82098633 3.53992188 -22.82098633 3.53992188 -24.23242188 3.453125 C-26.48919779 3.31280733 -28.74465997 3.16152895 -31 3 C-31 2.67 -31 2.34 -31 2 C-30.43079834 1.98018066 -29.86159668 1.96036133 -29.27514648 1.93994141 C-26.66218288 1.84388242 -24.04993198 1.73453593 -21.4375 1.625 C-20.09461914 1.57859375 -20.09461914 1.57859375 -18.72460938 1.53125 C-13.01859367 1.28043612 -5.15460116 -2.06184046 0 0 Z " fill="#A7A7A5" transform="translate(464,262)"/>
<path d="M0 0 C0.33 0 0.66 0 1 0 C1.5497272 5.63470383 -0.04952165 8.38987758 -3 13 C-1.35 14.65 0.3 16.3 2 18 C1.01 18.33 0.02 18.66 -1 19 C-2.65 17.35 -4.3 15.7 -6 14 C-5.731875 13.34 -5.46375 12.68 -5.1875 12 C-3.96409837 8.90930115 -2.81712447 5.79642601 -1.68359375 2.671875 C-1 1 -1 1 0 0 Z " fill="#AEAFAB" transform="translate(811,232)"/>
<path d="M0 0 C0.89589844 0.09345703 1.79179687 0.18691406 2.71484375 0.28320312 C4.12056641 0.43885742 4.12056641 0.43885742 5.5546875 0.59765625 C6.49957031 0.69755859 7.44445312 0.79746094 8.41796875 0.90039062 C10.75582805 1.1483454 13.0929564 1.4018194 15.4296875 1.66015625 C15.4296875 1.99015625 15.4296875 2.32015625 15.4296875 2.66015625 C7.93793285 3.73751035 0.94063566 3.49900785 -6.5703125 2.66015625 C-6.5703125 2.00015625 -6.5703125 1.34015625 -6.5703125 0.66015625 C-4.06620763 -0.59189618 -2.76967241 -0.29800273 0 0 Z " fill="#DCD8D1" transform="translate(384.5703125,338.33984375)"/>
<path d="M0 0 C3.64492989 5.46739483 4.31803421 8.42729302 4 15 C3.67 15.66 3.34 16.32 3 17 C3.99 17 4.98 17 6 17 C6 17.99 6 18.98 6 20 C5.01 20 4.02 20 3 20 C3 19.34 3 18.68 3 18 C2.34 18 1.68 18 1 18 C1.01160156 17.28714844 1.02320313 16.57429688 1.03515625 15.83984375 C1.08606026 10.43674634 0.94608271 5.32171525 0 0 Z " fill="#797977" transform="translate(707,311)"/>
<path d="M0 0 C0.70125 0.7425 1.4025 1.485 2.125 2.25 C4.8826479 5.08531607 4.8826479 5.08531607 8.1875 6.9375 C11.50450678 9.36997164 12.10405292 11.05783283 13 15 C3.4655115 8.1152949 3.4655115 8.1152949 0 4 C0 2.68 0 1.36 0 0 Z " fill="#C4C5C2" transform="translate(303,183)"/>
<path d="M0 0 C0.66 0 1.32 0 2 0 C2.33910994 2.04071515 2.67102704 4.08262621 3 6.125 C3.185625 7.26195312 3.37125 8.39890625 3.5625 9.5703125 C3.96956049 12.76137602 4.07809902 15.78817791 4 19 C0.65227918 15.65227918 0.10231674 11.06871666 -0.125 6.47265625 C-0.125 4.31121831 -0.08997599 2.15942371 0 0 Z " fill="#ADADAB" transform="translate(765,242)"/>
<path d="M0 0 C10.89 0 21.78 0 33 0 C33 0.33 33 0.66 33 1 C17.655 1.495 17.655 1.495 2 2 C1.67 2.66 1.34 3.32 1 4 C0.34 4 -0.32 4 -1 4 C-0.67 2.68 -0.34 1.36 0 0 Z " fill="#050302" transform="translate(748,167)"/>
<path d="M0 0 C5.13503344 0.64187918 9.9943454 1.68272247 15 3 C15 3.33 15 3.66 15 4 C8.4 4 1.8 4 -5 4 C-5 3.67 -5 3.34 -5 3 C-2.36 3 0.28 3 3 3 C3 2.34 3 1.68 3 1 C2.01 0.67 1.02 0.34 0 0 Z " fill="#0D0D0B" transform="translate(455,275)"/>
<path d="M0 0 C0.33 0 0.66 0 1 0 C1 2.64 1 5.28 1 8 C1.66 8.33 2.32 8.66 3 9 C3.639375 9.33 4.27875 9.66 4.9375 10 C7.1118245 11.10912994 7.1118245 11.10912994 10 12 C10 12.66 10 13.32 10 14 C5.00088076 13.52389341 2.02167317 11.96837781 -2 9 C-1.34 6.03 -0.68 3.06 0 0 Z " fill="#1D1D1B" transform="translate(791,229)"/>
<path d="M0 0 C6.45353615 2.05764921 12.7361263 4.42383482 19 7 C19 7.33 19 7.66 19 8 C11.84937514 7.59524765 6.37295696 5.17476348 0 2 C0 1.34 0 0.68 0 0 Z " fill="#A5A5A3" transform="translate(195,234)"/>
<path d="M0 0 C-5.17691829 2.58845914 -8.80778801 3.12388292 -14.625 3.0625 C-15.42679688 3.05798828 -16.22859375 3.05347656 -17.0546875 3.04882812 C-19.03649006 3.03703168 -21.01825433 3.01909605 -23 3 C-23 2.67 -23 2.34 -23 2 C-7.25512528 -0.29612756 -7.25512528 -0.29612756 0 0 Z " fill="#C4C5C1" transform="translate(585,285)"/>
<path d="M0 0 C2.76734813 1.3283271 5.31294308 2.81254083 7.875 4.5 C11.14349586 6.574944 14.24370987 7.96702021 18 9 C18 9.66 18 10.32 18 11 C12.2444171 10.55726285 7.65601385 8.29572745 3 5 C0.9375 2.1875 0.9375 2.1875 0 0 Z " fill="#A4A4A2" transform="translate(265,229)"/>
<path d="M0 0 C4.39383706 1.59623144 8.28995807 3.78024333 12.3125 6.125 C12.95767578 6.49753906 13.60285156 6.87007813 14.26757812 7.25390625 C15.84675945 8.16632213 17.42361864 9.08275509 19 10 C18.01 10.66 17.02 11.32 16 12 C10.4448175 8.66098073 4.97110595 5.17784436 0 1 C0 0.67 0 0.34 0 0 Z " fill="#9E9E9B" transform="translate(714,285)"/>
<path d="M0 0 C-0.99 0.495 -0.99 0.495 -2 1 C-2 1.66 -2 2.32 -2 3 C-1.01 3.66 -0.02 4.32 1 5 C-4.2584002 4.32584613 -9.02638346 2.75734451 -14 1 C-14 0.67 -14 0.34 -14 0 C-12.41773035 -0.19627391 -10.83410729 -0.38165538 -9.25 -0.5625 C-8.36828125 -0.66691406 -7.4865625 -0.77132813 -6.578125 -0.87890625 C-4.11567549 -0.99456676 -2.33461936 -0.73638695 0 0 Z " fill="#100F0E" transform="translate(456,267)"/>
<path d="M0 0 C5.78591511 -0.10477512 11.29309366 0.00749455 17 1 C17 1.66 17 2.32 17 3 C10.90218999 3.22084624 5.78357065 3.01167675 0 1 C0 0.67 0 0.34 0 0 Z " fill="#C4C5C1" transform="translate(697,283)"/>
<path d="M0 0 C1.15242188 0.00902344 2.30484375 0.01804688 3.4921875 0.02734375 C4.36101562 0.03894531 5.22984375 0.05054688 6.125 0.0625 C6.125 0.7225 6.125 1.3825 6.125 2.0625 C-0.3239191 3.38159709 -6.36255792 2.75758823 -12.875 2.0625 C-12.875 1.7325 -12.875 1.4025 -12.875 1.0625 C-8.52167264 0.22226812 -4.43057481 -0.04520995 0 0 Z " fill="#CACBC6" transform="translate(262.875,225.9375)"/>
<path d="M0 0 C2.375 0.3125 2.375 0.3125 5 1 C5.66 1.99 6.32 2.98 7 4 C10.06556598 4.73343428 10.06556598 4.73343428 13 5 C13 5.33 13 5.66 13 6 C10.89611431 6.05402274 8.79183286 6.09280256 6.6875 6.125 C4.92986328 6.15980469 4.92986328 6.15980469 3.13671875 6.1953125 C0 6 0 6 -3 4 C-1.02 4 0.96 4 3 4 C2.01 2.68 1.02 1.36 0 0 Z " fill="#10100E" transform="translate(298,236)"/>
<path d="M0 0 C1.32 0.33 2.64 0.66 4 1 C4.33 3.31 4.66 5.62 5 8 C1.47967572 8 0.5614657 7.29648649 -2 5 C-2 3 -2 3 0 1 C0 0.67 0 0.34 0 0 Z " fill="#2E2E2B" transform="translate(749,168)"/>
<path d="M0 0 C0.59425781 0.13277344 1.18851563 0.26554687 1.80078125 0.40234375 C8.18510825 1.76261249 14.49213554 2.5298501 21 3 C21 3.33 21 3.66 21 4 C12.85015527 5.26867295 7.20214017 5.23762288 0 1 C0 0.67 0 0.34 0 0 Z " fill="#969694" transform="translate(619,290)"/>
<path d="M0 0 C7.04440079 -0.21133202 13.24112575 -0.07965362 20 2 C19.67 2.66 19.34 3.32 19 4 C18.29875 3.86722656 17.5975 3.73445312 16.875 3.59765625 C11.2595442 2.55238798 5.67566491 1.6425281 0 1 C0 0.67 0 0.34 0 0 Z " fill="#9B9B99" transform="translate(364,210)"/>
<path d="M0 0 C11.52164009 -0.18451025 11.52164009 -0.18451025 17 1 C17 1.33 17 1.66 17 2 C11.1314592 3.14819277 5.9114744 2.77313045 0 2 C0 1.34 0 0.68 0 0 Z " fill="#7F7F7D" transform="translate(676,293)"/>
<path d="M0 0 C6.40353322 -0.2361959 11.84629161 0.176679 18 2 C18 2.33 18 2.66 18 3 C11.64012196 3.20190089 6.14778871 2.6277833 0 1 C0 0.67 0 0.34 0 0 Z " fill="#B2B2B0" transform="translate(521,260)"/>
<path d="M0 0 C0 0.33 0 0.66 0 1 C-6.0018137 1.21824777 -11.19233704 0.5056904 -17 -1 C-17 -1.33 -17 -1.66 -17 -2 C-10.91891127 -3.80789124 -5.83137661 -1.83657235 0 0 Z " fill="#D4D3D1" transform="translate(319,245)"/>
<path d="M0 0 C4.29 1.65 8.58 3.3 13 5 C13 5.33 13 5.66 13 6 C7.34388537 6.56561146 3.77357872 4.71391278 -1 2 C-0.67 1.34 -0.34 0.68 0 0 Z " fill="#AEAEAC" transform="translate(469,221)"/>
<path d="M0 0 C1.89575251 -0.02721176 3.79161979 -0.04649136 5.6875 -0.0625 C6.74324219 -0.07410156 7.79898438 -0.08570313 8.88671875 -0.09765625 C11.72410262 -0.00865425 14.2438919 0.35060162 17 1 C13.25904806 3.50014115 10.55790579 2.90042304 6.25 2.125 C5.07953125 1.92132813 3.9090625 1.71765625 2.703125 1.5078125 C1.81109375 1.34023437 0.9190625 1.17265625 0 1 C0 0.67 0 0.34 0 0 Z " fill="#7F7F7D" transform="translate(228,241)"/>
<path d="M0 0 C2.31 0.33 4.62 0.66 7 1 C3.46813168 3.15059309 0.33712007 3.3797728 -3.75 3.625 C-4.92046875 3.69976562 -6.0909375 3.77453125 -7.296875 3.8515625 C-8.18890625 3.90054688 -9.0809375 3.94953125 -10 4 C-8.73046875 2.48046875 -8.73046875 2.48046875 -7 1 C-3.3125 1.3125 -3.3125 1.3125 0 2 C0 1.34 0 0.68 0 0 Z " fill="#CAC7BE" transform="translate(175,185)"/>
<path d="M0 0 C2.64 0 5.28 0 8 0 C8 1.65 8 3.3 8 5 C7.01 5.33 6.02 5.66 5 6 C5 4.68 5 3.36 5 2 C3.35 2 1.7 2 0 2 C0 1.34 0 0.68 0 0 Z " fill="#2D2D2B" transform="translate(732,343)"/>
<path d="M0 0 C6.75 0.875 6.75 0.875 9 2 C10.87056791 2.2275015 12.74685958 2.40962811 14.625 2.5625 C15.62789062 2.64628906 16.63078125 2.73007812 17.6640625 2.81640625 C18.43492187 2.87699219 19.20578125 2.93757813 20 3 C20 3.33 20 3.66 20 4 C17.79229195 4.08165496 15.58369575 4.13948488 13.375 4.1875 C11.53035156 4.23970703 11.53035156 4.23970703 9.6484375 4.29296875 C5.73592336 3.9787947 3.35929782 2.96906533 0 1 C0 0.67 0 0.34 0 0 Z " fill="#D7D8D3" transform="translate(542,272)"/>
<path d="M0 0 C6.09781001 -0.22084624 11.21642935 -0.01167675 17 2 C17 2.33 17 2.66 17 3 C10.93107371 3.25287193 5.83799592 2.69832609 0 1 C0 0.67 0 0.34 0 0 Z " fill="#B9B8B6" transform="translate(566,241)"/>
<path d="M0 0 C0 0.99 0 1.98 0 3 C-2.88211302 3.96070434 -4.69850044 4.10581883 -7.6875 4.0625 C-8.89986328 4.04896484 -8.89986328 4.04896484 -10.13671875 4.03515625 C-11.05904297 4.01775391 -11.05904297 4.01775391 -12 4 C-10 1 -10 1 -7.6875 0.3125 C-5.09355691 0.01087871 -2.60858859 -0.0745311 0 0 Z " fill="#9C9B98" transform="translate(545,271)"/>
<path d="M0 0 C3.3 1.65 6.6 3.3 10 5 C10 5.33 10 5.66 10 6 C5.32538149 6.32613618 2.83325617 5.70582788 -1 3 C-0.67 2.01 -0.34 1.02 0 0 Z " fill="#BABAB7" transform="translate(160,202)"/>
<path d="M0 0 C9.41002278 -0.18451025 9.41002278 -0.18451025 14 1 C10.70901716 3.19398856 10.15167419 3.21503664 6.4375 2.75 C5.65246094 2.66234375 4.86742187 2.5746875 4.05859375 2.484375 C2 2 2 2 0 0 Z " fill="#AFAFAD" transform="translate(652,278)"/>
<path d="M0 0 C0.33 0.99 0.66 1.98 1 3 C0.01 2.67 -0.98 2.34 -2 2 C-2 1.34 -2 0.68 -2 0 C-5.37705625 0.53725895 -8.696686 1.11064623 -12 2 C-12 1.34 -12 0.68 -12 0 C-4.36363636 -2.69518717 -4.36363636 -2.69518717 0 0 Z " fill="#30302E" transform="translate(574,238)"/>
<path d="M0 0 C0 0.66 0 1.32 0 2 C-6.75 2.125 -6.75 2.125 -9 1 C-9 0.34 -9 -0.32 -9 -1 C-5.23375329 -2.25541557 -3.62811066 -1.37061958 0 0 Z " fill="#E2DFD8" transform="translate(160,202)"/>
<path d="M0 0 C4.16445467 0.09254344 5.72862455 0.75812188 8.875 3.5625 C9.926875 4.7690625 9.926875 4.7690625 11 6 C10.278125 5.690625 9.55625 5.38125 8.8125 5.0625 C6.18845849 4.07119543 3.74974902 3.50653271 1 3 C0.01 2.67 -0.98 2.34 -2 2 C-1.34 1.34 -0.68 0.68 0 0 Z " fill="#A2A2A0" transform="translate(351,274)"/>
<path d="M0 0 C4.571279 0.54855348 8.67435795 1.41744803 13 3 C13 3.33 13 3.66 13 4 C7.73946963 4.31563182 4.55426184 3.66590937 0 1 C0 0.67 0 0.34 0 0 Z " fill="#C0C0BE" transform="translate(327,206)"/>
<path d="M0 0 C2.97 0 5.94 0 9 0 C9 0.99 9 1.98 9 3 C6.03 3 3.06 3 0 3 C0 2.01 0 1.02 0 0 Z " fill="#2A2A28" transform="translate(465,257)"/>
<path d="M0 0 C4.54805635 -0.17835515 7.8794254 0.00214565 12 2 C12 2.33 12 2.66 12 3 C8.37 3 4.74 3 1 3 C0.67 2.01 0.34 1.02 0 0 Z " fill="#2B2B29" transform="translate(344,246)"/>
<path d="M0 0 C4.92127034 -0.16682272 8.50343896 -0.24828052 13 2 C13 2.33 13 2.66 13 3 C11.20759337 2.88610125 9.41605165 2.75852313 7.625 2.625 C6.12839844 2.52058594 6.12839844 2.52058594 4.6015625 2.4140625 C2 2 2 2 0 0 Z " fill="#C2C2C0" transform="translate(419,220)"/>
<path d="M0 0 C1.98 0.66 3.96 1.32 6 2 C5 4 5 4 2.625 4.8125 C0 5 0 5 -1.8125 3.5625 C-2.204375 3.046875 -2.59625 2.53125 -3 2 C-2.34 2 -1.68 2 -1 2 C-0.67 1.34 -0.34 0.68 0 0 Z " fill="#CCC8BF" transform="translate(149,197)"/>
<path d="M0 0 C0.66 0.99 1.32 1.98 2 3 C1.67 3.66 1.34 4.32 1 5 C-0.32 4.67 -1.64 4.34 -3 4 C-3 3.34 -3 2.68 -3 2 C-4.65 2 -6.3 2 -8 2 C-8 1.67 -8 1.34 -8 1 C-5.36 0.67 -2.72 0.34 0 0 Z " fill="#2E2C29" transform="translate(743,168)"/>
<path d="M0 0 C0.99 0.33 1.98 0.66 3 1 C2.67 4.3 2.34 7.6 2 11 C1.67 11 1.34 11 1 11 C0.67 7.37 0.34 3.74 0 0 Z " fill="#E3E0D6" transform="translate(798,335)"/>
<path d="M0 0 C0.91007813 0.10183594 1.82015625 0.20367187 2.7578125 0.30859375 C3.45648437 0.39238281 4.15515625 0.47617188 4.875 0.5625 C1.34837274 2.48611487 -1.07490588 2.9146821 -5.125 2.5625 C-5.785 1.9025 -6.445 1.2425 -7.125 0.5625 C-4.50184968 -0.74907516 -2.89466564 -0.33399988 0 0 Z " fill="#535351" transform="translate(612.125,248.4375)"/>
<path d="M0 0 C2.97 0.33 5.94 0.66 9 1 C9 1.66 9 2.32 9 3 C6.03 2.67 3.06 2.34 0 2 C0 1.34 0 0.68 0 0 Z " fill="#61615F" transform="translate(739,231)"/>
<path d="M0 0 C1.8871875 0.0309375 1.8871875 0.0309375 3.8125 0.0625 C3.8125 0.3925 3.8125 0.7225 3.8125 1.0625 C1.5025 1.3925 -0.8075 1.7225 -3.1875 2.0625 C-3.1875 2.7225 -3.1875 3.3825 -3.1875 4.0625 C-4.5075 3.7325 -5.8275 3.4025 -7.1875 3.0625 C-7.1875 2.4025 -7.1875 1.7425 -7.1875 1.0625 C-4.43671116 0.14557039 -2.82801087 -0.04636083 0 0 Z " fill="#C3C3C1" transform="translate(171.1875,213.9375)"/>
<path d="M0 0 C3.96 0 7.92 0 12 0 C12 0.33 12 0.66 12 1 C7.71 1.66 3.42 2.32 -1 3 C-0.67 2.01 -0.34 1.02 0 0 Z " fill="#5C5C5A" transform="translate(373,279)"/>
<path d="M0 0 C2.31 0 4.62 0 7 0 C7.33 0.99 7.66 1.98 8 3 C5.69 3 3.38 3 1 3 C0.67 2.01 0.34 1.02 0 0 Z " fill="#1D1D1B" transform="translate(565,238)"/>
<path d="M0 0 C0.66 0.99 1.32 1.98 2 3 C1 4 1 4 -2.0625 4.0625 C-3.031875 4.041875 -4.00125 4.02125 -5 4 C-5.33 3.34 -5.66 2.68 -6 2 C-2.25 0.875 -2.25 0.875 0 2 C0 1.34 0 0.68 0 0 Z " fill="#292927" transform="translate(569,270)"/>
<path d="M0 0 C0 0.99 0 1.98 0 3 C-2.97 2.67 -5.94 2.34 -9 2 C-9 1.67 -9 1.34 -9 1 C-5.846632 0.29925156 -3.27275026 0 0 0 Z " fill="#B3B3B1" transform="translate(505,266)"/>
<path d="M0 0 C1.62463842 -0.05395478 3.24978541 -0.09277195 4.875 -0.125 C5.77992188 -0.14820313 6.68484375 -0.17140625 7.6171875 -0.1953125 C10 0 10 0 12 2 C10.02 2.33 8.04 2.66 6 3 C6 2.34 6 1.68 6 1 C4.02 1 2.04 1 0 1 C0 0.67 0 0.34 0 0 Z " fill="#0A0908" transform="translate(312,247)"/>
<path d="M0 0 C2.64 1.32 5.28 2.64 8 4 C3.23374833 5.19156292 2.12120649 4.3415946 -2 2 C-1.34 1.34 -0.68 0.68 0 0 Z " fill="#BDBDBB" transform="translate(791,239)"/>
<path d="M0 0 C1 2 1 2 1 6 C1.66 6.66 2.32 7.32 3 8 C1.68 8 0.36 8 -1 8 C-1.93065133 5.39417629 -2.14917407 4.35801776 -1.0625 1.75 C-0.711875 1.1725 -0.36125 0.595 0 0 Z " fill="#BDBDB9" transform="translate(747,167)"/>
<path d="M0 0 C0.33 1.32 0.66 2.64 1 4 C1.99 4 2.98 4 4 4 C4 4.99 4 5.98 4 7 C3.01 7 2.02 7 1 7 C1 6.34 1 5.68 1 5 C0.34 5 -0.32 5 -1 5 C-0.67 3.35 -0.34 1.7 0 0 Z " fill="#8D8D8B" transform="translate(709,324)"/>
<path d="M0 0 C6.625 -0.25 6.625 -0.25 10 2 C9.2575 1.979375 8.515 1.95875 7.75 1.9375 C5.29537721 1.99328688 3.33890739 2.3069904 1 3 C0.67 2.01 0.34 1.02 0 0 Z " fill="#CFCBC0" transform="translate(92,283)"/>
<path d="M0 0 C3.63 0.66 7.26 1.32 11 2 C11 2.33 11 2.66 11 3 C7.04 3 3.08 3 -1 3 C-0.67 2.01 -0.34 1.02 0 0 Z " fill="#E3E4DF" transform="translate(178,211)"/>
<path d="M0 0 C0.99 0.33 1.98 0.66 3 1 C3.33 3.64 3.66 6.28 4 9 C3.34 9 2.68 9 2 9 C1.34 6.03 0.68 3.06 0 0 Z " fill="#868684" transform="translate(755,194)"/>
</svg>
