<?xml version="1.0" encoding="UTF-8"?>
<svg version="1.1" xmlns="http://www.w3.org/2000/svg" viewBox="0 0 1024 501">
<path d="M0 0 C3.68808731 -0.10482198 7.37634355 -0.17840322 11.06530762 -0.24446106 C12.74944237 -0.28185987 14.43333181 -0.33326652 16.11657715 -0.39955139 C30.35584109 -0.94886131 30.35584109 -0.94886131 35.55480957 3.85902405 C38.40159505 7.43636535 39.85019201 10.71645895 40.61730957 15.2613678 C40.8261377 16.22171936 41.03496582 17.18207092 41.25012207 18.17152405 C43.89544437 35.11418356 47.98384023 65.48737508 37.61730957 80.2613678 C37.0330611 81.12863015 37.0330611 81.12863015 36.43700963 82.01341295 C32.81835447 86.86233632 32.81835447 86.86233632 29.67568433 87.90644741 C27.37597399 88.14608915 25.16642043 88.16630424 22.8547821 88.10987854 C21.98296195 88.11656508 21.11114179 88.12325162 20.21290284 88.13014078 C17.29226056 88.14400307 14.37440185 88.10785934 11.45397949 88.07191467 C9.35434812 88.07157695 7.25471435 88.07431198 5.15509033 88.07987976 C-0.57649163 88.08618415 -6.30707483 88.04890755 -12.03845429 88.00405693 C-18.13628607 87.9636623 -24.23413205 87.96280788 -30.33207703 87.95729065 C-41.99588177 87.94063023 -53.65923735 87.88754699 -65.32285851 87.82204294 C-78.2006813 87.75160282 -91.07846845 87.72364748 -103.95644593 87.69873047 C-167.43489116 87.57022971 -230.90896149 87.02558034 -294.38269043 86.2613678 C-294.38269043 85.6013678 -294.38269043 84.9413678 -294.38269043 84.2613678 C-294.93956543 84.1582428 -295.49644043 84.0551178 -296.07019043 83.9488678 C-298.85960053 83.11958371 -300.99659683 81.91837724 -303.38269043 80.2613678 C-303.38269043 79.6013678 -303.38269043 78.9413678 -303.38269043 78.2613678 C-326.83657669 79.01271181 -326.83657669 79.01271181 -346.25769043 91.2144928 C-356.14160914 103.76706956 -356.80979569 117.21877574 -355.11608887 132.69789124 C-354.0113747 140.19650844 -354.0113747 140.19650844 -351.37487793 147.23402405 C-349.97865942 150.08692723 -349.50255465 152.9644402 -348.88269043 156.0738678 C-348.1576742 159.68712803 -347.40494605 163.18850125 -346.32800293 166.7144928 C-345.29317382 170.59724003 -344.97054306 174.19014325 -344.75769043 178.1988678 C-344.71901855 178.88271545 -344.68034668 179.56656311 -344.64050293 180.27113342 C-344.54746631 181.93416292 -344.46405256 183.59772627 -344.38269043 185.2613678 C-354.64617661 185.48638942 -364.76856834 185.23286802 -374.99987793 184.37464905 C-386.69961609 183.45341267 -398.39822917 182.82782494 -410.12097168 182.29652405 C-410.99131609 182.25668648 -411.8616605 182.21684891 -412.75837898 182.17580414 C-420.88561041 181.80401227 -429.01317632 181.44005047 -437.14123535 181.08680725 C-457.20902686 180.21128462 -477.14142919 179.08567878 -497.11486816 176.91932678 C-504.82235783 176.08574068 -512.51503097 175.62612908 -520.25769043 175.2613678 C-531.71988557 174.6628321 -543.14316566 173.84099007 -554.57019043 172.7613678 C-555.83911133 172.64277405 -557.10803223 172.5241803 -558.41540527 172.4019928 C-564.70372457 171.79084754 -570.95695764 171.06246867 -577.21472168 170.1910553 C-582.79927935 169.42726839 -588.25419493 169.00226448 -593.88269043 168.8863678 C-603.18130872 168.56670289 -612.35302769 167.52678287 -621.57019043 166.3238678 C-622.23309082 166.23832642 -622.89599121 166.15278503 -623.57897949 166.06465149 C-629.62330356 165.2785519 -635.63454951 164.46802456 -641.59753418 163.19496155 C-646.95168677 162.06896202 -652.30828698 161.66122397 -657.75769043 161.2613678 C-664.6776433 160.70816671 -671.49157302 160.08630954 -678.3182373 158.78529358 C-681.78775335 158.19211469 -685.25727414 157.78322663 -688.75378418 157.3785553 C-696.23328243 156.47543861 -703.61282275 155.21143768 -711.00970459 153.77442932 C-713.07308118 153.37366719 -715.13760182 152.97932891 -717.20251465 152.58656311 C-719.97514636 152.05899241 -722.74742831 151.52965192 -725.51940918 150.99867249 C-730.84510151 149.9822676 -736.17448517 148.98753695 -741.50769043 148.0113678 C-742.39448486 147.84838196 -743.2812793 147.68539612 -744.19494629 147.51747131 C-748.97608148 146.65211367 -753.7475006 145.92739615 -758.57019043 145.3238678 C-764.99008306 144.46275645 -771.11282551 142.85289466 -777.3494873 141.15052795 C-782.06864923 139.86253465 -786.77790384 138.69339022 -791.57019043 137.6988678 C-805.02759221 134.8868734 -818.05605449 131.22853457 -831.15905762 127.07899475 C-836.58812311 125.37098802 -841.95907775 123.84603757 -847.52990723 122.68226624 C-849.82416319 122.16107803 -851.91406641 121.38544662 -854.07019043 120.4488678 C-858.15151828 118.73877871 -862.26750143 117.22131288 -866.44519043 115.7613678 C-871.14241243 114.10262957 -875.68055234 112.30380137 -880.19909668 110.2144928 C-882.60085558 109.16614008 -885.03173032 108.30690978 -887.50769043 107.4488678 C-900.02398385 102.96880177 -911.74153321 96.6185955 -923.38269043 90.2613678 C-921.86114273 85.98140137 -918.66714011 83.97954136 -915.07019043 81.5113678 C-914.43991943 81.07236145 -913.80964844 80.6333551 -913.16027832 80.18104553 C-903.69142231 73.64593401 -893.91119806 67.90561464 -883.75769043 62.5113678 C-882.89909424 62.05125305 -882.04049805 61.59113831 -881.15588379 61.11708069 C-875.83999275 58.33681143 -870.50520632 56.10029142 -864.84216309 54.12367249 C-861.96972588 53.11658015 -859.17830132 51.96413062 -856.38269043 50.7613678 C-836.93694063 42.59465085 -816.38146662 36.81293205 -795.58215332 33.33509827 C-791.2869392 32.61506579 -787.06305205 31.75394027 -782.82019043 30.7613678 C-763.84308042 26.65475372 -744.50257352 25.69290319 -725.15222168 25.1363678 C-722.67058667 25.05738821 -720.18896359 24.97803301 -717.70735168 24.89833069 C-688.56468421 23.99287331 -659.41128829 23.60787805 -630.25823975 23.20924377 C-621.4076863 23.08772977 -612.55724365 22.96044838 -603.70690918 22.8238678 C-602.47416574 22.80492966 -601.24142231 22.78599152 -599.97132301 22.76647949 C-579.99822341 22.44962665 -560.05192594 21.78588429 -540.09405518 20.96022034 C-524.89709337 20.33391339 -509.72274677 19.94218135 -494.51318359 19.79750061 C-487.76500979 19.73147544 -481.01720523 19.63909371 -474.26940918 19.5426178 C-473.57629261 19.53280884 -472.88317604 19.52299988 -472.16905594 19.51289368 C-455.81817182 19.27647802 -439.47666162 18.77967363 -423.13269043 18.2613678 C-417.55721419 18.08545484 -411.98170225 17.91070788 -406.40612793 17.7379303 C-405.39102426 17.70646597 -405.39102426 17.70646597 -404.35541344 17.674366 C-371.04188692 16.64741139 -337.71265557 16.01965769 -304.38269043 16.2613678 C-304.05269043 15.2713678 -303.72269043 14.2813678 -303.38269043 13.2613678 C-298.76858629 8.35430467 -293.09550769 6.9429704 -286.60862732 6.67848206 C-285.71293533 6.65684998 -284.81724335 6.6352179 -283.89440918 6.6129303 C-282.42440208 6.56332153 -282.42440208 6.56332153 -280.92469788 6.51271057 C-263.7063293 5.98828583 -246.47153664 5.90975786 -229.24694824 5.73530579 C-223.35334302 5.67526122 -217.45978809 5.61193569 -211.56628418 5.5426178 C-210.75236332 5.53306564 -209.93844246 5.52351349 -209.09985733 5.51367188 C-199.103927 5.39155675 -189.13240535 5.15374493 -179.14823914 4.62782288 C-168.68178078 4.08760877 -158.20658896 3.97302027 -147.7286377 3.81581116 C-141.57672324 3.72266994 -135.42502219 3.61723551 -129.27331543 3.5113678 C-128.06860596 3.49070251 -126.86389648 3.47003723 -125.62268066 3.44874573 C-115.70761409 3.27493444 -105.79503871 3.05054869 -95.88269043 2.7613678 C-93.97761719 2.70819397 -93.97761719 2.70819397 -92.03405762 2.65394592 C-86.05485603 2.47006975 -80.10008171 2.18409998 -74.13269043 1.76527405 C-56.19184328 0.55235092 -38.14477109 0.67094135 -20.17126465 0.42993164 C-13.44539726 0.33630982 -6.72352833 0.20031644 0 0 Z " fill="#22231D" transform="translate(953.3826904296875,163.73863220214844)"/>
<path d="M0 0 C0 0.33 0 0.66 0 1 C-25.81832217 2.40250904 -51.63921885 3.26883282 -77.48828125 3.81640625 C-78.2274571 3.83206493 -78.96663295 3.84772361 -79.72820807 3.86385679 C-88.92218982 4.05771876 -98.11634793 4.24235426 -107.3105849 4.42365777 C-115.83931776 4.59204689 -124.36789801 4.76773432 -132.89648438 4.94335938 C-141.95027706 5.12959936 -151.00408527 5.31487491 -160.05799866 5.49516296 C-172.90094808 5.75116956 -185.74365431 6.01070388 -198.58569336 6.30981445 C-221.31134997 6.83615619 -244.01762533 7.14025984 -266.74945068 7.06866455 C-270.54064289 7.05798335 -274.33184362 7.05377663 -278.12304688 7.04882812 C-285.41538502 7.03845347 -292.70768564 7.02166224 -300 7 C-300 6.67 -300 6.34 -300 6 C-271.71358907 4.729054 -243.4433161 3.75339901 -215.13037109 3.34204102 C-204.44301346 3.1829281 -193.76693454 2.94632473 -183.0859375 2.5390625 C-163.72924149 1.80631907 -144.3653366 1.37072644 -125 0.9375 C-123.51689583 0.9039529 -123.51689583 0.9039529 -122.00382996 0.86972809 C-81.33217594 -0.04765834 -40.68007832 -0.24158898 0 0 Z " fill="#646560" transform="translate(556,195)"/>
<path d="M0 0 C5.34555645 0.01048739 10.69111822 0.01485025 16.03668213 0.01983643 C26.40518487 0.03035644 36.77366524 0.04727213 47.14215088 0.06866455 C47.14215088 0.39866455 47.14215088 0.72866455 47.14215088 1.06866455 C29.56650858 1.85165048 11.99137121 2.31709951 -5.59735107 2.67584229 C-13.950279 2.85171632 -22.29693863 3.07280671 -30.64462948 3.42179203 C-45.72237825 4.0486593 -60.79697212 4.3661061 -75.88519287 4.6038208 C-77.85771376 4.63609249 -79.83023462 4.66836675 -81.80275255 4.70081896 C-88.00556555 4.80278534 -94.2084222 4.90167532 -100.41131592 4.99859619 C-105.94165511 5.08506121 -111.47191793 5.17522762 -117.00213623 5.269104 C-155.62478136 5.92380666 -194.22911309 6.20389439 -232.85784912 6.06866455 C-232.85784912 5.73866455 -232.85784912 5.40866455 -232.85784912 5.06866455 C-225.40618649 4.32170795 -217.98254318 3.82388072 -210.49847412 3.56866455 C-208.74654755 3.50775635 -208.74654755 3.50775635 -206.95922852 3.44561768 C-186.04682473 2.77032232 -165.12164007 2.49453851 -144.2020874 2.13116455 C-134.76288791 1.96702686 -125.32373833 1.80010849 -115.8846283 1.63090706 C-113.56172683 1.58935901 -111.23882029 1.54809361 -108.91590881 1.50710869 C-97.69156491 1.3084692 -86.46821592 1.10331391 -75.246521 0.78570557 C-74.01471792 0.75085792 -74.01471792 0.75085792 -72.75802994 0.71530628 C-71.9494743 0.69236846 -71.14091866 0.66943064 -70.30786133 0.64579773 C-46.87067417 -0.01873798 -23.44539108 -0.05113348 0 0 Z " fill="#6B6C67" transform="translate(917.8578491210938,182.93133544921875)"/>
<path d="M0 0 C0.33 0.99 0.66 1.98 1 3 C1.99 3.33 2.98 3.66 4 4 C5.4049807 5.98753368 6.53467764 8.06224191 7.71875 10.1875 C8.95327565 12.31338935 8.95327565 12.31338935 12 13 C12 13.66 12 14.32 12 15 C14.97 15.495 14.97 15.495 18 16 C18 16.66 18 17.32 18 18 C17.30132813 18.17015625 16.60265625 18.3403125 15.8828125 18.515625 C14.97273437 18.75796875 14.06265625 19.0003125 13.125 19.25 C12.22007812 19.48203125 11.31515625 19.7140625 10.3828125 19.953125 C7.90665863 20.78341793 7.90665863 20.78341793 6.8046875 22.81640625 C6.53914062 23.53699219 6.27359375 24.25757813 6 25 C5.67 25.76699219 5.34 26.53398437 5 27.32421875 C4.33052851 28.90636818 3.66388319 30.4897163 3 32.07421875 C2 34 2 34 0 35 C-0.23074219 34.32453125 -0.46148438 33.6490625 -0.69921875 32.953125 C-2.66546976 27.57507876 -4.08732263 24.27511825 -9 21 C-9 20.34 -9 19.68 -9 19 C-11.31 18.67 -13.62 18.34 -16 18 C-16 17.34 -16 16.68 -16 16 C-12.27034861 13.96564469 -10.33094958 13 -6 13 C-4.53347983 10.11980724 -3.17952126 7.20691485 -1.875 4.25 C-1.34519531 3.05117188 -1.34519531 3.05117188 -0.8046875 1.828125 C-0.53914062 1.22484375 -0.27359375 0.6215625 0 0 Z " fill="#FCFBF8" transform="translate(984,445)"/>
<path d="M0 0 C1.921539 0.00022659 1.921539 0.00022659 3.88189697 0.00045776 C5.27510738 0.01067027 6.6683162 0.02110225 8.06152344 0.03173828 C9.4907003 0.03547014 10.91987972 0.0383163 12.34906006 0.04031372 C16.10395415 0.04793659 19.85869263 0.06757339 23.61352539 0.08972168 C27.44773249 0.11020919 31.28196483 0.11932164 35.11621094 0.12939453 C42.63451092 0.15082066 50.15268284 0.18494022 57.67089844 0.22705078 C57.67089844 0.55705078 57.67089844 0.88705078 57.67089844 1.22705078 C128.95089844 1.22705078 200.23089844 1.22705078 273.67089844 1.22705078 C273.67089844 0.89705078 273.67089844 0.56705078 273.67089844 0.22705078 C276.27534192 0.17310374 278.87866841 0.13340609 281.48339844 0.10205078 C282.59038086 0.07691406 282.59038086 0.07691406 283.71972656 0.05126953 C287.5833627 0.0163045 289.37993512 0.03307524 292.67089844 2.22705078 C290.33666632 3.39416684 288.98691171 3.35235398 286.3867588 3.35289192 C285.48187804 3.35549967 284.57699727 3.35810742 283.64469588 3.36079419 C282.64397657 3.35856346 281.64325727 3.35633274 280.61221313 3.35403442 C279.55376328 3.35559441 278.49531342 3.35715441 277.40478933 3.35876167 C273.83283396 3.36277234 270.26092058 3.35958142 266.68896484 3.35644531 C264.13627599 3.3577996 261.58358733 3.35957969 259.03089905 3.36175537 C252.79333355 3.36585732 246.55578373 3.365234 240.31821801 3.36234273 C235.23037732 3.3600828 230.14253999 3.35977877 225.05469894 3.36086655 C223.96749036 3.3610964 223.96749036 3.3610964 222.85831796 3.36133089 C221.38536236 3.36165065 219.91240675 3.36197486 218.43945114 3.36230348 C204.59557568 3.36516074 190.75170681 3.36187098 176.90783243 3.35650311 C165.1042417 3.35206688 153.30066085 3.35278398 141.49707031 3.35742188 C127.75487079 3.36281908 114.01267713 3.36485241 100.2704767 3.36180961 C98.79259578 3.36149113 97.31471487 3.36117676 95.83683395 3.36086655 C95.11000035 3.36071227 94.38316674 3.360558 93.63430787 3.36039905 C88.58719361 3.35954676 83.54008319 3.36098719 78.49296951 3.3633461 C48.8730292 3.37603186 19.27323214 3.36649212 -10.32910156 2.22705078 C-6.68755591 0.25419764 -4.17140102 -0.01642284 0 0 Z " fill="#3C3D38" transform="translate(678.3291015625,229.77294921875)"/>
<path d="M0 0 C1.66008087 -0.00972839 1.66008087 -0.00972839 3.35369873 -0.01965332 C4.3652301 -0.02025757 5.37676147 -0.02086182 6.41894531 -0.02148438 C7.70106903 -0.02456604 7.70106903 -0.02456604 9.00909424 -0.02770996 C11.671875 0.09375 11.671875 0.09375 14.82514954 0.58811951 C19.72362201 1.23199625 24.53702993 1.27049722 29.47241211 1.29907227 C30.53657349 1.30897186 31.60073486 1.31887146 32.69714355 1.32907104 C36.19781302 1.36053784 39.69849604 1.38538469 43.19921875 1.41015625 C45.63302453 1.43073858 48.06682683 1.45173538 50.50062561 1.47312927 C56.89398378 1.52821782 63.28737349 1.57768523 69.68078613 1.62597656 C76.20974523 1.67628828 82.73865873 1.73192379 89.26757812 1.78710938 C102.06897117 1.89452922 114.8704032 1.99619078 127.671875 2.09375 C127.671875 2.42375 127.671875 2.75375 127.671875 3.09375 C107.69271519 3.12491824 87.71355495 3.14490929 67.734375 3.15625 C66.9912953 3.1566843 66.2482156 3.15711861 65.48261833 3.15756607 C23.2929213 3.18155476 -18.89057908 3.07596786 -61.078125 2.59375 C-62.64849581 2.57581327 -62.64849581 2.57581327 -64.25059128 2.55751419 C-76.60993314 2.4152659 -88.96910545 2.26166486 -101.328125 2.09375 C-101.328125 1.76375 -101.328125 1.43375 -101.328125 1.09375 C-90.72910603 0.96132347 -80.13006507 0.8308259 -69.53099442 0.70259857 C-64.60610058 0.6429608 -59.6812157 0.58272943 -54.75634766 0.52099609 C-17.22609079 0.05150668 -17.22609079 0.05150668 0 0 Z " fill="#615E56" transform="translate(760.328125,247.90625)"/>
<path d="M0 0 C0.87626541 0.00085602 1.75253082 0.00171204 2.65534973 0.00259399 C13.6452534 0.01411547 24.63512653 0.03437643 35.625 0.0625 C35.625 0.3925 35.625 0.7225 35.625 1.0625 C-0.35508774 2.83518505 -36.34261129 4.39206453 -72.375 4.0625 C-72.375 3.7325 -72.375 3.4025 -72.375 3.0625 C-75.345 2.5675 -75.345 2.5675 -78.375 2.0625 C-78.375 1.7325 -78.375 1.4025 -78.375 1.0625 C-52.25452484 0.01186899 -26.13690227 -0.02571264 0 0 Z " fill="#64655F" transform="translate(520.375,194.9375)"/>
<path d="M0 0 C0 0.33 0 0.66 0 1 C-10.77071005 1.1750134 -21.54154112 1.34108098 -32.3125 1.5 C-33.11715698 1.51187725 -33.92181396 1.5237545 -34.75085449 1.53599167 C-66.8362447 2.00629199 -98.91123719 2.12301064 -131 2 C-131 1.67 -131 1.34 -131 1 C-87.68996848 -3.29987522 -43.43165544 -1.40054052 0 0 Z " fill="#60605C" transform="translate(816,187)"/>
<path d="M0 0 C4.39940898 0.01044425 8.79882425 0.01484159 13.19824219 0.01983643 C21.74773787 0.03038975 30.29720411 0.04733198 38.84667969 0.06866455 C38.84667969 0.39866455 38.84667969 0.72866455 38.84667969 1.06866455 C15.89904331 2.84257723 -7.14675789 3.16109794 -30.15332031 3.19366455 C-30.98645752 3.19625275 -31.81959473 3.19884094 -32.67797852 3.20150757 C-43.54654913 3.22823576 -54.31348594 2.88912788 -65.15332031 2.06866455 C-65.15332031 1.73866455 -65.15332031 1.40866455 -65.15332031 1.06866455 C-43.42725486 0.05148376 -21.74440056 -0.05731451 0 0 Z " fill="#747570" transform="translate(425.1533203125,196.93133544921875)"/>
<path d="M0 0 C7.25899226 -0.10174864 14.51779934 -0.17161187 21.77734375 -0.21972656 C24.24486158 -0.23979295 26.71233215 -0.26705244 29.1796875 -0.30175781 C32.73449393 -0.35049306 36.28866944 -0.37301939 39.84375 -0.390625 C41.48796936 -0.42159271 41.48796936 -0.42159271 43.16540527 -0.45318604 C51.48932281 -0.45560306 56.62487325 1.25069598 63.0546875 6.48828125 C72.20260398 15.64886797 81.47698287 26.6508791 86 39 C85.505 39.99 85.505 39.99 85 41 C84.54898926 40.24662354 84.54898926 40.24662354 84.08886719 39.47802734 C78.77645359 30.67018213 73.41251771 21.98728972 66.75 14.125 C66.29206055 13.57376465 65.83412109 13.0225293 65.36230469 12.45458984 C61.49687178 8.04536641 56.75275219 3.76410261 50.86029053 2.56433105 C48.59834995 2.42646306 46.38972751 2.43562303 44.125 2.51171875 C43.31506592 2.51879349 42.50513184 2.52586823 41.6706543 2.53315735 C39.11278359 2.5608911 36.55719594 2.62358216 34 2.6875 C32.25393812 2.71261037 30.50784154 2.73541872 28.76171875 2.75585938 C24.50694822 2.81064769 20.25385958 2.8967664 16 3 C16 2.67 16 2.34 16 2 C10.72 1.67 5.44 1.34 0 1 C0 0.67 0 0.34 0 0 Z " fill="#3C3D37" transform="translate(520,194)"/>
<path d="M0 0 C0.66 0 1.32 0 2 0 C2.02496472 4.10765642 2.04298366 8.21528264 2.05493164 12.32299805 C2.05991957 13.71656057 2.06671231 15.11011798 2.07543945 16.50366211 C2.12158795 24.06930078 2.05558458 31.49454426 1 39 C0.67 39 0.34 39 0 39 C0 37.02 0 35.04 0 33 C-1.97536745 33.34786708 -1.97536745 33.34786708 -4 34 C-5.50156874 37.00313748 -5.09281204 39.79067522 -5.0625 43.125 C-5.05347656 44.40632813 -5.04445313 45.68765625 -5.03515625 47.0078125 C-5.02355469 47.99523437 -5.01195312 48.98265625 -5 50 C-5.66 50 -6.32 50 -7 50 C-7.33 50.99 -7.66 51.98 -8 53 C-8.56601249 34.74085638 -8.56601249 34.74085638 -5 27 C-4.608125 25.989375 -4.21625 24.97875 -3.8125 23.9375 C-3.544375 23.298125 -3.27625 22.65875 -3 22 C-2.34 22 -1.68 22 -1 22 C-0.67 14.74 -0.34 7.48 0 0 Z " fill="#3C3C37" transform="translate(994,194)"/>
<path d="M0 0 C3.9018284 -0.65030473 5.88304905 -0.78808209 9.17578125 1.53515625 C14.51265786 6.59884722 16.85653141 10.61317198 17.1015625 18.10546875 C17.12244615 21.07442717 17.08770984 24.03248376 17 27 C16.01 27 15.02 27 14 27 C11.16036682 21.56765826 10.59678949 16.98032942 10.40625 10.8671875 C9.93464096 7.53871603 9.04063734 5.65986523 7 3 C3.42003741 1.63099646 3.42003741 1.63099646 0 1 C0 0.67 0 0.34 0 0 Z " fill="#1A1815" transform="translate(977,164)"/>
<path d="M0 0 C14.52 0 29.04 0 44 0 C44 0.66 44 1.32 44 2 C36.34125934 3.24063784 28.74288354 3.11179358 21 3.0625 C19.63932456 3.05747487 18.27864733 3.05291376 16.91796875 3.04882812 C13.61193275 3.03710459 10.30598999 3.02069427 7 3 C7 2.67 7 2.34 7 2 C4.69 1.67 2.38 1.34 0 1 C0 0.67 0 0.34 0 0 Z " fill="#383934" transform="translate(932,182)"/>
<path d="M0 0 C12.42483848 5.4881013 20.35206422 20.75797489 26.38745117 32.31616211 C26.58959229 32.87182861 26.7917334 33.42749512 27 34 C26.67 34.66 26.34 35.32 26 36 C25.54898926 35.24662354 25.54898926 35.24662354 25.08886719 34.47802734 C18.87998371 24.18385809 12.46197877 14.61988647 4.3984375 5.6875 C2 3 2 3 0 0 Z " fill="#474842" transform="translate(579,199)"/>
<path d="M0 0 C3.73508958 3.73508958 4.96138053 8.91839289 6 14 C5.80968272 18.14794082 5.04489766 21.98952575 4 26 C3.82855469 26.7321875 3.65710938 27.464375 3.48046875 28.21875 C3 30 3 30 2 32 C0.68 31.34 -0.64 30.68 -2 30 C-0.68 29.67 0.64 29.34 2 29 C1.98839844 28.41992188 1.97679687 27.83984375 1.96484375 27.2421875 C1.92343115 23.65703958 1.89854004 20.45195802 2.6875 16.9375 C3.07246495 13.31882942 2.09561543 11.26009102 0.703125 7.96875 C-0.25965009 5.27297974 -0.2122342 2.82978927 0 0 Z " fill="#3E3F3A" transform="translate(656,216)"/>
<path d="M0 0 C0.99 0.33 1.98 0.66 3 1 C3 4.96 3 8.92 3 13 C2.01 13.495 2.01 13.495 1 14 C0.67 13.01 0.34 12.02 0 11 C-0.33 12.65 -0.66 14.3 -1 16 C-1.33 16 -1.66 16 -2 16 C-2.24979445 14.08591243 -2.47408014 12.16848389 -2.6875 10.25 C-2.81511719 9.18265625 -2.94273437 8.1153125 -3.07421875 7.015625 C-2.99001814 3.59442134 -2.30925485 2.44579177 0 0 Z " fill="#1C1C18" transform="translate(991,226)"/>
<path d="M0 0 C0.99 0 1.98 0 3 0 C3 1.65 3 3.3 3 5 C-3.27 5 -9.54 5 -16 5 C-16 4.67 -16 4.34 -16 4 C-12.37 4 -8.74 4 -5 4 C-5 3.34 -5 2.68 -5 2 C-3.35 2 -1.7 2 0 2 C0 1.34 0 0.68 0 0 Z " fill="#3E3C35" transform="translate(606,344)"/>
<path d="M0 0 C0 0.33 0 0.66 0 1 C-3.18689285 1.19892707 -6.37451191 1.38204784 -9.5625 1.5625 C-10.90538086 1.64661133 -10.90538086 1.64661133 -12.27539062 1.73242188 C-17.36418468 2.01202594 -21.98526952 1.92865379 -27 1 C-27 0.67 -27 0.34 -27 0 C-18.03801158 -1.8867344 -9.02652058 -0.96099839 0 0 Z " fill="#BBB9AD" transform="translate(461,340)"/>
<path d="M0 0 C3.18538136 3.18538136 3.9314103 6.53543427 4 11 C2.71871584 15.51741294 0.96254889 19.73902976 -1 24 C-2.12431768 20.69361841 -1.87438865 19.10688762 -0.5 15.9375 C1.5084731 10.48463185 0.87642565 5.64924969 0 0 Z " fill="#42433E" transform="translate(658,179)"/>
<path d="M0 0 C0.99 0 1.98 0 3 0 C3.8320582 5.72040011 4.12036664 11.22240116 4 17 C3.67 17 3.34 17 3 17 C3 15.02 3 13.04 3 11 C1.68 11 0.36 11 -1 11 C-1.02688151 9.35425434 -1.04634123 7.70838587 -1.0625 6.0625 C-1.07410156 5.14597656 -1.08570313 4.22945312 -1.09765625 3.28515625 C-1 1 -1 1 0 0 Z " fill="#34342F" transform="translate(991,216)"/>
<path d="M0 0 C0.33 0 0.66 0 1 0 C2.56659619 6.98942918 2.56659619 6.98942918 0.953125 9.8671875 C-0.4375 11.5 -0.4375 11.5 -3 14 C-3.5625 12.0625 -3.5625 12.0625 -4 10 C-3.67 9.67 -3.34 9.34 -3 9 C-2.92851801 7.64756083 -2.91600546 6.29165633 -2.9375 4.9375 C-2.958125 3.638125 -2.97875 2.33875 -3 1 C-2.34 1.66 -1.68 2.32 -1 3 C-0.67 2.01 -0.34 1.02 0 0 Z " fill="#292823" transform="translate(991,234)"/>
<path d="M0 0 C0 0.66 0 1.32 0 2 C-3.00313748 3.50156874 -5.79067522 3.09281204 -9.125 3.0625 C-10.40632812 3.05347656 -11.68765625 3.04445312 -13.0078125 3.03515625 C-14.48894531 3.01775391 -14.48894531 3.01775391 -16 3 C-16 2.34 -16 1.68 -16 1 C-10.65097076 0.40801257 -5.39115154 -0.14187241 0 0 Z " fill="#2C2D28" transform="translate(240,201)"/>
<path d="M0 0 C2.78590165 -0.46431694 4.31031295 -0.68373353 7 0 C10.00148167 2.38030546 12.50707616 5.09914316 15 8 C14.67 8.99 14.34 9.98 14 11 C11 10 11 10 9.4375 7.0625 C8.963125 6.051875 8.48875 5.04125 8 4 C5.4345406 1.4345406 3.52313332 1.45953913 0 1 C0 0.67 0 0.34 0 0 Z " fill="#161510" transform="translate(977,164)"/>
<path d="M0 0 C1.65 0 3.3 0 5 0 C5.33 2.64 5.66 5.28 6 8 C5.01 8.33 4.02 8.66 3 9 C1.76078698 6.02588876 0.69941596 3.14737182 0 0 Z " fill="#262420" transform="translate(988,174)"/>
<path d="M0 0 C1.65 0.33 3.3 0.66 5 1 C1.98509443 3.00993705 -0.2149927 3.72623341 -3.6875 4.625 C-4.68136719 4.88539063 -5.67523438 5.14578125 -6.69921875 5.4140625 C-7.45847656 5.60742188 -8.21773438 5.80078125 -9 6 C-9 5.34 -9 4.68 -9 4 C-8.01 4 -7.02 4 -6 4 C-5.67 3.01 -5.34 2.02 -5 1 C-3.35 1.33 -1.7 1.66 0 2 C0 1.34 0 0.68 0 0 Z " fill="#CDC9BE" transform="translate(126,202)"/>
<path d="M0 0 C0.66 0 1.32 0 2 0 C2.33 0.99 2.66 1.98 3 3 C3.66 2.67 4.32 2.34 5 2 C5.66 2.33 6.32 2.66 7 3 C6.67 4.98 6.34 6.96 6 9 C1.3125 5.484375 1.3125 5.484375 0 4 C0 2.68 0 1.36 0 0 Z " fill="#E0DCD0" transform="translate(984,161)"/>
<path d="M0 0 C0.99 0.33 1.98 0.66 3 1 C2.01 2.98 1.02 4.96 0 7 C-0.99 7 -1.98 7 -3 7 C-3.33 7.66 -3.66 8.32 -4 9 C-4.99 8.67 -5.98 8.34 -7 8 C-4.69 5.36 -2.38 2.72 0 0 Z " fill="#E4E0D3" transform="translate(991,243)"/>
<path d="M0 0 C5.00890086 0.61512818 10.00632136 1.2717552 15 2 C15 2.33 15 2.66 15 3 C13.37585622 3.19477739 11.75063577 3.38059458 10.125 3.5625 C9.22007812 3.66691406 8.31515625 3.77132813 7.3828125 3.87890625 C5 4 5 4 3 3 C3 2.34 3 1.68 3 1 C2.01 0.67 1.02 0.34 0 0 Z " fill="#BFBCB1" transform="translate(203,310)"/>
<path d="M0 0 C1.88325912 3.76651824 2.40869661 5.01520804 2 9 C1.01 10.485 1.01 10.485 0 12 C-1.32 11.34 -2.64 10.68 -4 10 C-2.68 9.67 -1.36 9.34 0 9 C0 6.03 0 3.06 0 0 Z " fill="#33332D" transform="translate(658,236)"/>
<path d="M0 0 C0.66 1.32 1.32 2.64 2 4 C3.5412312 5.70921589 3.5412312 5.70921589 5 7 C4.67 7.66 4.34 8.32 4 9 C2.68 9.33 1.36 9.66 0 10 C0 6.7 0 3.4 0 0 Z " fill="#F9F3E7" transform="translate(610,341)"/>
<path d="M0 0 C2.125 0.9375 2.125 0.9375 4 2 C-0.75 6 -0.75 6 -3 6 C-2.625 3.5625 -2.625 3.5625 -2 1 C-1.34 0.67 -0.68 0.34 0 0 Z " fill="#D7D2C9" transform="translate(51,233)"/>
<path d="M0 0 C0.33 0.66 0.66 1.32 1 2 C1.99 2 2.98 2 4 2 C4 2.66 4 3.32 4 4 C3.34 4 2.68 4 2 4 C2 6.64 2 9.28 2 12 C-0.60018816 8.09971775 -0.15085514 4.52565431 0 0 Z " fill="#BAB6AC" transform="translate(994,182)"/>
<path d="M0 0 C0.33 0 0.66 0 1 0 C1.66 3.63 2.32 7.26 3 11 C2.01 11 1.02 11 0 11 C0 7.37 0 3.74 0 0 Z " fill="#F4F0E5" transform="translate(599,291)"/>
<path d="M0 0 C1.258125 -0.04125 2.51625 -0.0825 3.8125 -0.125 C4.52019531 -0.14820313 5.22789062 -0.17140625 5.95703125 -0.1953125 C8 0 8 0 11 2 C9.741875 2.185625 8.48375 2.37125 7.1875 2.5625 C6.12595703 2.71912109 6.12595703 2.71912109 5.04296875 2.87890625 C3 3 3 3 0 2 C0 1.34 0 0.68 0 0 Z " fill="#1A1B15" transform="translate(660,173)"/>
<path d="M0 0 C0 0.99 0 1.98 0 3 C-0.99 3 -1.98 3 -3 3 C-3.33 3.66 -3.66 4.32 -4 5 C-5.32 4.01 -6.64 3.02 -8 2 C-5.09399739 0.74335022 -3.20395416 0 0 0 Z " fill="#2F2F29" transform="translate(100,214)"/>
<path d="M0 0 C4.29 0.33 8.58 0.66 13 1 C13 1.33 13 1.66 13 2 C9.37 2.33 5.74 2.66 2 3 C1.34 2.01 0.68 1.02 0 0 Z " fill="#C8C4B9" transform="translate(371,333)"/>
<path d="M0 0 C-0.33 0.66 -0.66 1.32 -1 2 C-2.65 2 -4.3 2 -6 2 C-6.33 2.66 -6.66 3.32 -7 4 C-7.99 3.34 -8.98 2.68 -10 2 C-3.375 -1.125 -3.375 -1.125 0 0 Z " fill="#2B2923" transform="translate(76,226)"/>
<path d="M0 0 C2.94887797 0.50842724 5.37371875 1.59306362 8 3 C5.69 3.33 3.38 3.66 1 4 C1 3.34 1 2.68 1 2 C0.34 1.67 -0.32 1.34 -1 1 C-0.67 0.67 -0.34 0.34 0 0 Z " fill="#CBC7BC" transform="translate(76,275)"/>
<path d="M0 0 C-0.66 1.32 -1.32 2.64 -2 4 C-2.99 3.67 -3.98 3.34 -5 3 C-5.33 2.01 -5.66 1.02 -6 0 C-3 -1 -3 -1 0 0 Z " fill="#292824" transform="translate(115,210)"/>
<path d="M0 0 C0.99 0.66 1.98 1.32 3 2 C2.01 2.99 1.02 3.98 0 5 C-0.99 4.67 -1.98 4.34 -3 4 C-2.67 3.01 -2.34 2.02 -2 1 C-1.34 0.67 -0.68 0.34 0 0 Z " fill="#2D2C27" transform="translate(652,176)"/>
</svg>
